%TF.GenerationSoftware,KiCad,Pcbnew,(6.0.11)*%
%TF.CreationDate,2023-08-09T20:09:53+02:00*%
%TF.ProjectId,Box_domotique_A,426f785f-646f-46d6-9f74-697175655f41,rev?*%
%TF.SameCoordinates,Original*%
%TF.FileFunction,Legend,Bot*%
%TF.FilePolarity,Positive*%
%FSLAX46Y46*%
G04 Gerber Fmt 4.6, Leading zero omitted, Abs format (unit mm)*
G04 Created by KiCad (PCBNEW (6.0.11)) date 2023-08-09 20:09:53*
%MOMM*%
%LPD*%
G01*
G04 APERTURE LIST*
%ADD10C,0.500000*%
%ADD11C,0.300000*%
%ADD12C,0.150000*%
G04 APERTURE END LIST*
D10*
X132283457Y-66470257D02*
X131283457Y-66470257D01*
X130854885Y-69089304D02*
X132283457Y-69089304D01*
X132283457Y-64089304D01*
X130854885Y-64089304D01*
X129140600Y-69089304D02*
X129426314Y-68851209D01*
X129569171Y-68375019D01*
X129569171Y-64089304D01*
X126854885Y-68851209D02*
X127140600Y-69089304D01*
X127712028Y-69089304D01*
X127997742Y-68851209D01*
X128140600Y-68375019D01*
X128140600Y-66470257D01*
X127997742Y-65994066D01*
X127712028Y-65755971D01*
X127140600Y-65755971D01*
X126854885Y-65994066D01*
X126712028Y-66470257D01*
X126712028Y-66946447D01*
X128140600Y-67422638D01*
X124140600Y-68851209D02*
X124426314Y-69089304D01*
X124997742Y-69089304D01*
X125283457Y-68851209D01*
X125426314Y-68613114D01*
X125569171Y-68136923D01*
X125569171Y-66708352D01*
X125426314Y-66232161D01*
X125283457Y-65994066D01*
X124997742Y-65755971D01*
X124426314Y-65755971D01*
X124140600Y-65994066D01*
X123283457Y-65755971D02*
X122140600Y-65755971D01*
X122854885Y-64089304D02*
X122854885Y-68375019D01*
X122712028Y-68851209D01*
X122426314Y-69089304D01*
X122140600Y-69089304D01*
X121140600Y-69089304D02*
X121140600Y-65755971D01*
X121140600Y-66708352D02*
X120997742Y-66232161D01*
X120854885Y-65994066D01*
X120569171Y-65755971D01*
X120283457Y-65755971D01*
X118854885Y-69089304D02*
X119140600Y-68851209D01*
X119283457Y-68613114D01*
X119426314Y-68136923D01*
X119426314Y-66708352D01*
X119283457Y-66232161D01*
X119140600Y-65994066D01*
X118854885Y-65755971D01*
X118426314Y-65755971D01*
X118140600Y-65994066D01*
X117997742Y-66232161D01*
X117854885Y-66708352D01*
X117854885Y-68136923D01*
X117997742Y-68613114D01*
X118140600Y-68851209D01*
X118426314Y-69089304D01*
X118854885Y-69089304D01*
X116997742Y-64089304D02*
X116854885Y-64327400D01*
X116997742Y-64565495D01*
X117140600Y-64327400D01*
X116997742Y-64089304D01*
X116997742Y-64565495D01*
X115854885Y-64089304D02*
X115712028Y-64327400D01*
X115854885Y-64565495D01*
X115997742Y-64327400D01*
X115854885Y-64089304D01*
X115854885Y-64565495D01*
X116426314Y-69089304D02*
X116426314Y-65755971D01*
X113569171Y-69089304D02*
X113569171Y-64089304D01*
X113569171Y-68851209D02*
X113854885Y-69089304D01*
X114426314Y-69089304D01*
X114712028Y-68851209D01*
X114854885Y-68613114D01*
X114997742Y-68136923D01*
X114997742Y-66708352D01*
X114854885Y-66232161D01*
X114712028Y-65994066D01*
X114426314Y-65755971D01*
X113854885Y-65755971D01*
X113569171Y-65994066D01*
X110997742Y-68851209D02*
X111283457Y-69089304D01*
X111854885Y-69089304D01*
X112140600Y-68851209D01*
X112283457Y-68375019D01*
X112283457Y-66470257D01*
X112140600Y-65994066D01*
X111854885Y-65755971D01*
X111283457Y-65755971D01*
X110997742Y-65994066D01*
X110854885Y-66470257D01*
X110854885Y-66946447D01*
X112283457Y-67422638D01*
D11*
X103167723Y-72475142D02*
X103834390Y-71046571D01*
X104310580Y-72475142D02*
X104310580Y-69475142D01*
X103548676Y-69475142D01*
X103358200Y-69618000D01*
X103262961Y-69760857D01*
X103167723Y-70046571D01*
X103167723Y-70475142D01*
X103262961Y-70760857D01*
X103358200Y-70903714D01*
X103548676Y-71046571D01*
X104310580Y-71046571D01*
X101548676Y-72332285D02*
X101739152Y-72475142D01*
X102120104Y-72475142D01*
X102310580Y-72332285D01*
X102405819Y-72046571D01*
X102405819Y-70903714D01*
X102310580Y-70618000D01*
X102120104Y-70475142D01*
X101739152Y-70475142D01*
X101548676Y-70618000D01*
X101453438Y-70903714D01*
X101453438Y-71189428D01*
X102405819Y-71475142D01*
X99739152Y-72332285D02*
X99929628Y-72475142D01*
X100310580Y-72475142D01*
X100501057Y-72332285D01*
X100596295Y-72189428D01*
X100691533Y-71903714D01*
X100691533Y-71046571D01*
X100596295Y-70760857D01*
X100501057Y-70618000D01*
X100310580Y-70475142D01*
X99929628Y-70475142D01*
X99739152Y-70618000D01*
X98120104Y-72332285D02*
X98310580Y-72475142D01*
X98691533Y-72475142D01*
X98882009Y-72332285D01*
X98977247Y-72046571D01*
X98977247Y-70903714D01*
X98882009Y-70618000D01*
X98691533Y-70475142D01*
X98310580Y-70475142D01*
X98120104Y-70618000D01*
X98024866Y-70903714D01*
X98024866Y-71189428D01*
X98977247Y-71475142D01*
X97167723Y-70475142D02*
X97167723Y-73475142D01*
X97167723Y-70618000D02*
X96977247Y-70475142D01*
X96596295Y-70475142D01*
X96405819Y-70618000D01*
X96310580Y-70760857D01*
X96215342Y-71046571D01*
X96215342Y-71903714D01*
X96310580Y-72189428D01*
X96405819Y-72332285D01*
X96596295Y-72475142D01*
X96977247Y-72475142D01*
X97167723Y-72332285D01*
X95643914Y-70475142D02*
X94882009Y-70475142D01*
X95358200Y-69475142D02*
X95358200Y-72046571D01*
X95262961Y-72332285D01*
X95072485Y-72475142D01*
X94882009Y-72475142D01*
X93453438Y-72332285D02*
X93643914Y-72475142D01*
X94024866Y-72475142D01*
X94215342Y-72332285D01*
X94310580Y-72046571D01*
X94310580Y-70903714D01*
X94215342Y-70618000D01*
X94024866Y-70475142D01*
X93643914Y-70475142D01*
X93453438Y-70618000D01*
X93358200Y-70903714D01*
X93358200Y-71189428D01*
X94310580Y-71475142D01*
X91643914Y-70475142D02*
X91643914Y-72475142D01*
X92501057Y-70475142D02*
X92501057Y-72046571D01*
X92405819Y-72332285D01*
X92215342Y-72475142D01*
X91929628Y-72475142D01*
X91739152Y-72332285D01*
X91643914Y-72189428D01*
X90691533Y-72475142D02*
X90691533Y-70475142D01*
X90691533Y-71046571D02*
X90596295Y-70760857D01*
X90501057Y-70618000D01*
X90310580Y-70475142D01*
X90120104Y-70475142D01*
X99501057Y-77305142D02*
X100167723Y-75876571D01*
X100643914Y-77305142D02*
X100643914Y-74305142D01*
X99882009Y-74305142D01*
X99691533Y-74448000D01*
X99596295Y-74590857D01*
X99501057Y-74876571D01*
X99501057Y-75305142D01*
X99596295Y-75590857D01*
X99691533Y-75733714D01*
X99882009Y-75876571D01*
X100643914Y-75876571D01*
X97977247Y-75733714D02*
X98643914Y-75733714D01*
X98643914Y-77305142D02*
X98643914Y-74305142D01*
X97691533Y-74305142D01*
X97024866Y-74590857D02*
X96929628Y-74448000D01*
X96739152Y-74305142D01*
X96262961Y-74305142D01*
X96072485Y-74448000D01*
X95977247Y-74590857D01*
X95882009Y-74876571D01*
X95882009Y-75162285D01*
X95977247Y-75590857D01*
X97120104Y-77305142D01*
X95882009Y-77305142D01*
X94167723Y-75305142D02*
X94167723Y-77305142D01*
X94643914Y-74162285D02*
X95120104Y-76305142D01*
X93882009Y-76305142D01*
D12*
X151167647Y-74630019D02*
X151120028Y-74582400D01*
X151024790Y-74534780D01*
X150786695Y-74534780D01*
X150691457Y-74582400D01*
X150643838Y-74630019D01*
X150596219Y-74725257D01*
X150596219Y-74820495D01*
X150643838Y-74963352D01*
X151215266Y-75534780D01*
X150596219Y-75534780D01*
X150262885Y-74534780D02*
X149643838Y-74534780D01*
X149977171Y-74915733D01*
X149834314Y-74915733D01*
X149739076Y-74963352D01*
X149691457Y-75010971D01*
X149643838Y-75106209D01*
X149643838Y-75344304D01*
X149691457Y-75439542D01*
X149739076Y-75487161D01*
X149834314Y-75534780D01*
X150120028Y-75534780D01*
X150215266Y-75487161D01*
X150262885Y-75439542D01*
X149215266Y-75153828D02*
X148453361Y-75153828D01*
X147786695Y-74534780D02*
X147691457Y-74534780D01*
X147596219Y-74582400D01*
X147548600Y-74630019D01*
X147500980Y-74725257D01*
X147453361Y-74915733D01*
X147453361Y-75153828D01*
X147500980Y-75344304D01*
X147548600Y-75439542D01*
X147596219Y-75487161D01*
X147691457Y-75534780D01*
X147786695Y-75534780D01*
X147881933Y-75487161D01*
X147929552Y-75439542D01*
X147977171Y-75344304D01*
X148024790Y-75153828D01*
X148024790Y-74915733D01*
X147977171Y-74725257D01*
X147929552Y-74630019D01*
X147881933Y-74582400D01*
X147786695Y-74534780D01*
X146500980Y-75534780D02*
X147072409Y-75534780D01*
X146786695Y-75534780D02*
X146786695Y-74534780D01*
X146881933Y-74677638D01*
X146977171Y-74772876D01*
X147072409Y-74820495D01*
X145548600Y-75534780D02*
X146120028Y-75534780D01*
X145834314Y-75534780D02*
X145834314Y-74534780D01*
X145929552Y-74677638D01*
X146024790Y-74772876D01*
X146120028Y-74820495D01*
X145358123Y-75630019D02*
X144596219Y-75630019D01*
X144405742Y-75249066D02*
X143929552Y-75249066D01*
X144500980Y-75534780D02*
X144167647Y-74534780D01*
X143834314Y-75534780D01*
M02*
