%TF.GenerationSoftware,KiCad,Pcbnew,(6.0.11)*%
%TF.CreationDate,2023-08-09T20:09:53+02:00*%
%TF.ProjectId,Box_domotique_A,426f785f-646f-46d6-9f74-697175655f41,rev?*%
%TF.SameCoordinates,Original*%
%TF.FileFunction,Soldermask,Bot*%
%TF.FilePolarity,Negative*%
%FSLAX46Y46*%
G04 Gerber Fmt 4.6, Leading zero omitted, Abs format (unit mm)*
G04 Created by KiCad (PCBNEW (6.0.11)) date 2023-08-09 20:09:53*
%MOMM*%
%LPD*%
G01*
G04 APERTURE LIST*
G04 Aperture macros list*
%AMRoundRect*
0 Rectangle with rounded corners*
0 $1 Rounding radius*
0 $2 $3 $4 $5 $6 $7 $8 $9 X,Y pos of 4 corners*
0 Add a 4 corners polygon primitive as box body*
4,1,4,$2,$3,$4,$5,$6,$7,$8,$9,$2,$3,0*
0 Add four circle primitives for the rounded corners*
1,1,$1+$1,$2,$3*
1,1,$1+$1,$4,$5*
1,1,$1+$1,$6,$7*
1,1,$1+$1,$8,$9*
0 Add four rect primitives between the rounded corners*
20,1,$1+$1,$2,$3,$4,$5,0*
20,1,$1+$1,$4,$5,$6,$7,0*
20,1,$1+$1,$6,$7,$8,$9,0*
20,1,$1+$1,$8,$9,$2,$3,0*%
G04 Aperture macros list end*
%ADD10R,1.700000X1.700000*%
%ADD11O,1.700000X1.700000*%
%ADD12RoundRect,0.250000X-0.600000X-0.725000X0.600000X-0.725000X0.600000X0.725000X-0.600000X0.725000X0*%
%ADD13O,1.700000X1.950000*%
%ADD14O,0.800000X0.800000*%
%ADD15O,1.800000X1.150000*%
%ADD16O,2.000000X1.450000*%
%ADD17C,1.700000*%
G04 APERTURE END LIST*
D10*
%TO.C,J4*%
X133030200Y-62001400D03*
D11*
X130490200Y-62001400D03*
X127950200Y-62001400D03*
%TD*%
D12*
%TO.C,J6*%
X105393800Y-81996000D03*
D13*
X107893800Y-81996000D03*
X110393800Y-81996000D03*
X112893800Y-81996000D03*
%TD*%
D14*
%TO.C,J3*%
X84800000Y-74500000D03*
X84800000Y-69500000D03*
D15*
X82050000Y-75875000D03*
D16*
X85850000Y-75725000D03*
D15*
X82050000Y-68125000D03*
D16*
X85850000Y-68275000D03*
%TD*%
D12*
%TO.C,J7*%
X119000000Y-82000000D03*
D13*
X121500000Y-82000000D03*
X124000000Y-82000000D03*
X126500000Y-82000000D03*
X129000000Y-82000000D03*
%TD*%
D10*
%TO.C,J2*%
X92200000Y-82000000D03*
D11*
X94740000Y-82000000D03*
X97280000Y-82000000D03*
X99820000Y-82000000D03*
%TD*%
D10*
%TO.C,U4*%
X137000000Y-66375000D03*
D17*
X139540000Y-66375000D03*
X137000000Y-68915000D03*
X139540000Y-68915000D03*
X137000000Y-71455000D03*
X139540000Y-71455000D03*
X137000000Y-73995000D03*
X139540000Y-73995000D03*
%TD*%
D10*
%TO.C,J5*%
X121107200Y-61925200D03*
D11*
X118567200Y-61925200D03*
X116027200Y-61925200D03*
X113487200Y-61925200D03*
%TD*%
D10*
%TO.C,J1*%
X133985000Y-82118200D03*
D11*
X136525000Y-82118200D03*
X139065000Y-82118200D03*
X141605000Y-82118200D03*
X144145000Y-82118200D03*
X146685000Y-82118200D03*
%TD*%
M02*
