%TF.GenerationSoftware,KiCad,Pcbnew,(6.0.11)*%
%TF.CreationDate,2023-08-09T20:09:53+02:00*%
%TF.ProjectId,Box_domotique_A,426f785f-646f-46d6-9f74-697175655f41,rev?*%
%TF.SameCoordinates,Original*%
%TF.FileFunction,Copper,L1,Top*%
%TF.FilePolarity,Positive*%
%FSLAX46Y46*%
G04 Gerber Fmt 4.6, Leading zero omitted, Abs format (unit mm)*
G04 Created by KiCad (PCBNEW (6.0.11)) date 2023-08-09 20:09:53*
%MOMM*%
%LPD*%
G01*
G04 APERTURE LIST*
G04 Aperture macros list*
%AMRoundRect*
0 Rectangle with rounded corners*
0 $1 Rounding radius*
0 $2 $3 $4 $5 $6 $7 $8 $9 X,Y pos of 4 corners*
0 Add a 4 corners polygon primitive as box body*
4,1,4,$2,$3,$4,$5,$6,$7,$8,$9,$2,$3,0*
0 Add four circle primitives for the rounded corners*
1,1,$1+$1,$2,$3*
1,1,$1+$1,$4,$5*
1,1,$1+$1,$6,$7*
1,1,$1+$1,$8,$9*
0 Add four rect primitives between the rounded corners*
20,1,$1+$1,$2,$3,$4,$5,0*
20,1,$1+$1,$4,$5,$6,$7,0*
20,1,$1+$1,$6,$7,$8,$9,0*
20,1,$1+$1,$8,$9,$2,$3,0*%
G04 Aperture macros list end*
%TA.AperFunction,SMDPad,CuDef*%
%ADD10RoundRect,0.250000X0.250000X0.475000X-0.250000X0.475000X-0.250000X-0.475000X0.250000X-0.475000X0*%
%TD*%
%TA.AperFunction,SMDPad,CuDef*%
%ADD11RoundRect,0.225000X0.225000X0.250000X-0.225000X0.250000X-0.225000X-0.250000X0.225000X-0.250000X0*%
%TD*%
%TA.AperFunction,SMDPad,CuDef*%
%ADD12RoundRect,0.225000X-0.250000X0.225000X-0.250000X-0.225000X0.250000X-0.225000X0.250000X0.225000X0*%
%TD*%
%TA.AperFunction,SMDPad,CuDef*%
%ADD13RoundRect,0.225000X0.250000X-0.225000X0.250000X0.225000X-0.250000X0.225000X-0.250000X-0.225000X0*%
%TD*%
%TA.AperFunction,ComponentPad*%
%ADD14R,1.700000X1.700000*%
%TD*%
%TA.AperFunction,ComponentPad*%
%ADD15O,1.700000X1.700000*%
%TD*%
%TA.AperFunction,ComponentPad*%
%ADD16RoundRect,0.250000X-0.600000X-0.725000X0.600000X-0.725000X0.600000X0.725000X-0.600000X0.725000X0*%
%TD*%
%TA.AperFunction,ComponentPad*%
%ADD17O,1.700000X1.950000*%
%TD*%
%TA.AperFunction,SMDPad,CuDef*%
%ADD18R,1.300000X0.450000*%
%TD*%
%TA.AperFunction,ComponentPad*%
%ADD19O,1.800000X1.150000*%
%TD*%
%TA.AperFunction,ComponentPad*%
%ADD20O,2.000000X1.450000*%
%TD*%
%TA.AperFunction,SMDPad,CuDef*%
%ADD21RoundRect,0.250000X-0.475000X0.250000X-0.475000X-0.250000X0.475000X-0.250000X0.475000X0.250000X0*%
%TD*%
%TA.AperFunction,SMDPad,CuDef*%
%ADD22R,1.500000X1.500000*%
%TD*%
%TA.AperFunction,SMDPad,CuDef*%
%ADD23R,2.000000X1.500000*%
%TD*%
%TA.AperFunction,SMDPad,CuDef*%
%ADD24R,2.000000X3.800000*%
%TD*%
%TA.AperFunction,ComponentPad*%
%ADD25C,1.700000*%
%TD*%
%TA.AperFunction,SMDPad,CuDef*%
%ADD26RoundRect,0.150000X0.825000X0.150000X-0.825000X0.150000X-0.825000X-0.150000X0.825000X-0.150000X0*%
%TD*%
%TA.AperFunction,SMDPad,CuDef*%
%ADD27RoundRect,0.200000X0.275000X-0.200000X0.275000X0.200000X-0.275000X0.200000X-0.275000X-0.200000X0*%
%TD*%
%TA.AperFunction,SMDPad,CuDef*%
%ADD28RoundRect,0.011200X0.733800X0.128800X-0.733800X0.128800X-0.733800X-0.128800X0.733800X-0.128800X0*%
%TD*%
%TA.AperFunction,SMDPad,CuDef*%
%ADD29RoundRect,0.011200X-0.128800X0.733800X-0.128800X-0.733800X0.128800X-0.733800X0.128800X0.733800X0*%
%TD*%
%TA.AperFunction,SMDPad,CuDef*%
%ADD30RoundRect,0.250000X0.475000X-0.250000X0.475000X0.250000X-0.475000X0.250000X-0.475000X-0.250000X0*%
%TD*%
%TA.AperFunction,SMDPad,CuDef*%
%ADD31RoundRect,0.200000X-0.200000X-0.275000X0.200000X-0.275000X0.200000X0.275000X-0.200000X0.275000X0*%
%TD*%
%TA.AperFunction,SMDPad,CuDef*%
%ADD32RoundRect,0.250000X-0.250000X-0.475000X0.250000X-0.475000X0.250000X0.475000X-0.250000X0.475000X0*%
%TD*%
%TA.AperFunction,ViaPad*%
%ADD33C,2.200000*%
%TD*%
%TA.AperFunction,ViaPad*%
%ADD34C,0.800000*%
%TD*%
%TA.AperFunction,ViaPad*%
%ADD35C,0.400000*%
%TD*%
%TA.AperFunction,Conductor*%
%ADD36C,1.400000*%
%TD*%
%TA.AperFunction,Conductor*%
%ADD37C,0.800000*%
%TD*%
%TA.AperFunction,Conductor*%
%ADD38C,0.200000*%
%TD*%
%TA.AperFunction,Conductor*%
%ADD39C,0.400000*%
%TD*%
%TA.AperFunction,Conductor*%
%ADD40C,0.600000*%
%TD*%
G04 APERTURE END LIST*
D10*
%TO.P,C9,1*%
%TO.N,+3V3*%
X125587800Y-77419200D03*
%TO.P,C9,2*%
%TO.N,GND*%
X123687800Y-77419200D03*
%TD*%
D11*
%TO.P,C2,1*%
%TO.N,+5V*%
X132982000Y-65963800D03*
%TO.P,C2,2*%
%TO.N,GND*%
X131432000Y-65963800D03*
%TD*%
D12*
%TO.P,C3,1*%
%TO.N,+5V*%
X101955600Y-72300800D03*
%TO.P,C3,2*%
%TO.N,GND*%
X101955600Y-73850800D03*
%TD*%
D13*
%TO.P,C5,1*%
%TO.N,+3V3*%
X101879400Y-69355000D03*
%TO.P,C5,2*%
%TO.N,GND*%
X101879400Y-67805000D03*
%TD*%
D14*
%TO.P,J4,1,Pin_1*%
%TO.N,+5V*%
X133030200Y-62001400D03*
D15*
%TO.P,J4,2,Pin_2*%
%TO.N,/cmd_bandeau_leds*%
X130490200Y-62001400D03*
%TO.P,J4,3,Pin_3*%
%TO.N,GND*%
X127950200Y-62001400D03*
%TD*%
D16*
%TO.P,J6,1,Pin_1*%
%TO.N,GND*%
X105393800Y-81996000D03*
D17*
%TO.P,J6,2,Pin_2*%
%TO.N,unconnected-(J6-Pad2)*%
X107893800Y-81996000D03*
%TO.P,J6,3,Pin_3*%
%TO.N,/DBG_Tx*%
X110393800Y-81996000D03*
%TO.P,J6,4,Pin_4*%
%TO.N,/DBG_Rx*%
X112893800Y-81996000D03*
%TD*%
D18*
%TO.P,J3,1,VBUS*%
%TO.N,+5V*%
X85900000Y-70700000D03*
%TO.P,J3,2,D-*%
%TO.N,Net-(J3-Pad2)*%
X85900000Y-71350000D03*
%TO.P,J3,3,D+*%
%TO.N,Net-(J3-Pad3)*%
X85900000Y-72000000D03*
%TO.P,J3,4,ID*%
%TO.N,unconnected-(J3-Pad4)*%
X85900000Y-72650000D03*
%TO.P,J3,5,GND*%
%TO.N,GND*%
X85900000Y-73300000D03*
D19*
%TO.P,J3,6,Shield*%
X82050000Y-75875000D03*
D20*
X85850000Y-75725000D03*
D19*
X82050000Y-68125000D03*
D20*
X85850000Y-68275000D03*
%TD*%
D11*
%TO.P,C4,1*%
%TO.N,+5V*%
X132982000Y-64465200D03*
%TO.P,C4,2*%
%TO.N,GND*%
X131432000Y-64465200D03*
%TD*%
D16*
%TO.P,J7,1,Pin_1*%
%TO.N,GND*%
X119000000Y-82000000D03*
D17*
%TO.P,J7,2,Pin_2*%
%TO.N,+3V3*%
X121500000Y-82000000D03*
%TO.P,J7,3,Pin_3*%
%TO.N,/RST*%
X124000000Y-82000000D03*
%TO.P,J7,4,Pin_4*%
%TO.N,/SWDCLK*%
X126500000Y-82000000D03*
%TO.P,J7,5,Pin_5*%
%TO.N,/SWDIO*%
X129000000Y-82000000D03*
%TD*%
D21*
%TO.P,C10,1*%
%TO.N,+3V3*%
X133070600Y-69138800D03*
%TO.P,C10,2*%
%TO.N,GND*%
X133070600Y-71038800D03*
%TD*%
D14*
%TO.P,J2,1,Pin_1*%
%TO.N,GND*%
X92200000Y-82000000D03*
D15*
%TO.P,J2,2,Pin_2*%
%TO.N,+5V*%
X94740000Y-82000000D03*
%TO.P,J2,3,Pin_3*%
%TO.N,/DBG_Tx*%
X97280000Y-82000000D03*
%TO.P,J2,4,Pin_4*%
%TO.N,/DBG_Rx*%
X99820000Y-82000000D03*
%TD*%
D22*
%TO.P,Reset1,1,1*%
%TO.N,/RST*%
X97900000Y-63000000D03*
%TO.P,Reset1,2,2*%
%TO.N,GND*%
X90100000Y-63000000D03*
%TD*%
D23*
%TO.P,U1,1,ADJ*%
%TO.N,GND*%
X103987200Y-67575400D03*
D24*
%TO.P,U1,2,VO*%
%TO.N,+3V3*%
X110287200Y-69875400D03*
D23*
X103987200Y-69875400D03*
%TO.P,U1,3,VI*%
%TO.N,+5V*%
X103987200Y-72175400D03*
%TD*%
D14*
%TO.P,U4,1,GND*%
%TO.N,GND*%
X137000000Y-66375000D03*
D25*
%TO.P,U4,2,VCC*%
%TO.N,+3V3*%
X139540000Y-66375000D03*
%TO.P,U4,3,CE*%
%TO.N,/CE*%
X137000000Y-68915000D03*
%TO.P,U4,4,~{CSN}*%
%TO.N,/CSN*%
X139540000Y-68915000D03*
%TO.P,U4,5,SCK*%
%TO.N,/SCK*%
X137000000Y-71455000D03*
%TO.P,U4,6,MOSI*%
%TO.N,/MOSI*%
X139540000Y-71455000D03*
%TO.P,U4,7,MISO*%
%TO.N,/MISO*%
X137000000Y-73995000D03*
%TO.P,U4,8,IRQ*%
%TO.N,/IRQ*%
X139540000Y-73995000D03*
%TD*%
D14*
%TO.P,J5,1,Pin_1*%
%TO.N,+3V3*%
X121107200Y-61925200D03*
D15*
%TO.P,J5,2,Pin_2*%
%TO.N,GND*%
X118567200Y-61925200D03*
%TO.P,J5,3,Pin_3*%
%TO.N,/SCL*%
X116027200Y-61925200D03*
%TO.P,J5,4,Pin_4*%
%TO.N,/SDA*%
X113487200Y-61925200D03*
%TD*%
D21*
%TO.P,C6,1*%
%TO.N,+3V3*%
X124072562Y-61897992D03*
%TO.P,C6,2*%
%TO.N,GND*%
X124072562Y-63797992D03*
%TD*%
D13*
%TO.P,C1,1*%
%TO.N,+5V*%
X88849200Y-70396400D03*
%TO.P,C1,2*%
%TO.N,GND*%
X88849200Y-68846400D03*
%TD*%
D26*
%TO.P,U2,1,GND*%
%TO.N,GND*%
X97217000Y-76809600D03*
%TO.P,U2,2,TXD*%
%TO.N,/DBG_Tx*%
X97217000Y-75539600D03*
%TO.P,U2,3,RXD*%
%TO.N,/DBG_Rx*%
X97217000Y-74269600D03*
%TO.P,U2,4,V3*%
%TO.N,+3V3*%
X97217000Y-72999600D03*
%TO.P,U2,5,UD+*%
%TO.N,Net-(J3-Pad3)*%
X97217000Y-71729600D03*
%TO.P,U2,6,UD-*%
%TO.N,Net-(J3-Pad2)*%
X97217000Y-70459600D03*
%TO.P,U2,7,NC*%
%TO.N,unconnected-(U2-Pad7)*%
X97217000Y-69189600D03*
%TO.P,U2,8,NC*%
%TO.N,unconnected-(U2-Pad8)*%
X97217000Y-67919600D03*
%TO.P,U2,9,~{CTS}*%
%TO.N,unconnected-(U2-Pad9)*%
X92267000Y-67919600D03*
%TO.P,U2,10,~{DSR}*%
%TO.N,unconnected-(U2-Pad10)*%
X92267000Y-69189600D03*
%TO.P,U2,11,~{RI}*%
%TO.N,unconnected-(U2-Pad11)*%
X92267000Y-70459600D03*
%TO.P,U2,12,~{DCD}*%
%TO.N,unconnected-(U2-Pad12)*%
X92267000Y-71729600D03*
%TO.P,U2,13,~{DTR}*%
%TO.N,unconnected-(U2-Pad13)*%
X92267000Y-72999600D03*
%TO.P,U2,14,~{RTS}*%
%TO.N,unconnected-(U2-Pad14)*%
X92267000Y-74269600D03*
%TO.P,U2,15,R232*%
%TO.N,unconnected-(U2-Pad15)*%
X92267000Y-75539600D03*
%TO.P,U2,16,VCC*%
%TO.N,+3V3*%
X92267000Y-76809600D03*
%TD*%
D27*
%TO.P,R2,1*%
%TO.N,+3V3*%
X102082600Y-64680600D03*
%TO.P,R2,2*%
%TO.N,/RST*%
X102082600Y-63030600D03*
%TD*%
D14*
%TO.P,J1,1,Pin_1*%
%TO.N,/PC0*%
X133985000Y-82118200D03*
D15*
%TO.P,J1,2,Pin_2*%
%TO.N,/PC13*%
X136525000Y-82118200D03*
%TO.P,J1,3,Pin_3*%
%TO.N,/PC14*%
X139065000Y-82118200D03*
%TO.P,J1,4,Pin_4*%
%TO.N,/PC15*%
X141605000Y-82118200D03*
%TO.P,J1,5,Pin_5*%
%TO.N,+3V3*%
X144145000Y-82118200D03*
%TO.P,J1,6,Pin_6*%
%TO.N,GND*%
X146685000Y-82118200D03*
%TD*%
D28*
%TO.P,U3,1,PC0*%
%TO.N,/PC0*%
X126166200Y-73793800D03*
%TO.P,U3,2,PC13*%
%TO.N,/PC13*%
X126166200Y-73293800D03*
%TO.P,U3,3,PC14-OSC32_IN*%
%TO.N,/PC14*%
X126166200Y-72793800D03*
%TO.P,U3,4,PC15-OSC32_OUT*%
%TO.N,/PC15*%
X126166200Y-72293800D03*
%TO.P,U3,5,PH0*%
%TO.N,unconnected-(U3-Pad5)*%
X126166200Y-71793800D03*
%TO.P,U3,6,PH1*%
%TO.N,unconnected-(U3-Pad6)*%
X126166200Y-71293800D03*
%TO.P,U3,7,NRST*%
%TO.N,/RST*%
X126166200Y-70793800D03*
%TO.P,U3,8,VSSA*%
%TO.N,GND*%
X126166200Y-70293800D03*
%TO.P,U3,9,VDDA*%
%TO.N,+3V3*%
X126166200Y-69793800D03*
%TO.P,U3,10,PA0*%
%TO.N,/cmd_bandeau_leds*%
X126166200Y-69293800D03*
%TO.P,U3,11,PA1*%
%TO.N,unconnected-(U3-Pad11)*%
X126166200Y-68793800D03*
%TO.P,U3,12,PA2*%
%TO.N,unconnected-(U3-Pad12)*%
X126166200Y-68293800D03*
D29*
%TO.P,U3,13,PA3*%
%TO.N,unconnected-(U3-Pad13)*%
X124746200Y-66873800D03*
%TO.P,U3,14,PA4*%
%TO.N,unconnected-(U3-Pad14)*%
X124246200Y-66873800D03*
%TO.P,U3,15,PA5*%
%TO.N,unconnected-(U3-Pad15)*%
X123746200Y-66873800D03*
%TO.P,U3,16,PA6*%
%TO.N,unconnected-(U3-Pad16)*%
X123246200Y-66873800D03*
%TO.P,U3,17,PA7*%
%TO.N,unconnected-(U3-Pad17)*%
X122746200Y-66873800D03*
%TO.P,U3,18,PB0*%
%TO.N,unconnected-(U3-Pad18)*%
X122246200Y-66873800D03*
%TO.P,U3,19,PB1*%
%TO.N,unconnected-(U3-Pad19)*%
X121746200Y-66873800D03*
%TO.P,U3,20,PB2*%
%TO.N,unconnected-(U3-Pad20)*%
X121246200Y-66873800D03*
%TO.P,U3,21,PB10*%
%TO.N,unconnected-(U3-Pad21)*%
X120746200Y-66873800D03*
%TO.P,U3,22,PB11*%
%TO.N,unconnected-(U3-Pad22)*%
X120246200Y-66873800D03*
%TO.P,U3,23,VSS*%
%TO.N,GND*%
X119746200Y-66873800D03*
%TO.P,U3,24,VDD*%
%TO.N,+3V3*%
X119246200Y-66873800D03*
D28*
%TO.P,U3,25,PB12*%
%TO.N,unconnected-(U3-Pad25)*%
X117826200Y-68293800D03*
%TO.P,U3,26,PB13*%
%TO.N,unconnected-(U3-Pad26)*%
X117826200Y-68793800D03*
%TO.P,U3,27,PB14*%
%TO.N,unconnected-(U3-Pad27)*%
X117826200Y-69293800D03*
%TO.P,U3,28,PB15*%
%TO.N,unconnected-(U3-Pad28)*%
X117826200Y-69793800D03*
%TO.P,U3,29,PA8*%
%TO.N,unconnected-(U3-Pad29)*%
X117826200Y-70293800D03*
%TO.P,U3,30,PA9*%
%TO.N,/DBG_Rx*%
X117826200Y-70793800D03*
%TO.P,U3,31,PA10*%
%TO.N,/DBG_Tx*%
X117826200Y-71293800D03*
%TO.P,U3,32,PA11*%
%TO.N,unconnected-(U3-Pad32)*%
X117826200Y-71793800D03*
%TO.P,U3,33,PA12*%
%TO.N,unconnected-(U3-Pad33)*%
X117826200Y-72293800D03*
%TO.P,U3,34,PA13-SWDIO*%
%TO.N,/SWDIO*%
X117826200Y-72793800D03*
%TO.P,U3,35,VSS*%
%TO.N,GND*%
X117826200Y-73293800D03*
%TO.P,U3,36,VDD*%
%TO.N,+3V3*%
X117826200Y-73793800D03*
D29*
%TO.P,U3,37,PA14-SWDCLK*%
%TO.N,/SWDCLK*%
X119246200Y-75213800D03*
%TO.P,U3,38,PA15*%
%TO.N,/CSN*%
X119746200Y-75213800D03*
%TO.P,U3,39,PB3*%
%TO.N,/SCK*%
X120246200Y-75213800D03*
%TO.P,U3,40,PB4*%
%TO.N,/MISO*%
X120746200Y-75213800D03*
%TO.P,U3,41,PB5*%
%TO.N,/MOSI*%
X121246200Y-75213800D03*
%TO.P,U3,42,PB6*%
%TO.N,/SCL*%
X121746200Y-75213800D03*
%TO.P,U3,43,PB7*%
%TO.N,/SDA*%
X122246200Y-75213800D03*
%TO.P,U3,44,BOOT0*%
%TO.N,Net-(R1-Pad1)*%
X122746200Y-75213800D03*
%TO.P,U3,45,PB8*%
%TO.N,/IRQ*%
X123246200Y-75213800D03*
%TO.P,U3,46,PB9*%
%TO.N,/CE*%
X123746200Y-75213800D03*
%TO.P,U3,47,VSS*%
%TO.N,GND*%
X124246200Y-75213800D03*
%TO.P,U3,48,VDD*%
%TO.N,+3V3*%
X124746200Y-75213800D03*
%TD*%
D21*
%TO.P,C12,1*%
%TO.N,+3V3*%
X131114800Y-69138800D03*
%TO.P,C12,2*%
%TO.N,GND*%
X131114800Y-71038800D03*
%TD*%
%TO.P,C14,1*%
%TO.N,+3V3*%
X129057400Y-69138800D03*
%TO.P,C14,2*%
%TO.N,GND*%
X129057400Y-71038800D03*
%TD*%
D30*
%TO.P,C8,1*%
%TO.N,+3V3*%
X117195600Y-66736000D03*
%TO.P,C8,2*%
%TO.N,GND*%
X117195600Y-64836000D03*
%TD*%
%TO.P,C11,1*%
%TO.N,+3V3*%
X115087400Y-74660800D03*
%TO.P,C11,2*%
%TO.N,GND*%
X115087400Y-72760800D03*
%TD*%
D31*
%TO.P,R1,1*%
%TO.N,Net-(R1-Pad1)*%
X122669800Y-79146400D03*
%TO.P,R1,2*%
%TO.N,GND*%
X124319800Y-79146400D03*
%TD*%
D13*
%TO.P,C13,1*%
%TO.N,GND*%
X100203000Y-64630600D03*
%TO.P,C13,2*%
%TO.N,/RST*%
X100203000Y-63080600D03*
%TD*%
D32*
%TO.P,C7,1*%
%TO.N,+3V3*%
X142204400Y-66395600D03*
%TO.P,C7,2*%
%TO.N,GND*%
X144104400Y-66395600D03*
%TD*%
D33*
%TO.N,*%
X151000000Y-63000000D03*
X151000000Y-82000000D03*
X83000000Y-82000000D03*
X83000000Y-63000000D03*
D34*
%TO.N,+5V*%
X100406200Y-72694800D03*
X87363000Y-70396400D03*
D35*
%TO.N,GND*%
X125984000Y-67056000D03*
X133350000Y-78486000D03*
X131318000Y-80010000D03*
X86614000Y-83820000D03*
X143002000Y-72898000D03*
X86868000Y-79502000D03*
X125984000Y-61976000D03*
X137922000Y-76708000D03*
X81534000Y-79502000D03*
X127000000Y-74930000D03*
X147066000Y-65786000D03*
X148082000Y-61722000D03*
X117602000Y-79502000D03*
X113792000Y-70612000D03*
X127000000Y-79502000D03*
X133350000Y-74676000D03*
X119126000Y-70866000D03*
X143002000Y-77216000D03*
X120142000Y-76962000D03*
X134874000Y-66548000D03*
X110744000Y-84328000D03*
X137922000Y-79502000D03*
X121158000Y-65278000D03*
X100838000Y-84328000D03*
X85344000Y-61468000D03*
X114046000Y-68834000D03*
X92710000Y-61214000D03*
X115062000Y-65532000D03*
X111760000Y-66040000D03*
X130556000Y-67564000D03*
X124206000Y-68580000D03*
X90932000Y-79248000D03*
X100076000Y-69850000D03*
X120142000Y-68326000D03*
X125476000Y-65024000D03*
X107188000Y-68326000D03*
X143510000Y-61468000D03*
X148590000Y-71374000D03*
X135382000Y-62484000D03*
X96266000Y-83820000D03*
X108966000Y-62230000D03*
X134620000Y-69342000D03*
X140208000Y-61722000D03*
X89662000Y-73660000D03*
X112268000Y-68580000D03*
X115570000Y-69850000D03*
X118110000Y-74930000D03*
X100330000Y-61214000D03*
X93218000Y-65532000D03*
X140462000Y-78994000D03*
X142748000Y-64008000D03*
X110490000Y-60960000D03*
X107696000Y-76708000D03*
X129032000Y-65532000D03*
X121412000Y-78232000D03*
X154432000Y-76454000D03*
X104140000Y-75184000D03*
X115316000Y-76708000D03*
X99822000Y-66294000D03*
X154686000Y-62484000D03*
X146304000Y-84074000D03*
X121920000Y-77216000D03*
X94742000Y-68326000D03*
X108458000Y-66802000D03*
X115062000Y-83820000D03*
X148590000Y-77216000D03*
X81534000Y-72390000D03*
X145542000Y-79756000D03*
X112522000Y-79502000D03*
X81788000Y-65278000D03*
X152400000Y-66294000D03*
X129286000Y-78232000D03*
X116332000Y-72644000D03*
X121666000Y-84074000D03*
X117094000Y-83566000D03*
X127508000Y-76962000D03*
X130048000Y-75184000D03*
X154940000Y-69088000D03*
X137414000Y-64008000D03*
X133350000Y-79756000D03*
X105156000Y-61214000D03*
X143002000Y-69088000D03*
X106000000Y-64000000D03*
X107442000Y-72390000D03*
X100584000Y-80010000D03*
X118618000Y-65532000D03*
X154686000Y-84328000D03*
D34*
%TO.N,+3V3*%
X107315000Y-69850000D03*
X116479300Y-76052700D03*
D35*
%TO.N,/RST*%
X125678000Y-75439200D03*
X109601000Y-65379600D03*
%TO.N,/DBG_Tx*%
X94284800Y-76454000D03*
%TO.N,/DBG_Rx*%
X95504000Y-74676000D03*
%TO.N,/SCL*%
X115951000Y-66929000D03*
X121310400Y-70459600D03*
%TO.N,/SDA*%
X120421400Y-70053200D03*
X115163600Y-67005200D03*
%TO.N,/CSN*%
X119746200Y-71562400D03*
%TO.N,/SCK*%
X120246200Y-72087800D03*
%TO.N,/MISO*%
X120746700Y-73152000D03*
%TO.N,/MOSI*%
X121246200Y-72657400D03*
%TO.N,/IRQ*%
X123246200Y-73792400D03*
%TO.N,/CE*%
X123746200Y-71077700D03*
%TD*%
D36*
%TO.N,+5V*%
X94740000Y-80088200D02*
X95986600Y-78841600D01*
X103987200Y-72175400D02*
X102081000Y-72175400D01*
X102081000Y-72175400D02*
X101955600Y-72300800D01*
D37*
X87363000Y-70396400D02*
X85407200Y-70396400D01*
D36*
X100076000Y-77444600D02*
X100076000Y-73101200D01*
X100076000Y-73101200D02*
X100876400Y-72300800D01*
X100876400Y-72300800D02*
X101955600Y-72300800D01*
X95986600Y-78841600D02*
X98679000Y-78841600D01*
X94740000Y-82000000D02*
X94740000Y-80088200D01*
X98679000Y-78841600D02*
X100076000Y-77444600D01*
D37*
X88849200Y-70396400D02*
X87363000Y-70396400D01*
X132982000Y-65963800D02*
X132982000Y-62049600D01*
X132982000Y-62049600D02*
X133030200Y-62001400D01*
D38*
%TO.N,GND*%
X126166200Y-70293800D02*
X128312400Y-70293800D01*
X119746200Y-66873800D02*
X119746200Y-65288600D01*
X115087400Y-72760800D02*
X115620400Y-73293800D01*
X119278400Y-64820800D02*
X117210800Y-64820800D01*
X133070600Y-71038800D02*
X129057400Y-71038800D01*
X115620400Y-73293800D02*
X117826200Y-73293800D01*
X119746200Y-65288600D02*
X119278400Y-64820800D01*
X128312400Y-70293800D02*
X129057400Y-71038800D01*
X117210800Y-64820800D02*
X117195600Y-64836000D01*
X123687800Y-78514400D02*
X124319800Y-79146400D01*
X123687800Y-77419200D02*
X123687800Y-78514400D01*
X124306200Y-76800800D02*
X124306200Y-75287000D01*
X123687800Y-77419200D02*
X124306200Y-76800800D01*
%TO.N,+3V3*%
X125587800Y-76055400D02*
X124746200Y-75213800D01*
X134444400Y-67765000D02*
X138150000Y-67765000D01*
D39*
X103936400Y-69926200D02*
X103987200Y-69875400D01*
X101994000Y-69355000D02*
X102565200Y-69926200D01*
D40*
X110287200Y-69875400D02*
X110287200Y-65683350D01*
D39*
X92887800Y-76809600D02*
X94513400Y-75184000D01*
D38*
X129260600Y-83794600D02*
X123294600Y-83794600D01*
D36*
X103987200Y-69875400D02*
X110287200Y-69875400D01*
D38*
X133070600Y-69138800D02*
X134444400Y-67765000D01*
X130657600Y-81356200D02*
X130657600Y-82854800D01*
D40*
X136241800Y-60575200D02*
X139649200Y-63982600D01*
D38*
X114056200Y-69875400D02*
X110287200Y-69875400D01*
X142183800Y-66375000D02*
X139540000Y-66375000D01*
D39*
X92267000Y-76809600D02*
X92887800Y-76809600D01*
D38*
X115087400Y-74660800D02*
X115813800Y-74660800D01*
D40*
X112627400Y-60575200D02*
X119757200Y-60575200D01*
D38*
X130657600Y-82854800D02*
X129717800Y-83794600D01*
X133070600Y-69138800D02*
X129057400Y-69138800D01*
X129717800Y-83794600D02*
X129260600Y-83794600D01*
X117195600Y-66736000D02*
X114056200Y-69875400D01*
D40*
X110794800Y-62407800D02*
X112627400Y-60575200D01*
D38*
X124072562Y-61897992D02*
X124045354Y-61925200D01*
D40*
X110794800Y-65175750D02*
X110794800Y-62407800D01*
D38*
X124045354Y-61925200D02*
X121107200Y-61925200D01*
D39*
X105092400Y-64680600D02*
X110287200Y-69875400D01*
D38*
X126166200Y-69793800D02*
X128402400Y-69793800D01*
D39*
X95123000Y-72999600D02*
X97217000Y-72999600D01*
D37*
X121500000Y-81073400D02*
X121500000Y-82000000D01*
D38*
X142204400Y-66395600D02*
X142183800Y-66375000D01*
X119108400Y-66736000D02*
X119246200Y-66873800D01*
X126720600Y-77419200D02*
X130657600Y-81356200D01*
D40*
X110287200Y-65683350D02*
X110794800Y-65175750D01*
D39*
X98234800Y-72999600D02*
X101879400Y-69355000D01*
X94513400Y-73609200D02*
X95123000Y-72999600D01*
X97217000Y-72999600D02*
X98234800Y-72999600D01*
D37*
X116479300Y-76052700D02*
X121500000Y-81073400D01*
D38*
X125587800Y-77419200D02*
X125587800Y-76055400D01*
D39*
X102082600Y-64680600D02*
X105092400Y-64680600D01*
D38*
X115813800Y-74660800D02*
X116680800Y-73793800D01*
X123294600Y-83794600D02*
X121500000Y-82000000D01*
X128402400Y-69793800D02*
X129057400Y-69138800D01*
D40*
X139649200Y-63982600D02*
X139540000Y-64091800D01*
D38*
X125587800Y-77419200D02*
X126720600Y-77419200D01*
D37*
X115087400Y-74660800D02*
X116479300Y-76052700D01*
D38*
X138150000Y-67765000D02*
X139540000Y-66375000D01*
X117195600Y-66736000D02*
X119108400Y-66736000D01*
X116680800Y-73793800D02*
X117826200Y-73793800D01*
D39*
X102565200Y-69926200D02*
X103936400Y-69926200D01*
D40*
X139540000Y-64091800D02*
X139540000Y-66375000D01*
D39*
X101879400Y-69355000D02*
X101994000Y-69355000D01*
D40*
X119757200Y-60575200D02*
X121107200Y-61925200D01*
X119757200Y-60575200D02*
X136241800Y-60575200D01*
D38*
X144113600Y-83000000D02*
X143319000Y-83794600D01*
D39*
X94513400Y-75184000D02*
X94513400Y-73609200D01*
D38*
X143319000Y-83794600D02*
X129260600Y-83794600D01*
%TO.N,/RST*%
X125294200Y-70793800D02*
X126166200Y-70793800D01*
X125678000Y-74608303D02*
X124841000Y-73771303D01*
X125678000Y-75439200D02*
X125678000Y-74608303D01*
D39*
X102082600Y-63030600D02*
X107252000Y-63030600D01*
X97900000Y-63000000D02*
X102052000Y-63000000D01*
D38*
X124841000Y-71247000D02*
X125294200Y-70793800D01*
D39*
X102052000Y-63000000D02*
X102082600Y-63030600D01*
X107252000Y-63030600D02*
X109601000Y-65379600D01*
D38*
X124841000Y-73771303D02*
X124841000Y-71247000D01*
%TO.N,/DBG_Tx*%
X111668800Y-83271000D02*
X110393800Y-81996000D01*
X110393800Y-82417600D02*
X110393800Y-81996000D01*
X109448600Y-83362800D02*
X110393800Y-82417600D01*
X114096800Y-82544346D02*
X113370146Y-83271000D01*
X114062400Y-72282983D02*
X114062400Y-75138617D01*
X97217000Y-75539600D02*
X95199200Y-75539600D01*
X114062400Y-75138617D02*
X114096800Y-75173017D01*
X115051583Y-71293800D02*
X114062400Y-72282983D01*
X113370146Y-83271000D02*
X111668800Y-83271000D01*
X98642800Y-83362800D02*
X109448600Y-83362800D01*
X95199200Y-75539600D02*
X94284800Y-76454000D01*
X114096800Y-75173017D02*
X114096800Y-82544346D01*
X97280000Y-82000000D02*
X98642800Y-83362800D01*
X117826200Y-71293800D02*
X115051583Y-71293800D01*
%TO.N,/DBG_Rx*%
X113696800Y-81193000D02*
X113696800Y-80187800D01*
X111683800Y-80187800D02*
X112893800Y-81397800D01*
X95910400Y-74269600D02*
X97217000Y-74269600D01*
X103606600Y-80187800D02*
X111683800Y-80187800D01*
X113662400Y-80153400D02*
X113662400Y-72117297D01*
X99820000Y-82000000D02*
X101794400Y-82000000D01*
X112893800Y-81397800D02*
X112893800Y-81996000D01*
X95504000Y-74676000D02*
X95910400Y-74269600D01*
X114905600Y-70793800D02*
X113639600Y-72059800D01*
X101794400Y-82000000D02*
X103606600Y-80187800D01*
X112893800Y-81996000D02*
X113696800Y-81193000D01*
X113696800Y-80187800D02*
X113662400Y-80153400D01*
X117826200Y-70793800D02*
X114905600Y-70793800D01*
%TO.N,Net-(J3-Pad2)*%
X91035204Y-71350000D02*
X91316004Y-71069200D01*
X91316004Y-71069200D02*
X96607400Y-71069200D01*
X85900000Y-71350000D02*
X91035204Y-71350000D01*
X96607400Y-71069200D02*
X97217000Y-70459600D01*
%TO.N,Net-(J3-Pad3)*%
X91255604Y-72329600D02*
X96617000Y-72329600D01*
X85900000Y-72000000D02*
X90926004Y-72000000D01*
X96617000Y-72329600D02*
X97217000Y-71729600D01*
X90926004Y-72000000D02*
X91255604Y-72329600D01*
%TO.N,/cmd_bandeau_leds*%
X126968903Y-69293800D02*
X130490200Y-65772503D01*
X130490200Y-65772503D02*
X130490200Y-62001400D01*
X126166200Y-69293800D02*
X126968903Y-69293800D01*
%TO.N,/SCL*%
X121310400Y-70459600D02*
X121746200Y-70895400D01*
X121746200Y-70895400D02*
X121746200Y-75213800D01*
X115951000Y-66929000D02*
X116027200Y-66852800D01*
X116027200Y-66852800D02*
X116027200Y-61925200D01*
%TO.N,/SDA*%
X115163600Y-67005200D02*
X113487200Y-65328800D01*
X121517507Y-69959600D02*
X122246200Y-70688293D01*
X120515000Y-69959600D02*
X121517507Y-69959600D01*
X120421400Y-70053200D02*
X120515000Y-69959600D01*
X122246200Y-70688293D02*
X122246200Y-75213800D01*
X113487200Y-65328800D02*
X113487200Y-61925200D01*
%TO.N,/SWDCLK*%
X119246200Y-76904907D02*
X122300493Y-79959200D01*
X122300493Y-79959200D02*
X124459200Y-79959200D01*
X124459200Y-79959200D02*
X126500000Y-82000000D01*
X119246200Y-75213800D02*
X119246200Y-76904907D01*
%TO.N,/SWDIO*%
X125323600Y-82574946D02*
X126035254Y-83286600D01*
X125323600Y-81572254D02*
X125323600Y-82574946D01*
X118871200Y-73036097D02*
X118871200Y-74245000D01*
X122134808Y-80359200D02*
X124110546Y-80359200D01*
X117826200Y-72793800D02*
X118628903Y-72793800D01*
X124110546Y-80359200D02*
X125323600Y-81572254D01*
X127713400Y-83286600D02*
X129000000Y-82000000D01*
X118795800Y-77020193D02*
X122134808Y-80359200D01*
X126035254Y-83286600D02*
X127713400Y-83286600D01*
X118871200Y-74245000D02*
X118795800Y-74320400D01*
X118628903Y-72793800D02*
X118871200Y-73036097D01*
X118795800Y-74320400D02*
X118795800Y-77020193D01*
%TO.N,Net-(R1-Pad1)*%
X122669800Y-79146400D02*
X122669800Y-76247600D01*
X122669800Y-76247600D02*
X122746200Y-76171200D01*
X122746200Y-76171200D02*
X122746200Y-75213800D01*
%TO.N,/CSN*%
X119746200Y-71562400D02*
X119746200Y-75213800D01*
%TO.N,/SCK*%
X120246200Y-72087800D02*
X120246200Y-75213800D01*
%TO.N,/MISO*%
X120746200Y-73152500D02*
X120746700Y-73152000D01*
X120746200Y-75213800D02*
X120746200Y-73152500D01*
%TO.N,/MOSI*%
X121246200Y-72657400D02*
X121246200Y-75213800D01*
%TO.N,/IRQ*%
X123246200Y-73792400D02*
X123246200Y-75213800D01*
%TO.N,/CE*%
X123746200Y-71077700D02*
X123746200Y-75213800D01*
%TO.N,/PC0*%
X134594600Y-78405058D02*
X134594600Y-82359000D01*
X129983342Y-73793800D02*
X134594600Y-78405058D01*
X126166200Y-73793800D02*
X129983342Y-73793800D01*
%TO.N,/PC13*%
X130049028Y-73293800D02*
X136525000Y-79769772D01*
X126166200Y-73293800D02*
X130049028Y-73293800D01*
X136525000Y-79769772D02*
X136525000Y-82118200D01*
%TO.N,/PC15*%
X131780600Y-72293800D02*
X141573600Y-82086800D01*
X126166200Y-72293800D02*
X131780600Y-72293800D01*
%TO.N,/PC14*%
X126166200Y-72793800D02*
X130114714Y-72793800D01*
X130114714Y-72793800D02*
X139033600Y-81712686D01*
%TD*%
%TA.AperFunction,Conductor*%
%TO.N,GND*%
G36*
X156031694Y-60526806D02*
G01*
X156050000Y-60571000D01*
X156050000Y-84429000D01*
X156031694Y-84473194D01*
X155987500Y-84491500D01*
X143540831Y-84491500D01*
X143496637Y-84473194D01*
X143478331Y-84429000D01*
X143496637Y-84384806D01*
X143516913Y-84371258D01*
X143622087Y-84327694D01*
X143622090Y-84327692D01*
X143625876Y-84326124D01*
X143721072Y-84253077D01*
X143721075Y-84253075D01*
X143721075Y-84253074D01*
X143749741Y-84231078D01*
X143749742Y-84231077D01*
X143752987Y-84228587D01*
X143755477Y-84225342D01*
X143755480Y-84225339D01*
X143774982Y-84199923D01*
X143780372Y-84193777D01*
X144551799Y-83422350D01*
X144578032Y-83406680D01*
X144639932Y-83388110D01*
X144639936Y-83388108D01*
X144642384Y-83387374D01*
X144644680Y-83386249D01*
X144644683Y-83386248D01*
X144787964Y-83316055D01*
X144842994Y-83289096D01*
X144933927Y-83224234D01*
X145022773Y-83160862D01*
X145022776Y-83160860D01*
X145024860Y-83159373D01*
X145183096Y-83001689D01*
X145186591Y-82996826D01*
X145238252Y-82924931D01*
X145313453Y-82820277D01*
X145314720Y-82817715D01*
X145356838Y-82732494D01*
X145392830Y-82700985D01*
X145440560Y-82704156D01*
X145468655Y-82732006D01*
X145470057Y-82734782D01*
X145584051Y-82920802D01*
X145587072Y-82924931D01*
X145729917Y-83089835D01*
X145733580Y-83093422D01*
X145901437Y-83232780D01*
X145905631Y-83235717D01*
X146093999Y-83345790D01*
X146098615Y-83348002D01*
X146302442Y-83425835D01*
X146307343Y-83427259D01*
X146418817Y-83449938D01*
X146428158Y-83448123D01*
X146431000Y-83443909D01*
X146431000Y-83442401D01*
X146939000Y-83442401D01*
X146942641Y-83451191D01*
X146948495Y-83453616D01*
X146965762Y-83451404D01*
X146970772Y-83450339D01*
X147179749Y-83387643D01*
X147184499Y-83385781D01*
X147380436Y-83289792D01*
X147384824Y-83287176D01*
X147562449Y-83160478D01*
X147566352Y-83157180D01*
X147720897Y-83003173D01*
X147724210Y-82999280D01*
X147851522Y-82822106D01*
X147854161Y-82817715D01*
X147950825Y-82622130D01*
X147952710Y-82617370D01*
X148016136Y-82408613D01*
X148017215Y-82403620D01*
X148019728Y-82384526D01*
X148017266Y-82375335D01*
X148011835Y-82372200D01*
X146951431Y-82372200D01*
X146942641Y-82375841D01*
X146939000Y-82384631D01*
X146939000Y-83442401D01*
X146431000Y-83442401D01*
X146431000Y-82000000D01*
X149386526Y-82000000D01*
X149406391Y-82252403D01*
X149465495Y-82498591D01*
X149466437Y-82500865D01*
X149561441Y-82730227D01*
X149561445Y-82730234D01*
X149562384Y-82732502D01*
X149563669Y-82734598D01*
X149563670Y-82734601D01*
X149679298Y-82923288D01*
X149694672Y-82948376D01*
X149696265Y-82950241D01*
X149696267Y-82950244D01*
X149818553Y-83093422D01*
X149859102Y-83140898D01*
X149860966Y-83142490D01*
X150049756Y-83303733D01*
X150049759Y-83303735D01*
X150051624Y-83305328D01*
X150053717Y-83306611D01*
X150053719Y-83306612D01*
X150257438Y-83431451D01*
X150267498Y-83437616D01*
X150269766Y-83438555D01*
X150269773Y-83438559D01*
X150474673Y-83523431D01*
X150501409Y-83534505D01*
X150747597Y-83593609D01*
X151000000Y-83613474D01*
X151252403Y-83593609D01*
X151498591Y-83534505D01*
X151525327Y-83523431D01*
X151730227Y-83438559D01*
X151730234Y-83438555D01*
X151732502Y-83437616D01*
X151742563Y-83431451D01*
X151946281Y-83306612D01*
X151946283Y-83306611D01*
X151948376Y-83305328D01*
X151950241Y-83303735D01*
X151950244Y-83303733D01*
X152139034Y-83142490D01*
X152140898Y-83140898D01*
X152181447Y-83093422D01*
X152303733Y-82950244D01*
X152303735Y-82950241D01*
X152305328Y-82948376D01*
X152320702Y-82923288D01*
X152436330Y-82734601D01*
X152436331Y-82734598D01*
X152437616Y-82732502D01*
X152438555Y-82730234D01*
X152438559Y-82730227D01*
X152533563Y-82500865D01*
X152534505Y-82498591D01*
X152593609Y-82252403D01*
X152613474Y-82000000D01*
X152593609Y-81747597D01*
X152534505Y-81501409D01*
X152509387Y-81440769D01*
X152438559Y-81269773D01*
X152438555Y-81269766D01*
X152437616Y-81267498D01*
X152433229Y-81260338D01*
X152306612Y-81053719D01*
X152306611Y-81053717D01*
X152305328Y-81051624D01*
X152300592Y-81046078D01*
X152142490Y-80860966D01*
X152140898Y-80859102D01*
X152078318Y-80805653D01*
X151950244Y-80696267D01*
X151950241Y-80696265D01*
X151948376Y-80694672D01*
X151946281Y-80693388D01*
X151734601Y-80563670D01*
X151734598Y-80563669D01*
X151732502Y-80562384D01*
X151730234Y-80561445D01*
X151730227Y-80561441D01*
X151500865Y-80466437D01*
X151500866Y-80466437D01*
X151498591Y-80465495D01*
X151252403Y-80406391D01*
X151000000Y-80386526D01*
X150747597Y-80406391D01*
X150501409Y-80465495D01*
X150499134Y-80466437D01*
X150499135Y-80466437D01*
X150269773Y-80561441D01*
X150269766Y-80561445D01*
X150267498Y-80562384D01*
X150265402Y-80563669D01*
X150265399Y-80563670D01*
X150053719Y-80693388D01*
X150051624Y-80694672D01*
X150049759Y-80696265D01*
X150049756Y-80696267D01*
X149921682Y-80805653D01*
X149859102Y-80859102D01*
X149857510Y-80860966D01*
X149699409Y-81046078D01*
X149694672Y-81051624D01*
X149693389Y-81053717D01*
X149693388Y-81053719D01*
X149566772Y-81260338D01*
X149562384Y-81267498D01*
X149561445Y-81269766D01*
X149561441Y-81269773D01*
X149490613Y-81440769D01*
X149465495Y-81501409D01*
X149406391Y-81747597D01*
X149386526Y-82000000D01*
X146431000Y-82000000D01*
X146431000Y-81851769D01*
X146939000Y-81851769D01*
X146942641Y-81860559D01*
X146951431Y-81864200D01*
X148009028Y-81864200D01*
X148017818Y-81860559D01*
X148019515Y-81856461D01*
X147975580Y-81681550D01*
X147973932Y-81676710D01*
X147886937Y-81476635D01*
X147884514Y-81472117D01*
X147766013Y-81288941D01*
X147762889Y-81284884D01*
X147616057Y-81123518D01*
X147612314Y-81120027D01*
X147441091Y-80984805D01*
X147436834Y-80981977D01*
X147245831Y-80876537D01*
X147241166Y-80874440D01*
X147035503Y-80801611D01*
X147030555Y-80800303D01*
X146951239Y-80786175D01*
X146941947Y-80788218D01*
X146939000Y-80792826D01*
X146939000Y-81851769D01*
X146431000Y-81851769D01*
X146431000Y-80795618D01*
X146427359Y-80786828D01*
X146421922Y-80784576D01*
X146371745Y-80792255D01*
X146366766Y-80793441D01*
X146159394Y-80861220D01*
X146154669Y-80863206D01*
X145961153Y-80963944D01*
X145956819Y-80966674D01*
X145782348Y-81097671D01*
X145778527Y-81101063D01*
X145627793Y-81258798D01*
X145624572Y-81262775D01*
X145501629Y-81443002D01*
X145499096Y-81447461D01*
X145472815Y-81504078D01*
X145437603Y-81536456D01*
X145389810Y-81534453D01*
X145358809Y-81502684D01*
X145347382Y-81476402D01*
X145347377Y-81476392D01*
X145346354Y-81474040D01*
X145225014Y-81286477D01*
X145074670Y-81121251D01*
X145072659Y-81119663D01*
X145072656Y-81119660D01*
X144901376Y-80984391D01*
X144899359Y-80982798D01*
X144703789Y-80874838D01*
X144493212Y-80800269D01*
X144490689Y-80799820D01*
X144490683Y-80799818D01*
X144349652Y-80774697D01*
X144273284Y-80761094D01*
X144150395Y-80759593D01*
X144052479Y-80758396D01*
X144052474Y-80758396D01*
X144049911Y-80758365D01*
X144047376Y-80758753D01*
X144047375Y-80758753D01*
X144032279Y-80761063D01*
X143829091Y-80792155D01*
X143826653Y-80792952D01*
X143826649Y-80792953D01*
X143619200Y-80860758D01*
X143619198Y-80860759D01*
X143616756Y-80861557D01*
X143614479Y-80862742D01*
X143614475Y-80862744D01*
X143420886Y-80963520D01*
X143420880Y-80963524D01*
X143418607Y-80964707D01*
X143239965Y-81098835D01*
X143238196Y-81100687D01*
X143238194Y-81100688D01*
X143237836Y-81101063D01*
X143085629Y-81260338D01*
X143084188Y-81262451D01*
X143084182Y-81262459D01*
X142979897Y-81415336D01*
X142959743Y-81444880D01*
X142932912Y-81502684D01*
X142932549Y-81503465D01*
X142897338Y-81535843D01*
X142849544Y-81533840D01*
X142818543Y-81502072D01*
X142807380Y-81476398D01*
X142807376Y-81476391D01*
X142806354Y-81474040D01*
X142685014Y-81286477D01*
X142534670Y-81121251D01*
X142532659Y-81119663D01*
X142532656Y-81119660D01*
X142361376Y-80984391D01*
X142359359Y-80982798D01*
X142163789Y-80874838D01*
X141953212Y-80800269D01*
X141950689Y-80799820D01*
X141950683Y-80799818D01*
X141809652Y-80774697D01*
X141733284Y-80761094D01*
X141610395Y-80759593D01*
X141512479Y-80758396D01*
X141512474Y-80758396D01*
X141509911Y-80758365D01*
X141507376Y-80758753D01*
X141507375Y-80758753D01*
X141291624Y-80791767D01*
X141291619Y-80791768D01*
X141289091Y-80792155D01*
X141286660Y-80792950D01*
X141286650Y-80792952D01*
X141212828Y-80817081D01*
X141165134Y-80813411D01*
X141149217Y-80801868D01*
X132500832Y-72153483D01*
X132482526Y-72109289D01*
X132500832Y-72065095D01*
X132545237Y-72048043D01*
X132545237Y-72046800D01*
X132804169Y-72046800D01*
X132812959Y-72043159D01*
X132816600Y-72034369D01*
X132816600Y-72034368D01*
X133324600Y-72034368D01*
X133328241Y-72043158D01*
X133337031Y-72046799D01*
X133594352Y-72046799D01*
X133597566Y-72046633D01*
X133698264Y-72036185D01*
X133704901Y-72034752D01*
X133865886Y-71981044D01*
X133872422Y-71977982D01*
X134016553Y-71888790D01*
X134022196Y-71884318D01*
X134141946Y-71764359D01*
X134146417Y-71758698D01*
X134235353Y-71614415D01*
X134238400Y-71607881D01*
X134291830Y-71446796D01*
X134293251Y-71440168D01*
X134303438Y-71340748D01*
X134303600Y-71337566D01*
X134303600Y-71305231D01*
X134299959Y-71296441D01*
X134291169Y-71292800D01*
X133337031Y-71292800D01*
X133328241Y-71296441D01*
X133324600Y-71305231D01*
X133324600Y-72034368D01*
X132816600Y-72034368D01*
X132816600Y-71305231D01*
X132812959Y-71296441D01*
X132804169Y-71292800D01*
X127836832Y-71292800D01*
X127828042Y-71296441D01*
X127824401Y-71305231D01*
X127824401Y-71337552D01*
X127824567Y-71340766D01*
X127835015Y-71441464D01*
X127836448Y-71448101D01*
X127888133Y-71603020D01*
X127884754Y-71650736D01*
X127848625Y-71682088D01*
X127828845Y-71685300D01*
X127482090Y-71685300D01*
X127437896Y-71666994D01*
X127419704Y-71626565D01*
X127419700Y-71626499D01*
X127419700Y-71624626D01*
X127410828Y-71551308D01*
X127410828Y-71536292D01*
X127416285Y-71491190D01*
X127419700Y-71462974D01*
X127419700Y-71124626D01*
X127416026Y-71094268D01*
X127410828Y-71051308D01*
X127410828Y-71036292D01*
X127416285Y-70991190D01*
X127419700Y-70962974D01*
X127419700Y-70624626D01*
X127419474Y-70622754D01*
X127419473Y-70622746D01*
X127410575Y-70549224D01*
X127410575Y-70534206D01*
X127418974Y-70464800D01*
X127419200Y-70461041D01*
X127440131Y-70418028D01*
X127481587Y-70402300D01*
X127825383Y-70402300D01*
X127869577Y-70420606D01*
X127887883Y-70464800D01*
X127884705Y-70484476D01*
X127836170Y-70630804D01*
X127834749Y-70637432D01*
X127824562Y-70736852D01*
X127824400Y-70740034D01*
X127824400Y-70772369D01*
X127828041Y-70781159D01*
X127836831Y-70784800D01*
X134291168Y-70784800D01*
X134299958Y-70781159D01*
X134303599Y-70772369D01*
X134303599Y-70740048D01*
X134303433Y-70736834D01*
X134292985Y-70636136D01*
X134291552Y-70629499D01*
X134237844Y-70468514D01*
X134234782Y-70461978D01*
X134145590Y-70317847D01*
X134141118Y-70312204D01*
X134021159Y-70192454D01*
X134015501Y-70187986D01*
X133941387Y-70142301D01*
X133913372Y-70103528D01*
X133920979Y-70056301D01*
X133941295Y-70035950D01*
X133944269Y-70034110D01*
X134019948Y-69987278D01*
X134144905Y-69862103D01*
X134149257Y-69855044D01*
X134216221Y-69746407D01*
X134237715Y-69711538D01*
X134293397Y-69543661D01*
X134303352Y-69446501D01*
X134303938Y-69440784D01*
X134303938Y-69440778D01*
X134304100Y-69439200D01*
X134304100Y-68838400D01*
X134300351Y-68802270D01*
X134313998Y-68756423D01*
X134318323Y-68751626D01*
X134678143Y-68391806D01*
X134722337Y-68373500D01*
X135658132Y-68373500D01*
X135702326Y-68391806D01*
X135720632Y-68436000D01*
X135718359Y-68452703D01*
X135660989Y-68659570D01*
X135637251Y-68881695D01*
X135641942Y-68963056D01*
X135648667Y-69079680D01*
X135650110Y-69104715D01*
X135699222Y-69322639D01*
X135700184Y-69325009D01*
X135700185Y-69325011D01*
X135725104Y-69386379D01*
X135783266Y-69529616D01*
X135784607Y-69531805D01*
X135784609Y-69531808D01*
X135813358Y-69578722D01*
X135899987Y-69720088D01*
X136046250Y-69888938D01*
X136218126Y-70031632D01*
X136220337Y-70032924D01*
X136390762Y-70132512D01*
X136419683Y-70170614D01*
X136413191Y-70218007D01*
X136388088Y-70241912D01*
X136383431Y-70244336D01*
X136275886Y-70300320D01*
X136275880Y-70300324D01*
X136273607Y-70301507D01*
X136094965Y-70435635D01*
X136093196Y-70437487D01*
X136093194Y-70437488D01*
X136075064Y-70456460D01*
X135940629Y-70597138D01*
X135939183Y-70599258D01*
X135939182Y-70599259D01*
X135821095Y-70772369D01*
X135814743Y-70781680D01*
X135813660Y-70784012D01*
X135813660Y-70784013D01*
X135732332Y-70959221D01*
X135720688Y-70984305D01*
X135720004Y-70986772D01*
X135720002Y-70986777D01*
X135690938Y-71091579D01*
X135660989Y-71199570D01*
X135657751Y-71229869D01*
X135639765Y-71398173D01*
X135637251Y-71421695D01*
X135642011Y-71504248D01*
X135648963Y-71624814D01*
X135650110Y-71644715D01*
X135650673Y-71647212D01*
X135650673Y-71647214D01*
X135658073Y-71680050D01*
X135699222Y-71862639D01*
X135700184Y-71865009D01*
X135700185Y-71865011D01*
X135729602Y-71937457D01*
X135783266Y-72069616D01*
X135784607Y-72071805D01*
X135784609Y-72071808D01*
X135815823Y-72122744D01*
X135899987Y-72260088D01*
X135901664Y-72262024D01*
X135901667Y-72262028D01*
X135956216Y-72325000D01*
X136046250Y-72428938D01*
X136218126Y-72571632D01*
X136220337Y-72572924D01*
X136390762Y-72672512D01*
X136419683Y-72710614D01*
X136413191Y-72758007D01*
X136388088Y-72781912D01*
X136383431Y-72784336D01*
X136275886Y-72840320D01*
X136275880Y-72840324D01*
X136273607Y-72841507D01*
X136094965Y-72975635D01*
X136093196Y-72977487D01*
X136093194Y-72977488D01*
X136073544Y-72998051D01*
X135940629Y-73137138D01*
X135939183Y-73139258D01*
X135939182Y-73139259D01*
X135846280Y-73275449D01*
X135814743Y-73321680D01*
X135813660Y-73324012D01*
X135813660Y-73324013D01*
X135730647Y-73502851D01*
X135720688Y-73524305D01*
X135720004Y-73526772D01*
X135720002Y-73526777D01*
X135685191Y-73652300D01*
X135660989Y-73739570D01*
X135660717Y-73742117D01*
X135640021Y-73935778D01*
X135637251Y-73961695D01*
X135650110Y-74184715D01*
X135699222Y-74402639D01*
X135700184Y-74405009D01*
X135700185Y-74405011D01*
X135715544Y-74442835D01*
X135783266Y-74609616D01*
X135899987Y-74800088D01*
X135901664Y-74802024D01*
X135901667Y-74802028D01*
X135966096Y-74876406D01*
X136046250Y-74968938D01*
X136218126Y-75111632D01*
X136411000Y-75224338D01*
X136413395Y-75225253D01*
X136413398Y-75225254D01*
X136512371Y-75263048D01*
X136619692Y-75304030D01*
X136622203Y-75304541D01*
X136622207Y-75304542D01*
X136836084Y-75348056D01*
X136836087Y-75348056D01*
X136838597Y-75348567D01*
X136841157Y-75348661D01*
X136841158Y-75348661D01*
X137059267Y-75356659D01*
X137059270Y-75356659D01*
X137061837Y-75356753D01*
X137065701Y-75356258D01*
X137280867Y-75328695D01*
X137280872Y-75328694D01*
X137283416Y-75328368D01*
X137300982Y-75323098D01*
X137494932Y-75264910D01*
X137494936Y-75264908D01*
X137497384Y-75264174D01*
X137499680Y-75263049D01*
X137499683Y-75263048D01*
X137601491Y-75213172D01*
X137697994Y-75165896D01*
X137804909Y-75089635D01*
X137877773Y-75037662D01*
X137877776Y-75037660D01*
X137879860Y-75036173D01*
X138038096Y-74878489D01*
X138041042Y-74874390D01*
X138093038Y-74802028D01*
X138168453Y-74697077D01*
X138171987Y-74689928D01*
X138211560Y-74609856D01*
X138247552Y-74578347D01*
X138295282Y-74581518D01*
X138323024Y-74609020D01*
X138323266Y-74609616D01*
X138324605Y-74611801D01*
X138324607Y-74611805D01*
X138366041Y-74679419D01*
X138439987Y-74800088D01*
X138441664Y-74802024D01*
X138441667Y-74802028D01*
X138506096Y-74876406D01*
X138586250Y-74968938D01*
X138758126Y-75111632D01*
X138951000Y-75224338D01*
X138953395Y-75225253D01*
X138953398Y-75225254D01*
X139052371Y-75263048D01*
X139159692Y-75304030D01*
X139162203Y-75304541D01*
X139162207Y-75304542D01*
X139376084Y-75348056D01*
X139376087Y-75348056D01*
X139378597Y-75348567D01*
X139381157Y-75348661D01*
X139381158Y-75348661D01*
X139599267Y-75356659D01*
X139599270Y-75356659D01*
X139601837Y-75356753D01*
X139605701Y-75356258D01*
X139820867Y-75328695D01*
X139820872Y-75328694D01*
X139823416Y-75328368D01*
X139840982Y-75323098D01*
X140034932Y-75264910D01*
X140034936Y-75264908D01*
X140037384Y-75264174D01*
X140039680Y-75263049D01*
X140039683Y-75263048D01*
X140141491Y-75213172D01*
X140237994Y-75165896D01*
X140344909Y-75089635D01*
X140417773Y-75037662D01*
X140417776Y-75037660D01*
X140419860Y-75036173D01*
X140578096Y-74878489D01*
X140581042Y-74874390D01*
X140633038Y-74802028D01*
X140708453Y-74697077D01*
X140711987Y-74689928D01*
X140788180Y-74535761D01*
X140807430Y-74496811D01*
X140872370Y-74283069D01*
X140901529Y-74061590D01*
X140903156Y-73995000D01*
X140884852Y-73772361D01*
X140849148Y-73630216D01*
X140831056Y-73558189D01*
X140831055Y-73558186D01*
X140830431Y-73555702D01*
X140741354Y-73350840D01*
X140620014Y-73163277D01*
X140469670Y-72998051D01*
X140467659Y-72996463D01*
X140467656Y-72996460D01*
X140296376Y-72861191D01*
X140294359Y-72859598D01*
X140155779Y-72783098D01*
X140148669Y-72779173D01*
X140118825Y-72741788D01*
X140124157Y-72694251D01*
X140151378Y-72668329D01*
X140187085Y-72650836D01*
X140237994Y-72625896D01*
X140363615Y-72536292D01*
X140417773Y-72497662D01*
X140417776Y-72497660D01*
X140419860Y-72496173D01*
X140578096Y-72338489D01*
X140582939Y-72331750D01*
X140633038Y-72262028D01*
X140708453Y-72157077D01*
X140710230Y-72153483D01*
X140777221Y-72017934D01*
X140807430Y-71956811D01*
X140872370Y-71743069D01*
X140901529Y-71521590D01*
X140903156Y-71455000D01*
X140884852Y-71232361D01*
X140850249Y-71094600D01*
X140831056Y-71018189D01*
X140831055Y-71018186D01*
X140830431Y-71015702D01*
X140741354Y-70810840D01*
X140620014Y-70623277D01*
X140469670Y-70458051D01*
X140467659Y-70456463D01*
X140467656Y-70456460D01*
X140296376Y-70321191D01*
X140294359Y-70319598D01*
X140155779Y-70243098D01*
X140148669Y-70239173D01*
X140118825Y-70201788D01*
X140124157Y-70154251D01*
X140151378Y-70128329D01*
X140220725Y-70094356D01*
X140237994Y-70085896D01*
X140378690Y-69985539D01*
X140417773Y-69957662D01*
X140417776Y-69957660D01*
X140419860Y-69956173D01*
X140578096Y-69798489D01*
X140615521Y-69746407D01*
X140633038Y-69722028D01*
X140708453Y-69617077D01*
X140713636Y-69606591D01*
X140785500Y-69461183D01*
X140807430Y-69416811D01*
X140872370Y-69203069D01*
X140873767Y-69192462D01*
X140882195Y-69128444D01*
X140901529Y-68981590D01*
X140903156Y-68915000D01*
X140884852Y-68692361D01*
X140875996Y-68657104D01*
X140831056Y-68478189D01*
X140831055Y-68478186D01*
X140830431Y-68475702D01*
X140741354Y-68270840D01*
X140620014Y-68083277D01*
X140469670Y-67918051D01*
X140467659Y-67916463D01*
X140467656Y-67916460D01*
X140316967Y-67797453D01*
X140294359Y-67779598D01*
X140155779Y-67703098D01*
X140148669Y-67699173D01*
X140118825Y-67661788D01*
X140124157Y-67614251D01*
X140151378Y-67588329D01*
X140203662Y-67562715D01*
X140237994Y-67545896D01*
X140344530Y-67469905D01*
X140417773Y-67417662D01*
X140417776Y-67417660D01*
X140419860Y-67416173D01*
X140578096Y-67258489D01*
X140587086Y-67245979D01*
X140706955Y-67079162D01*
X140706956Y-67079160D01*
X140708453Y-67077077D01*
X140737498Y-67018308D01*
X140773490Y-66986799D01*
X140793529Y-66983500D01*
X141147469Y-66983500D01*
X141191663Y-67001806D01*
X141205518Y-67027219D01*
X141206874Y-67026766D01*
X141262850Y-67194546D01*
X141355922Y-67344948D01*
X141481097Y-67469905D01*
X141484187Y-67471810D01*
X141484190Y-67471812D01*
X141534152Y-67502609D01*
X141631662Y-67562715D01*
X141799539Y-67618397D01*
X141862415Y-67624839D01*
X141902416Y-67628938D01*
X141902422Y-67628938D01*
X141904000Y-67629100D01*
X142504800Y-67629100D01*
X142506396Y-67628934D01*
X142506404Y-67628934D01*
X142607166Y-67618479D01*
X142607168Y-67618479D01*
X142610566Y-67618126D01*
X142778346Y-67562150D01*
X142928748Y-67469078D01*
X143053705Y-67343903D01*
X143056293Y-67339706D01*
X143101487Y-67266387D01*
X143140260Y-67238372D01*
X143187487Y-67245979D01*
X143207838Y-67266295D01*
X143254407Y-67341549D01*
X143258882Y-67347196D01*
X143378841Y-67466946D01*
X143384502Y-67471417D01*
X143528785Y-67560353D01*
X143535319Y-67563400D01*
X143696404Y-67616830D01*
X143703032Y-67618251D01*
X143802452Y-67628438D01*
X143805634Y-67628600D01*
X143837969Y-67628600D01*
X143846759Y-67624959D01*
X143850400Y-67616169D01*
X143850400Y-67616168D01*
X144358400Y-67616168D01*
X144362041Y-67624958D01*
X144370831Y-67628599D01*
X144403152Y-67628599D01*
X144406366Y-67628433D01*
X144507064Y-67617985D01*
X144513701Y-67616552D01*
X144674686Y-67562844D01*
X144681222Y-67559782D01*
X144825353Y-67470590D01*
X144830996Y-67466118D01*
X144950746Y-67346159D01*
X144955217Y-67340498D01*
X145044153Y-67196215D01*
X145047200Y-67189681D01*
X145100630Y-67028596D01*
X145102051Y-67021968D01*
X145112238Y-66922548D01*
X145112400Y-66919366D01*
X145112400Y-66662031D01*
X145108759Y-66653241D01*
X145099969Y-66649600D01*
X144370831Y-66649600D01*
X144362041Y-66653241D01*
X144358400Y-66662031D01*
X144358400Y-67616168D01*
X143850400Y-67616168D01*
X143850400Y-66129169D01*
X144358400Y-66129169D01*
X144362041Y-66137959D01*
X144370831Y-66141600D01*
X145099968Y-66141600D01*
X145108758Y-66137959D01*
X145112399Y-66129169D01*
X145112399Y-65871848D01*
X145112233Y-65868634D01*
X145101785Y-65767936D01*
X145100352Y-65761299D01*
X145046644Y-65600314D01*
X145043582Y-65593778D01*
X144954390Y-65449647D01*
X144949918Y-65444004D01*
X144829959Y-65324254D01*
X144824298Y-65319783D01*
X144680015Y-65230847D01*
X144673481Y-65227800D01*
X144512396Y-65174370D01*
X144505768Y-65172949D01*
X144406348Y-65162762D01*
X144403166Y-65162600D01*
X144370831Y-65162600D01*
X144362041Y-65166241D01*
X144358400Y-65175031D01*
X144358400Y-66129169D01*
X143850400Y-66129169D01*
X143850400Y-65175032D01*
X143846759Y-65166242D01*
X143837969Y-65162601D01*
X143805648Y-65162601D01*
X143802434Y-65162767D01*
X143701736Y-65173215D01*
X143695099Y-65174648D01*
X143534114Y-65228356D01*
X143527578Y-65231418D01*
X143383447Y-65320610D01*
X143377804Y-65325082D01*
X143258054Y-65445041D01*
X143253586Y-65450699D01*
X143207901Y-65524813D01*
X143169128Y-65552828D01*
X143121901Y-65545221D01*
X143101550Y-65524905D01*
X143100087Y-65522540D01*
X143052878Y-65446252D01*
X142927703Y-65321295D01*
X142924613Y-65319390D01*
X142924610Y-65319388D01*
X142827239Y-65259368D01*
X142777138Y-65228485D01*
X142609261Y-65172803D01*
X142545216Y-65166241D01*
X142506384Y-65162262D01*
X142506378Y-65162262D01*
X142504800Y-65162100D01*
X141904000Y-65162100D01*
X141902404Y-65162266D01*
X141902396Y-65162266D01*
X141801634Y-65172721D01*
X141801632Y-65172721D01*
X141798234Y-65173074D01*
X141630454Y-65229050D01*
X141627365Y-65230961D01*
X141627366Y-65230961D01*
X141489034Y-65316564D01*
X141480052Y-65322122D01*
X141355095Y-65447297D01*
X141353190Y-65450387D01*
X141353188Y-65450390D01*
X141318013Y-65507455D01*
X141262285Y-65597862D01*
X141227851Y-65701680D01*
X141220555Y-65723676D01*
X141189267Y-65759860D01*
X141161233Y-65766500D01*
X140797641Y-65766500D01*
X140753447Y-65748194D01*
X140742559Y-65733533D01*
X140742379Y-65733197D01*
X140741354Y-65730840D01*
X140620014Y-65543277D01*
X140469670Y-65378051D01*
X140467659Y-65376463D01*
X140467656Y-65376460D01*
X140393292Y-65317731D01*
X140372264Y-65301124D01*
X140348927Y-65259368D01*
X140348500Y-65252076D01*
X140348500Y-64408079D01*
X140354729Y-64380880D01*
X140375882Y-64337121D01*
X140376019Y-64336842D01*
X140414716Y-64258202D01*
X140415378Y-64255421D01*
X140416621Y-64252851D01*
X140436326Y-64167500D01*
X140436425Y-64167076D01*
X140455942Y-64085151D01*
X140456751Y-64081755D01*
X140456781Y-64078901D01*
X140457424Y-64076115D01*
X140457730Y-63988319D01*
X140457733Y-63987947D01*
X140457808Y-63980761D01*
X140458650Y-63900379D01*
X140458047Y-63897590D01*
X140458057Y-63894730D01*
X140456548Y-63887976D01*
X140444685Y-63834904D01*
X140438874Y-63808908D01*
X140429232Y-63764313D01*
X140421058Y-63726505D01*
X140421057Y-63726501D01*
X140420319Y-63723089D01*
X140419112Y-63720501D01*
X140418489Y-63717713D01*
X140380858Y-63638461D01*
X140380742Y-63638215D01*
X140345137Y-63561862D01*
X140343662Y-63558698D01*
X140341911Y-63556440D01*
X140340686Y-63553861D01*
X140286491Y-63484991D01*
X140286281Y-63484724D01*
X140257121Y-63447130D01*
X140255719Y-63445728D01*
X140255704Y-63445711D01*
X140253496Y-63443062D01*
X140228516Y-63411317D01*
X140193168Y-63382693D01*
X140188306Y-63378315D01*
X139809991Y-63000000D01*
X149386526Y-63000000D01*
X149406391Y-63252403D01*
X149465495Y-63498591D01*
X149490392Y-63558698D01*
X149561441Y-63730227D01*
X149561445Y-63730234D01*
X149562384Y-63732502D01*
X149563669Y-63734598D01*
X149563670Y-63734601D01*
X149693388Y-63946281D01*
X149694672Y-63948376D01*
X149696265Y-63950241D01*
X149696267Y-63950244D01*
X149811489Y-64085151D01*
X149859102Y-64140898D01*
X149860966Y-64142490D01*
X150049756Y-64303733D01*
X150049759Y-64303735D01*
X150051624Y-64305328D01*
X150053717Y-64306611D01*
X150053719Y-64306612D01*
X150260514Y-64433336D01*
X150267498Y-64437616D01*
X150269766Y-64438555D01*
X150269773Y-64438559D01*
X150461297Y-64517890D01*
X150501409Y-64534505D01*
X150747597Y-64593609D01*
X151000000Y-64613474D01*
X151252403Y-64593609D01*
X151498591Y-64534505D01*
X151538703Y-64517890D01*
X151730227Y-64438559D01*
X151730234Y-64438555D01*
X151732502Y-64437616D01*
X151739487Y-64433336D01*
X151946281Y-64306612D01*
X151946283Y-64306611D01*
X151948376Y-64305328D01*
X151950241Y-64303735D01*
X151950244Y-64303733D01*
X152139034Y-64142490D01*
X152140898Y-64140898D01*
X152188511Y-64085151D01*
X152303733Y-63950244D01*
X152303735Y-63950241D01*
X152305328Y-63948376D01*
X152306612Y-63946281D01*
X152436330Y-63734601D01*
X152436331Y-63734598D01*
X152437616Y-63732502D01*
X152438555Y-63730234D01*
X152438559Y-63730227D01*
X152509608Y-63558698D01*
X152534505Y-63498591D01*
X152593609Y-63252403D01*
X152613474Y-63000000D01*
X152593609Y-62747597D01*
X152534505Y-62501409D01*
X152517593Y-62460579D01*
X152438559Y-62269773D01*
X152438555Y-62269766D01*
X152437616Y-62267498D01*
X152430203Y-62255400D01*
X152306612Y-62053719D01*
X152306611Y-62053717D01*
X152305328Y-62051624D01*
X152300558Y-62046038D01*
X152142490Y-61860966D01*
X152140898Y-61859102D01*
X152069666Y-61798264D01*
X151950244Y-61696267D01*
X151950241Y-61696265D01*
X151948376Y-61694672D01*
X151939946Y-61689506D01*
X151734601Y-61563670D01*
X151734598Y-61563669D01*
X151732502Y-61562384D01*
X151730234Y-61561445D01*
X151730227Y-61561441D01*
X151500865Y-61466437D01*
X151500866Y-61466437D01*
X151498591Y-61465495D01*
X151252403Y-61406391D01*
X151000000Y-61386526D01*
X150747597Y-61406391D01*
X150501409Y-61465495D01*
X150499134Y-61466437D01*
X150499135Y-61466437D01*
X150269773Y-61561441D01*
X150269766Y-61561445D01*
X150267498Y-61562384D01*
X150265402Y-61563669D01*
X150265399Y-61563670D01*
X150060054Y-61689506D01*
X150051624Y-61694672D01*
X150049759Y-61696265D01*
X150049756Y-61696267D01*
X149930334Y-61798264D01*
X149859102Y-61859102D01*
X149857510Y-61860966D01*
X149699443Y-62046038D01*
X149694672Y-62051624D01*
X149693389Y-62053717D01*
X149693388Y-62053719D01*
X149569798Y-62255400D01*
X149562384Y-62267498D01*
X149561445Y-62269766D01*
X149561441Y-62269773D01*
X149482407Y-62460579D01*
X149465495Y-62501409D01*
X149406391Y-62747597D01*
X149386526Y-63000000D01*
X139809991Y-63000000D01*
X137425186Y-60615194D01*
X137406880Y-60571000D01*
X137425186Y-60526806D01*
X137469380Y-60508500D01*
X155987500Y-60508500D01*
X156031694Y-60526806D01*
G37*
%TD.AperFunction*%
%TA.AperFunction,Conductor*%
G36*
X111444014Y-60526806D02*
G01*
X111462320Y-60571000D01*
X111444014Y-60615194D01*
X110229411Y-61829797D01*
X110228946Y-61830258D01*
X110164293Y-61893571D01*
X110162402Y-61896506D01*
X110139068Y-61932712D01*
X110135378Y-61937847D01*
X110106324Y-61974243D01*
X110104805Y-61977385D01*
X110104802Y-61977390D01*
X110090037Y-62007935D01*
X110086310Y-62014577D01*
X110066035Y-62046038D01*
X110050105Y-62089804D01*
X110047648Y-62095620D01*
X110027379Y-62137549D01*
X110026594Y-62140949D01*
X110026593Y-62140952D01*
X110018963Y-62174004D01*
X110016799Y-62181312D01*
X110003997Y-62216485D01*
X110003559Y-62219954D01*
X109998161Y-62262682D01*
X109997052Y-62268909D01*
X109986576Y-62314285D01*
X109986511Y-62332839D01*
X109986435Y-62354638D01*
X109986396Y-62355807D01*
X109986300Y-62356569D01*
X109986300Y-62393372D01*
X109985943Y-62495670D01*
X109986195Y-62496797D01*
X109986300Y-62498738D01*
X109986300Y-64612041D01*
X109967994Y-64656235D01*
X109923800Y-64674541D01*
X109879606Y-64656235D01*
X107771914Y-62548544D01*
X107769010Y-62545436D01*
X107732037Y-62503053D01*
X107732036Y-62503052D01*
X107729561Y-62500215D01*
X107675903Y-62462503D01*
X107673313Y-62460579D01*
X107624686Y-62422450D01*
X107624679Y-62422446D01*
X107621718Y-62420124D01*
X107610001Y-62414834D01*
X107599786Y-62409008D01*
X107589261Y-62401610D01*
X107585754Y-62400243D01*
X107585751Y-62400241D01*
X107528184Y-62377797D01*
X107525167Y-62376529D01*
X107512784Y-62370938D01*
X107465427Y-62349555D01*
X107461719Y-62348868D01*
X107461717Y-62348867D01*
X107452787Y-62347212D01*
X107441480Y-62343992D01*
X107429491Y-62339318D01*
X107396267Y-62334944D01*
X107364497Y-62330761D01*
X107361266Y-62330249D01*
X107300527Y-62318992D01*
X107300526Y-62318992D01*
X107296814Y-62318304D01*
X107293048Y-62318521D01*
X107293046Y-62318521D01*
X107232788Y-62321996D01*
X107229190Y-62322100D01*
X102877008Y-62322100D01*
X102832814Y-62303794D01*
X102797981Y-62268961D01*
X102651299Y-62180128D01*
X102647703Y-62179001D01*
X102490829Y-62129839D01*
X102490825Y-62129838D01*
X102487662Y-62128847D01*
X102484362Y-62128544D01*
X102484358Y-62128543D01*
X102446294Y-62125046D01*
X102414235Y-62122100D01*
X102412794Y-62122100D01*
X102080283Y-62122101D01*
X101750966Y-62122101D01*
X101677538Y-62128847D01*
X101630174Y-62143690D01*
X101521547Y-62177732D01*
X101513901Y-62180128D01*
X101367219Y-62268961D01*
X101362986Y-62273194D01*
X101362069Y-62273574D01*
X101361588Y-62273951D01*
X101361483Y-62273817D01*
X101318792Y-62291500D01*
X100951293Y-62291500D01*
X100912786Y-62278129D01*
X100910702Y-62276048D01*
X100765101Y-62186298D01*
X100602757Y-62132451D01*
X100501732Y-62122100D01*
X99904268Y-62122100D01*
X99902672Y-62122266D01*
X99902664Y-62122266D01*
X99805381Y-62132360D01*
X99805379Y-62132360D01*
X99801981Y-62132713D01*
X99639732Y-62186844D01*
X99494287Y-62276848D01*
X99492953Y-62278184D01*
X99454713Y-62291500D01*
X99221000Y-62291500D01*
X99176806Y-62273194D01*
X99158500Y-62229000D01*
X99158500Y-62201866D01*
X99151745Y-62139684D01*
X99149537Y-62133795D01*
X99102179Y-62007466D01*
X99102178Y-62007464D01*
X99100615Y-62003295D01*
X99091993Y-61991790D01*
X99015929Y-61890299D01*
X99013261Y-61886739D01*
X98896705Y-61799385D01*
X98892536Y-61797822D01*
X98892534Y-61797821D01*
X98763984Y-61749630D01*
X98763983Y-61749630D01*
X98760316Y-61748255D01*
X98698134Y-61741500D01*
X97101866Y-61741500D01*
X97039684Y-61748255D01*
X97036017Y-61749630D01*
X97036016Y-61749630D01*
X96907466Y-61797821D01*
X96907464Y-61797822D01*
X96903295Y-61799385D01*
X96786739Y-61886739D01*
X96784071Y-61890299D01*
X96708008Y-61991790D01*
X96699385Y-62003295D01*
X96697822Y-62007464D01*
X96697821Y-62007466D01*
X96650463Y-62133795D01*
X96648255Y-62139684D01*
X96641500Y-62201866D01*
X96641500Y-63798134D01*
X96648255Y-63860316D01*
X96649630Y-63863983D01*
X96649630Y-63863984D01*
X96696742Y-63989654D01*
X96699385Y-63996705D01*
X96702056Y-64000269D01*
X96722687Y-64027797D01*
X96786739Y-64113261D01*
X96903295Y-64200615D01*
X96907464Y-64202178D01*
X96907466Y-64202179D01*
X97033541Y-64249442D01*
X97039684Y-64251745D01*
X97101866Y-64258500D01*
X98698134Y-64258500D01*
X98760316Y-64251745D01*
X98766459Y-64249442D01*
X98892534Y-64202179D01*
X98892536Y-64202178D01*
X98896705Y-64200615D01*
X99013261Y-64113261D01*
X99077313Y-64027797D01*
X99097944Y-64000269D01*
X99100615Y-63996705D01*
X99103259Y-63989654D01*
X99150370Y-63863984D01*
X99150370Y-63863983D01*
X99151745Y-63860316D01*
X99158500Y-63798134D01*
X99158500Y-63771000D01*
X99176806Y-63726806D01*
X99221000Y-63708500D01*
X99304887Y-63708500D01*
X99349081Y-63726806D01*
X99358033Y-63738110D01*
X99374248Y-63764313D01*
X99418921Y-63808908D01*
X99421760Y-63811742D01*
X99440104Y-63855920D01*
X99421837Y-63900131D01*
X99376409Y-63945639D01*
X99371936Y-63951302D01*
X99286060Y-64090621D01*
X99283011Y-64097159D01*
X99231417Y-64252708D01*
X99229996Y-64259336D01*
X99220162Y-64355311D01*
X99220000Y-64358493D01*
X99220000Y-64364169D01*
X99223641Y-64372959D01*
X99232431Y-64376600D01*
X100394500Y-64376600D01*
X100438694Y-64394906D01*
X100457000Y-64439100D01*
X100457000Y-65576169D01*
X100460641Y-65584959D01*
X100469431Y-65588600D01*
X100500094Y-65588600D01*
X100503307Y-65588434D01*
X100600516Y-65578347D01*
X100607156Y-65576913D01*
X100762612Y-65525049D01*
X100769144Y-65521990D01*
X100908313Y-65435869D01*
X100913964Y-65431390D01*
X101029591Y-65315561D01*
X101034064Y-65309898D01*
X101083888Y-65229068D01*
X101122661Y-65201053D01*
X101169888Y-65208660D01*
X101190549Y-65229484D01*
X101245961Y-65320981D01*
X101367219Y-65442239D01*
X101513901Y-65531072D01*
X101517496Y-65532199D01*
X101517497Y-65532199D01*
X101674371Y-65581361D01*
X101674375Y-65581362D01*
X101677538Y-65582353D01*
X101680838Y-65582656D01*
X101680842Y-65582657D01*
X101718906Y-65586154D01*
X101750965Y-65589100D01*
X101752406Y-65589100D01*
X102084917Y-65589099D01*
X102414234Y-65589099D01*
X102487662Y-65582353D01*
X102630749Y-65537512D01*
X102647703Y-65532199D01*
X102647704Y-65532199D01*
X102651299Y-65531072D01*
X102797981Y-65442239D01*
X102832814Y-65407406D01*
X102877008Y-65389100D01*
X104773042Y-65389100D01*
X104817236Y-65407406D01*
X107970036Y-68560206D01*
X107988342Y-68604400D01*
X107970036Y-68648594D01*
X107925842Y-68666900D01*
X105490092Y-68666900D01*
X105445898Y-68648594D01*
X105427592Y-68604400D01*
X105435271Y-68574385D01*
X105438935Y-68567693D01*
X105487077Y-68439275D01*
X105488875Y-68431711D01*
X105495017Y-68375170D01*
X105495200Y-68371802D01*
X105495200Y-67841831D01*
X105491559Y-67833041D01*
X105482769Y-67829400D01*
X102914831Y-67829400D01*
X102906041Y-67833041D01*
X102902400Y-67841831D01*
X102902400Y-67996500D01*
X102884094Y-68040694D01*
X102839900Y-68059000D01*
X100908831Y-68059000D01*
X100900041Y-68062641D01*
X100896400Y-68071431D01*
X100896400Y-68077094D01*
X100896566Y-68080307D01*
X100906653Y-68177516D01*
X100908087Y-68184156D01*
X100959951Y-68339612D01*
X100963010Y-68346144D01*
X101049131Y-68485313D01*
X101053610Y-68490964D01*
X101098159Y-68535436D01*
X101116503Y-68579615D01*
X101098236Y-68623824D01*
X101052418Y-68669723D01*
X101052416Y-68669725D01*
X101049848Y-68672298D01*
X100960098Y-68817899D01*
X100906251Y-68980243D01*
X100895900Y-69081268D01*
X100895900Y-69310642D01*
X100877594Y-69354836D01*
X98785595Y-71446835D01*
X98741401Y-71465141D01*
X98697207Y-71446835D01*
X98681383Y-71420078D01*
X98652244Y-71319781D01*
X98652243Y-71319779D01*
X98651145Y-71315999D01*
X98566453Y-71172793D01*
X98532454Y-71138794D01*
X98514148Y-71094600D01*
X98532454Y-71050406D01*
X98566453Y-71016407D01*
X98651145Y-70873201D01*
X98656635Y-70854306D01*
X98689407Y-70741500D01*
X98697562Y-70713431D01*
X98699541Y-70688293D01*
X98700403Y-70677341D01*
X98700404Y-70677328D01*
X98700500Y-70676102D01*
X98700500Y-70243098D01*
X98700404Y-70241872D01*
X98700403Y-70241859D01*
X98697813Y-70208956D01*
X98697813Y-70208954D01*
X98697562Y-70205769D01*
X98673887Y-70124278D01*
X98652244Y-70049781D01*
X98652243Y-70049779D01*
X98651145Y-70045999D01*
X98566453Y-69902793D01*
X98532454Y-69868794D01*
X98514148Y-69824600D01*
X98532454Y-69780406D01*
X98566453Y-69746407D01*
X98651145Y-69603201D01*
X98654444Y-69591848D01*
X98691184Y-69465384D01*
X98697562Y-69443431D01*
X98697895Y-69439200D01*
X98700403Y-69407341D01*
X98700404Y-69407328D01*
X98700500Y-69406102D01*
X98700500Y-68973098D01*
X98700404Y-68971872D01*
X98700403Y-68971859D01*
X98697813Y-68938956D01*
X98697813Y-68938954D01*
X98697562Y-68935769D01*
X98664964Y-68823566D01*
X98652244Y-68779781D01*
X98652243Y-68779779D01*
X98651145Y-68775999D01*
X98566453Y-68632793D01*
X98532454Y-68598794D01*
X98514148Y-68554600D01*
X98532454Y-68510406D01*
X98566453Y-68476407D01*
X98651145Y-68333201D01*
X98663603Y-68290322D01*
X98696670Y-68176501D01*
X98697562Y-68173431D01*
X98700093Y-68141274D01*
X98700403Y-68137341D01*
X98700404Y-68137328D01*
X98700500Y-68136102D01*
X98700500Y-67703098D01*
X98700404Y-67701872D01*
X98700403Y-67701859D01*
X98697813Y-67668956D01*
X98697813Y-67668954D01*
X98697562Y-67665769D01*
X98681202Y-67609456D01*
X98660608Y-67538569D01*
X100896400Y-67538569D01*
X100900041Y-67547359D01*
X100908831Y-67551000D01*
X101612969Y-67551000D01*
X101621759Y-67547359D01*
X101625400Y-67538569D01*
X102133400Y-67538569D01*
X102137041Y-67547359D01*
X102145831Y-67551000D01*
X102426769Y-67551000D01*
X102435559Y-67547359D01*
X102439200Y-67538569D01*
X102439200Y-67383900D01*
X102457506Y-67339706D01*
X102501700Y-67321400D01*
X103720769Y-67321400D01*
X103729559Y-67317759D01*
X103733200Y-67308969D01*
X104241200Y-67308969D01*
X104244841Y-67317759D01*
X104253631Y-67321400D01*
X105482768Y-67321400D01*
X105491558Y-67317759D01*
X105495199Y-67308969D01*
X105495199Y-66779004D01*
X105495017Y-66775634D01*
X105488875Y-66719090D01*
X105487076Y-66711522D01*
X105438936Y-66583109D01*
X105434701Y-66575374D01*
X105352772Y-66466056D01*
X105346544Y-66459828D01*
X105237226Y-66377899D01*
X105229491Y-66373664D01*
X105101075Y-66325523D01*
X105093511Y-66323725D01*
X105036970Y-66317583D01*
X105033602Y-66317400D01*
X104253631Y-66317400D01*
X104244841Y-66321041D01*
X104241200Y-66329831D01*
X104241200Y-67308969D01*
X103733200Y-67308969D01*
X103733200Y-66329832D01*
X103729559Y-66321042D01*
X103720769Y-66317401D01*
X102940804Y-66317401D01*
X102937434Y-66317583D01*
X102880890Y-66323725D01*
X102873322Y-66325524D01*
X102744909Y-66373664D01*
X102737174Y-66377899D01*
X102627856Y-66459828D01*
X102621628Y-66466056D01*
X102539699Y-66575374D01*
X102535464Y-66583109D01*
X102487323Y-66711525D01*
X102485525Y-66719089D01*
X102479383Y-66775630D01*
X102479200Y-66778998D01*
X102479200Y-66837150D01*
X102460894Y-66881344D01*
X102416700Y-66899650D01*
X102397024Y-66896472D01*
X102282292Y-66858417D01*
X102275664Y-66856996D01*
X102179689Y-66847162D01*
X102176507Y-66847000D01*
X102145831Y-66847000D01*
X102137041Y-66850641D01*
X102133400Y-66859431D01*
X102133400Y-67538569D01*
X101625400Y-67538569D01*
X101625400Y-66859431D01*
X101621759Y-66850641D01*
X101612969Y-66847000D01*
X101582306Y-66847000D01*
X101579093Y-66847166D01*
X101481884Y-66857253D01*
X101475244Y-66858687D01*
X101319788Y-66910551D01*
X101313256Y-66913610D01*
X101174087Y-66999731D01*
X101168436Y-67004210D01*
X101052809Y-67120039D01*
X101048336Y-67125702D01*
X100962460Y-67265021D01*
X100959411Y-67271559D01*
X100907817Y-67427108D01*
X100906396Y-67433736D01*
X100896562Y-67529711D01*
X100896400Y-67532893D01*
X100896400Y-67538569D01*
X98660608Y-67538569D01*
X98652244Y-67509781D01*
X98652243Y-67509779D01*
X98651145Y-67505999D01*
X98566453Y-67362793D01*
X98448807Y-67245147D01*
X98305601Y-67160455D01*
X98301821Y-67159357D01*
X98301819Y-67159356D01*
X98153407Y-67116239D01*
X98145831Y-67114038D01*
X98142646Y-67113787D01*
X98142644Y-67113787D01*
X98109741Y-67111197D01*
X98109728Y-67111196D01*
X98108502Y-67111100D01*
X96325498Y-67111100D01*
X96324272Y-67111196D01*
X96324259Y-67111197D01*
X96291356Y-67113787D01*
X96291354Y-67113787D01*
X96288169Y-67114038D01*
X96280593Y-67116239D01*
X96132181Y-67159356D01*
X96132179Y-67159357D01*
X96128399Y-67160455D01*
X95985193Y-67245147D01*
X95867547Y-67362793D01*
X95782855Y-67505999D01*
X95781757Y-67509779D01*
X95781756Y-67509781D01*
X95752798Y-67609456D01*
X95736438Y-67665769D01*
X95736187Y-67668954D01*
X95736187Y-67668956D01*
X95733597Y-67701859D01*
X95733596Y-67701872D01*
X95733500Y-67703098D01*
X95733500Y-68136102D01*
X95733596Y-68137328D01*
X95733597Y-68137341D01*
X95733907Y-68141274D01*
X95736438Y-68173431D01*
X95737330Y-68176501D01*
X95770398Y-68290322D01*
X95782855Y-68333201D01*
X95867547Y-68476407D01*
X95901546Y-68510406D01*
X95919852Y-68554600D01*
X95901546Y-68598794D01*
X95867547Y-68632793D01*
X95782855Y-68775999D01*
X95781757Y-68779779D01*
X95781756Y-68779781D01*
X95769036Y-68823566D01*
X95736438Y-68935769D01*
X95736187Y-68938954D01*
X95736187Y-68938956D01*
X95733597Y-68971859D01*
X95733596Y-68971872D01*
X95733500Y-68973098D01*
X95733500Y-69406102D01*
X95733596Y-69407328D01*
X95733597Y-69407341D01*
X95736105Y-69439200D01*
X95736438Y-69443431D01*
X95742816Y-69465384D01*
X95779557Y-69591848D01*
X95782855Y-69603201D01*
X95867547Y-69746407D01*
X95901546Y-69780406D01*
X95919852Y-69824600D01*
X95901546Y-69868794D01*
X95867547Y-69902793D01*
X95782855Y-70045999D01*
X95781757Y-70049779D01*
X95781756Y-70049781D01*
X95760113Y-70124278D01*
X95736438Y-70205769D01*
X95736187Y-70208954D01*
X95736187Y-70208956D01*
X95733597Y-70241859D01*
X95733596Y-70241872D01*
X95733500Y-70243098D01*
X95733500Y-70398200D01*
X95715194Y-70442394D01*
X95671000Y-70460700D01*
X93813000Y-70460700D01*
X93768806Y-70442394D01*
X93750500Y-70398200D01*
X93750500Y-70243098D01*
X93750404Y-70241872D01*
X93750403Y-70241859D01*
X93747813Y-70208956D01*
X93747813Y-70208954D01*
X93747562Y-70205769D01*
X93723887Y-70124278D01*
X93702244Y-70049781D01*
X93702243Y-70049779D01*
X93701145Y-70045999D01*
X93616453Y-69902793D01*
X93582454Y-69868794D01*
X93564148Y-69824600D01*
X93582454Y-69780406D01*
X93616453Y-69746407D01*
X93701145Y-69603201D01*
X93704444Y-69591848D01*
X93741184Y-69465384D01*
X93747562Y-69443431D01*
X93747895Y-69439200D01*
X93750403Y-69407341D01*
X93750404Y-69407328D01*
X93750500Y-69406102D01*
X93750500Y-68973098D01*
X93750404Y-68971872D01*
X93750403Y-68971859D01*
X93747813Y-68938956D01*
X93747813Y-68938954D01*
X93747562Y-68935769D01*
X93714964Y-68823566D01*
X93702244Y-68779781D01*
X93702243Y-68779779D01*
X93701145Y-68775999D01*
X93616453Y-68632793D01*
X93582454Y-68598794D01*
X93564148Y-68554600D01*
X93582454Y-68510406D01*
X93616453Y-68476407D01*
X93701145Y-68333201D01*
X93713603Y-68290322D01*
X93746670Y-68176501D01*
X93747562Y-68173431D01*
X93750093Y-68141274D01*
X93750403Y-68137341D01*
X93750404Y-68137328D01*
X93750500Y-68136102D01*
X93750500Y-67703098D01*
X93750404Y-67701872D01*
X93750403Y-67701859D01*
X93747813Y-67668956D01*
X93747813Y-67668954D01*
X93747562Y-67665769D01*
X93731202Y-67609456D01*
X93702244Y-67509781D01*
X93702243Y-67509779D01*
X93701145Y-67505999D01*
X93616453Y-67362793D01*
X93498807Y-67245147D01*
X93355601Y-67160455D01*
X93351821Y-67159357D01*
X93351819Y-67159356D01*
X93203407Y-67116239D01*
X93195831Y-67114038D01*
X93192646Y-67113787D01*
X93192644Y-67113787D01*
X93159741Y-67111197D01*
X93159728Y-67111196D01*
X93158502Y-67111100D01*
X91375498Y-67111100D01*
X91374272Y-67111196D01*
X91374259Y-67111197D01*
X91341356Y-67113787D01*
X91341354Y-67113787D01*
X91338169Y-67114038D01*
X91330593Y-67116239D01*
X91182181Y-67159356D01*
X91182179Y-67159357D01*
X91178399Y-67160455D01*
X91035193Y-67245147D01*
X90917547Y-67362793D01*
X90832855Y-67505999D01*
X90831757Y-67509779D01*
X90831756Y-67509781D01*
X90802798Y-67609456D01*
X90786438Y-67665769D01*
X90786187Y-67668954D01*
X90786187Y-67668956D01*
X90783597Y-67701859D01*
X90783596Y-67701872D01*
X90783500Y-67703098D01*
X90783500Y-68136102D01*
X90783596Y-68137328D01*
X90783597Y-68137341D01*
X90783907Y-68141274D01*
X90786438Y-68173431D01*
X90787330Y-68176501D01*
X90820398Y-68290322D01*
X90832855Y-68333201D01*
X90917547Y-68476407D01*
X90951546Y-68510406D01*
X90969852Y-68554600D01*
X90951546Y-68598794D01*
X90917547Y-68632793D01*
X90832855Y-68775999D01*
X90831757Y-68779779D01*
X90831756Y-68779781D01*
X90819036Y-68823566D01*
X90786438Y-68935769D01*
X90786187Y-68938954D01*
X90786187Y-68938956D01*
X90783597Y-68971859D01*
X90783596Y-68971872D01*
X90783500Y-68973098D01*
X90783500Y-69406102D01*
X90783596Y-69407328D01*
X90783597Y-69407341D01*
X90786105Y-69439200D01*
X90786438Y-69443431D01*
X90792816Y-69465384D01*
X90829557Y-69591848D01*
X90832855Y-69603201D01*
X90917547Y-69746407D01*
X90951546Y-69780406D01*
X90969852Y-69824600D01*
X90951546Y-69868794D01*
X90917547Y-69902793D01*
X90832855Y-70045999D01*
X90831757Y-70049779D01*
X90831756Y-70049781D01*
X90810113Y-70124278D01*
X90786438Y-70205769D01*
X90786187Y-70208954D01*
X90786187Y-70208956D01*
X90783597Y-70241859D01*
X90783596Y-70241872D01*
X90783500Y-70243098D01*
X90783500Y-70676102D01*
X90783540Y-70676613D01*
X90767011Y-70721423D01*
X90721114Y-70741500D01*
X89894619Y-70741500D01*
X89850425Y-70723194D01*
X89832119Y-70679000D01*
X89832445Y-70672628D01*
X89832537Y-70671731D01*
X89832538Y-70671715D01*
X89832700Y-70670132D01*
X89832700Y-70122668D01*
X89830401Y-70100502D01*
X89822440Y-70023781D01*
X89822440Y-70023779D01*
X89822087Y-70020381D01*
X89767956Y-69858132D01*
X89719858Y-69780406D01*
X89679863Y-69715775D01*
X89679863Y-69715774D01*
X89677952Y-69712687D01*
X89630440Y-69665258D01*
X89612096Y-69621080D01*
X89630363Y-69576869D01*
X89675791Y-69531361D01*
X89680264Y-69525698D01*
X89766140Y-69386379D01*
X89769189Y-69379841D01*
X89820783Y-69224292D01*
X89822204Y-69217664D01*
X89832038Y-69121689D01*
X89832200Y-69118507D01*
X89832200Y-69112831D01*
X89828559Y-69104041D01*
X89819769Y-69100400D01*
X87878631Y-69100400D01*
X87869841Y-69104041D01*
X87866200Y-69112831D01*
X87866200Y-69118494D01*
X87866366Y-69121707D01*
X87876453Y-69218916D01*
X87877887Y-69225556D01*
X87929751Y-69381012D01*
X87932811Y-69387546D01*
X87935884Y-69392511D01*
X87943574Y-69439724D01*
X87915627Y-69478546D01*
X87882738Y-69487900D01*
X86722544Y-69487900D01*
X86678350Y-69469594D01*
X86660044Y-69425400D01*
X86678350Y-69381206D01*
X86695637Y-69368988D01*
X86752675Y-69341782D01*
X86757446Y-69338960D01*
X86931665Y-69213771D01*
X86935857Y-69210154D01*
X87085160Y-69056085D01*
X87088645Y-69051781D01*
X87208302Y-68873712D01*
X87210972Y-68868856D01*
X87297204Y-68672413D01*
X87298972Y-68667161D01*
X87319904Y-68579969D01*
X87866200Y-68579969D01*
X87869841Y-68588759D01*
X87878631Y-68592400D01*
X88582769Y-68592400D01*
X88591559Y-68588759D01*
X88595200Y-68579969D01*
X89103200Y-68579969D01*
X89106841Y-68588759D01*
X89115631Y-68592400D01*
X89819769Y-68592400D01*
X89828559Y-68588759D01*
X89832200Y-68579969D01*
X89832200Y-68574306D01*
X89832034Y-68571093D01*
X89821947Y-68473884D01*
X89820513Y-68467244D01*
X89768649Y-68311788D01*
X89765590Y-68305256D01*
X89679469Y-68166087D01*
X89674990Y-68160436D01*
X89559161Y-68044809D01*
X89553498Y-68040336D01*
X89414179Y-67954460D01*
X89407641Y-67951411D01*
X89252092Y-67899817D01*
X89245464Y-67898396D01*
X89149489Y-67888562D01*
X89146307Y-67888400D01*
X89115631Y-67888400D01*
X89106841Y-67892041D01*
X89103200Y-67900831D01*
X89103200Y-68579969D01*
X88595200Y-68579969D01*
X88595200Y-67900831D01*
X88591559Y-67892041D01*
X88582769Y-67888400D01*
X88552106Y-67888400D01*
X88548893Y-67888566D01*
X88451684Y-67898653D01*
X88445044Y-67900087D01*
X88289588Y-67951951D01*
X88283056Y-67955010D01*
X88143887Y-68041131D01*
X88138236Y-68045610D01*
X88022609Y-68161439D01*
X88018136Y-68167102D01*
X87932260Y-68306421D01*
X87929211Y-68312959D01*
X87877617Y-68468508D01*
X87876196Y-68475136D01*
X87866362Y-68571111D01*
X87866200Y-68574293D01*
X87866200Y-68579969D01*
X87319904Y-68579969D01*
X87329238Y-68541090D01*
X87327750Y-68531691D01*
X87324047Y-68529000D01*
X84376090Y-68529000D01*
X84367300Y-68532641D01*
X84365490Y-68537010D01*
X84393028Y-68626522D01*
X84388526Y-68674145D01*
X84358712Y-68701997D01*
X84343248Y-68708882D01*
X84188747Y-68821134D01*
X84186558Y-68823565D01*
X84186557Y-68823566D01*
X84171751Y-68840010D01*
X84060960Y-68963056D01*
X84049300Y-68983252D01*
X83969363Y-69121707D01*
X83965473Y-69128444D01*
X83906458Y-69310072D01*
X83886496Y-69500000D01*
X83906458Y-69689928D01*
X83907470Y-69693042D01*
X83907470Y-69693043D01*
X83913020Y-69710124D01*
X83965473Y-69871556D01*
X83967108Y-69874388D01*
X83967109Y-69874390D01*
X83976451Y-69890571D01*
X84060960Y-70036944D01*
X84073893Y-70051308D01*
X84170462Y-70158558D01*
X84188747Y-70178866D01*
X84343248Y-70291118D01*
X84346241Y-70292450D01*
X84346240Y-70292450D01*
X84461621Y-70343821D01*
X84494549Y-70378520D01*
X84498700Y-70400918D01*
X84498700Y-70491887D01*
X84499382Y-70495094D01*
X84499382Y-70495097D01*
X84528228Y-70630804D01*
X84538406Y-70678688D01*
X84616082Y-70853152D01*
X84728334Y-71007653D01*
X84728385Y-71007699D01*
X84743822Y-71055487D01*
X84741500Y-71076866D01*
X84741500Y-71623134D01*
X84746401Y-71668250D01*
X84746401Y-71681748D01*
X84741500Y-71726866D01*
X84741500Y-72273134D01*
X84746401Y-72318250D01*
X84746401Y-72331748D01*
X84741500Y-72376866D01*
X84741500Y-72923134D01*
X84746654Y-72970571D01*
X84746654Y-72984075D01*
X84742183Y-73025232D01*
X84742000Y-73028598D01*
X84742000Y-73062569D01*
X84745641Y-73071359D01*
X84761845Y-73078071D01*
X84796448Y-73113872D01*
X84797820Y-73117532D01*
X84797821Y-73117534D01*
X84799385Y-73121705D01*
X84886739Y-73238261D01*
X84906980Y-73253431D01*
X84998045Y-73321680D01*
X85003295Y-73325615D01*
X85007464Y-73327178D01*
X85007466Y-73327179D01*
X85094518Y-73359813D01*
X85139684Y-73376745D01*
X85201866Y-73383500D01*
X86598134Y-73383500D01*
X86660316Y-73376745D01*
X86705482Y-73359813D01*
X86792534Y-73327179D01*
X86792536Y-73327178D01*
X86796705Y-73325615D01*
X86801956Y-73321680D01*
X86893020Y-73253431D01*
X86913261Y-73238261D01*
X87000615Y-73121705D01*
X87003551Y-73113873D01*
X87038156Y-73078070D01*
X87054358Y-73071359D01*
X87057999Y-73062569D01*
X87057999Y-73028604D01*
X87057817Y-73025231D01*
X87053346Y-72984069D01*
X87053347Y-72970571D01*
X87058317Y-72924816D01*
X87058317Y-72924815D01*
X87058500Y-72923134D01*
X87058500Y-72671000D01*
X87076806Y-72626806D01*
X87121000Y-72608500D01*
X90648067Y-72608500D01*
X90692261Y-72626806D01*
X90767873Y-72702418D01*
X90786179Y-72746612D01*
X90785986Y-72751507D01*
X90783500Y-72783098D01*
X90783500Y-73216102D01*
X90783596Y-73217328D01*
X90783597Y-73217341D01*
X90785244Y-73238261D01*
X90786438Y-73253431D01*
X90787330Y-73256501D01*
X90822882Y-73378872D01*
X90832855Y-73413201D01*
X90917547Y-73556407D01*
X90951546Y-73590406D01*
X90969852Y-73634600D01*
X90951546Y-73678794D01*
X90917547Y-73712793D01*
X90832855Y-73855999D01*
X90786438Y-74015769D01*
X90786187Y-74018954D01*
X90786187Y-74018956D01*
X90783597Y-74051859D01*
X90783596Y-74051872D01*
X90783500Y-74053098D01*
X90783500Y-74486102D01*
X90783596Y-74487328D01*
X90783597Y-74487341D01*
X90786187Y-74520244D01*
X90786438Y-74523431D01*
X90787330Y-74526501D01*
X90830672Y-74675686D01*
X90832855Y-74683201D01*
X90917547Y-74826407D01*
X90951546Y-74860406D01*
X90969852Y-74904600D01*
X90951546Y-74948794D01*
X90917547Y-74982793D01*
X90832855Y-75125999D01*
X90831757Y-75129779D01*
X90831756Y-75129781D01*
X90804662Y-75223042D01*
X90786438Y-75285769D01*
X90786187Y-75288954D01*
X90786187Y-75288956D01*
X90783597Y-75321859D01*
X90783596Y-75321872D01*
X90783500Y-75323098D01*
X90783500Y-75756102D01*
X90783596Y-75757328D01*
X90783597Y-75757341D01*
X90785344Y-75779530D01*
X90786438Y-75793431D01*
X90832855Y-75953201D01*
X90917547Y-76096407D01*
X90951546Y-76130406D01*
X90969852Y-76174600D01*
X90951546Y-76218794D01*
X90917547Y-76252793D01*
X90832855Y-76395999D01*
X90831757Y-76399779D01*
X90831756Y-76399781D01*
X90812140Y-76467300D01*
X90786438Y-76555769D01*
X90786187Y-76558954D01*
X90786187Y-76558956D01*
X90783597Y-76591859D01*
X90783596Y-76591872D01*
X90783500Y-76593098D01*
X90783500Y-77026102D01*
X90783596Y-77027328D01*
X90783597Y-77027341D01*
X90786142Y-77059670D01*
X90786438Y-77063431D01*
X90787330Y-77066501D01*
X90815352Y-77162953D01*
X90832855Y-77223201D01*
X90917547Y-77366407D01*
X91035193Y-77484053D01*
X91178399Y-77568745D01*
X91182179Y-77569843D01*
X91182181Y-77569844D01*
X91286046Y-77600019D01*
X91338169Y-77615162D01*
X91341354Y-77615413D01*
X91341356Y-77615413D01*
X91374259Y-77618003D01*
X91374272Y-77618004D01*
X91375498Y-77618100D01*
X93158502Y-77618100D01*
X93159728Y-77618004D01*
X93159741Y-77618003D01*
X93192644Y-77615413D01*
X93192646Y-77615413D01*
X93195831Y-77615162D01*
X93247954Y-77600019D01*
X93351819Y-77569844D01*
X93351821Y-77569843D01*
X93355601Y-77568745D01*
X93498807Y-77484053D01*
X93616453Y-77366407D01*
X93701145Y-77223201D01*
X93718649Y-77162953D01*
X93746670Y-77066501D01*
X93747562Y-77063431D01*
X93747858Y-77059670D01*
X93747951Y-77059487D01*
X93748386Y-77057106D01*
X93749098Y-77057236D01*
X93769575Y-77017049D01*
X93815069Y-77002267D01*
X93852228Y-77018347D01*
X93860751Y-77026102D01*
X93871365Y-77035760D01*
X94022068Y-77117585D01*
X94025713Y-77118541D01*
X94025715Y-77118542D01*
X94184291Y-77160144D01*
X94187939Y-77161101D01*
X94279753Y-77162543D01*
X94355633Y-77163735D01*
X94355635Y-77163735D01*
X94359402Y-77163794D01*
X94526559Y-77125510D01*
X94529923Y-77123818D01*
X94529926Y-77123817D01*
X94645959Y-77065458D01*
X94679758Y-77048459D01*
X94682623Y-77046012D01*
X94682626Y-77046010D01*
X94807290Y-76939536D01*
X94810155Y-76937089D01*
X94889567Y-76826577D01*
X94908024Y-76800892D01*
X94908025Y-76800890D01*
X94910224Y-76797830D01*
X94974185Y-76638720D01*
X94974511Y-76636432D01*
X94990349Y-76609000D01*
X95432943Y-76166406D01*
X95477137Y-76148100D01*
X95822438Y-76148100D01*
X95866632Y-76166406D01*
X95884938Y-76210600D01*
X95871822Y-76248908D01*
X95865944Y-76256486D01*
X95785319Y-76392817D01*
X95782220Y-76399978D01*
X95740476Y-76543660D01*
X95741520Y-76553119D01*
X95744617Y-76555600D01*
X98684562Y-76555600D01*
X98693352Y-76551959D01*
X98694870Y-76548293D01*
X98651780Y-76399978D01*
X98648681Y-76392817D01*
X98568056Y-76256485D01*
X98563274Y-76250321D01*
X98532101Y-76219148D01*
X98513795Y-76174954D01*
X98532100Y-76130760D01*
X98566453Y-76096407D01*
X98651145Y-75953201D01*
X98697562Y-75793431D01*
X98698656Y-75779530D01*
X98700403Y-75757341D01*
X98700404Y-75757328D01*
X98700500Y-75756102D01*
X98700500Y-75323098D01*
X98700404Y-75321872D01*
X98700403Y-75321859D01*
X98697813Y-75288956D01*
X98697813Y-75288954D01*
X98697562Y-75285769D01*
X98679338Y-75223042D01*
X98652244Y-75129781D01*
X98652243Y-75129779D01*
X98651145Y-75125999D01*
X98566453Y-74982793D01*
X98532454Y-74948794D01*
X98514148Y-74904600D01*
X98532454Y-74860406D01*
X98566453Y-74826407D01*
X98651145Y-74683201D01*
X98653329Y-74675686D01*
X98696670Y-74526501D01*
X98697562Y-74523431D01*
X98697813Y-74520244D01*
X98700403Y-74487341D01*
X98700404Y-74487328D01*
X98700500Y-74486102D01*
X98700500Y-74053098D01*
X98700404Y-74051872D01*
X98700403Y-74051859D01*
X98697813Y-74018956D01*
X98697813Y-74018954D01*
X98697562Y-74015769D01*
X98651145Y-73855999D01*
X98566453Y-73712793D01*
X98565684Y-73712024D01*
X98553308Y-73666783D01*
X98577009Y-73625232D01*
X98590190Y-73617390D01*
X98598105Y-73613915D01*
X98601091Y-73611624D01*
X98601094Y-73611622D01*
X98650111Y-73574009D01*
X98652759Y-73572085D01*
X98703674Y-73537092D01*
X98706781Y-73534957D01*
X98749453Y-73487063D01*
X98751924Y-73484446D01*
X98760806Y-73475564D01*
X98805000Y-73457258D01*
X98849194Y-73475564D01*
X98867500Y-73519758D01*
X98867500Y-76918135D01*
X98849194Y-76962329D01*
X98761468Y-77050055D01*
X98717274Y-77068361D01*
X98705783Y-77064325D01*
X98705622Y-77065458D01*
X98692569Y-77063600D01*
X95749438Y-77063600D01*
X95740648Y-77067241D01*
X95739130Y-77070907D01*
X95782220Y-77219222D01*
X95785319Y-77226383D01*
X95865944Y-77362715D01*
X95870726Y-77368879D01*
X95982721Y-77480874D01*
X95988888Y-77485658D01*
X96037503Y-77514408D01*
X96066225Y-77552661D01*
X96059486Y-77600019D01*
X96021233Y-77628741D01*
X96008634Y-77630636D01*
X95965693Y-77632661D01*
X95957857Y-77633031D01*
X95954914Y-77633100D01*
X95931865Y-77633100D01*
X95930501Y-77633222D01*
X95930495Y-77633222D01*
X95922599Y-77633927D01*
X95905656Y-77635439D01*
X95903089Y-77635614D01*
X95821925Y-77639442D01*
X95801253Y-77644177D01*
X95792861Y-77645506D01*
X95774495Y-77647145D01*
X95774494Y-77647145D01*
X95771728Y-77647392D01*
X95769052Y-77648124D01*
X95769047Y-77648125D01*
X95713417Y-77663344D01*
X95693371Y-77668828D01*
X95690845Y-77669462D01*
X95672244Y-77673723D01*
X95614357Y-77686980D01*
X95614353Y-77686981D01*
X95611643Y-77687602D01*
X95609078Y-77688696D01*
X95609075Y-77688697D01*
X95592130Y-77695924D01*
X95584102Y-77698720D01*
X95563648Y-77704316D01*
X95561136Y-77705514D01*
X95561131Y-77705516D01*
X95490352Y-77739277D01*
X95487966Y-77740355D01*
X95415773Y-77771147D01*
X95415768Y-77771149D01*
X95413214Y-77772239D01*
X95397818Y-77782353D01*
X95395482Y-77783887D01*
X95388075Y-77788060D01*
X95371457Y-77795986D01*
X95371448Y-77795991D01*
X95368937Y-77797189D01*
X95366673Y-77798816D01*
X95302984Y-77844581D01*
X95300836Y-77846058D01*
X95232909Y-77890678D01*
X95231204Y-77892197D01*
X95231199Y-77892201D01*
X95210660Y-77910501D01*
X95205554Y-77914591D01*
X95196015Y-77921445D01*
X95196009Y-77921450D01*
X95193749Y-77923074D01*
X95191816Y-77925069D01*
X95191811Y-77925073D01*
X95122007Y-77997106D01*
X95121318Y-77997805D01*
X93944808Y-79174315D01*
X93938662Y-79179705D01*
X93918689Y-79195031D01*
X93916814Y-79197092D01*
X93865098Y-79253927D01*
X93863065Y-79256058D01*
X93846758Y-79272365D01*
X93845862Y-79273437D01*
X93829883Y-79292547D01*
X93828162Y-79294519D01*
X93773503Y-79354589D01*
X93766118Y-79366362D01*
X93762236Y-79372550D01*
X93757240Y-79379427D01*
X93743630Y-79395705D01*
X93742253Y-79398118D01*
X93742253Y-79398119D01*
X93703382Y-79466267D01*
X93702041Y-79468507D01*
X93658866Y-79537335D01*
X93657828Y-79539917D01*
X93657826Y-79539921D01*
X93650953Y-79557016D01*
X93647254Y-79564668D01*
X93638125Y-79580674D01*
X93638122Y-79580679D01*
X93636747Y-79583091D01*
X93635821Y-79585705D01*
X93635819Y-79585710D01*
X93609635Y-79659652D01*
X93608710Y-79662100D01*
X93579441Y-79734910D01*
X93578403Y-79737493D01*
X93574351Y-79757061D01*
X93574101Y-79758266D01*
X93571818Y-79766444D01*
X93564736Y-79786444D01*
X93564288Y-79789178D01*
X93564287Y-79789183D01*
X93551608Y-79866616D01*
X93551132Y-79869180D01*
X93534656Y-79948737D01*
X93534524Y-79951024D01*
X93534524Y-79951025D01*
X93532941Y-79978481D01*
X93532224Y-79984983D01*
X93530486Y-79995598D01*
X93529874Y-79999334D01*
X93530959Y-80068406D01*
X93531492Y-80102345D01*
X93531500Y-80103327D01*
X93531500Y-80757730D01*
X93513194Y-80801924D01*
X93469000Y-80820230D01*
X93424806Y-80801924D01*
X93418986Y-80795211D01*
X93415574Y-80790658D01*
X93409344Y-80784428D01*
X93300026Y-80702499D01*
X93292291Y-80698264D01*
X93163875Y-80650123D01*
X93156311Y-80648325D01*
X93099770Y-80642183D01*
X93096402Y-80642000D01*
X92466431Y-80642000D01*
X92457641Y-80645641D01*
X92454000Y-80654431D01*
X92454000Y-83345568D01*
X92457641Y-83354358D01*
X92466431Y-83357999D01*
X93096396Y-83357999D01*
X93099766Y-83357817D01*
X93156310Y-83351675D01*
X93163878Y-83349876D01*
X93292291Y-83301736D01*
X93300026Y-83297501D01*
X93409344Y-83215572D01*
X93415572Y-83209344D01*
X93497501Y-83100026D01*
X93501736Y-83092291D01*
X93549877Y-82963875D01*
X93551675Y-82956311D01*
X93557817Y-82899770D01*
X93558000Y-82896402D01*
X93558000Y-82878049D01*
X93576306Y-82833855D01*
X93620500Y-82815549D01*
X93667741Y-82837128D01*
X93786250Y-82973938D01*
X93813819Y-82996826D01*
X93916630Y-83082181D01*
X93958126Y-83116632D01*
X94151000Y-83229338D01*
X94153395Y-83230253D01*
X94153398Y-83230254D01*
X94325551Y-83295993D01*
X94359692Y-83309030D01*
X94362203Y-83309541D01*
X94362207Y-83309542D01*
X94576084Y-83353056D01*
X94576087Y-83353056D01*
X94578597Y-83353567D01*
X94581157Y-83353661D01*
X94581158Y-83353661D01*
X94799267Y-83361659D01*
X94799270Y-83361659D01*
X94801837Y-83361753D01*
X94831134Y-83358000D01*
X95020867Y-83333695D01*
X95020872Y-83333694D01*
X95023416Y-83333368D01*
X95102832Y-83309542D01*
X95234932Y-83269910D01*
X95234936Y-83269908D01*
X95237384Y-83269174D01*
X95239680Y-83268049D01*
X95239683Y-83268048D01*
X95359512Y-83209344D01*
X95437994Y-83170896D01*
X95551638Y-83089835D01*
X95617773Y-83042662D01*
X95617776Y-83042660D01*
X95619860Y-83041173D01*
X95778096Y-82883489D01*
X95813762Y-82833855D01*
X95833038Y-82807028D01*
X95908453Y-82702077D01*
X95912996Y-82692886D01*
X95951560Y-82614856D01*
X95987552Y-82583347D01*
X96035282Y-82586518D01*
X96063024Y-82614020D01*
X96063266Y-82614616D01*
X96064605Y-82616801D01*
X96064607Y-82616805D01*
X96115450Y-82699773D01*
X96179987Y-82805088D01*
X96181664Y-82807024D01*
X96181667Y-82807028D01*
X96259081Y-82896396D01*
X96326250Y-82973938D01*
X96353819Y-82996826D01*
X96456630Y-83082181D01*
X96498126Y-83116632D01*
X96691000Y-83229338D01*
X96693395Y-83230253D01*
X96693398Y-83230254D01*
X96865551Y-83295993D01*
X96899692Y-83309030D01*
X96902203Y-83309541D01*
X96902207Y-83309542D01*
X97116084Y-83353056D01*
X97116087Y-83353056D01*
X97118597Y-83353567D01*
X97121157Y-83353661D01*
X97121158Y-83353661D01*
X97339267Y-83361659D01*
X97339270Y-83361659D01*
X97341837Y-83361753D01*
X97371134Y-83358000D01*
X97560867Y-83333695D01*
X97560872Y-83333694D01*
X97563416Y-83333368D01*
X97673354Y-83300385D01*
X97720942Y-83305219D01*
X97735506Y-83316055D01*
X98181425Y-83761974D01*
X98186816Y-83768120D01*
X98208813Y-83796787D01*
X98212058Y-83799277D01*
X98240725Y-83821274D01*
X98240725Y-83821275D01*
X98240728Y-83821277D01*
X98335924Y-83894324D01*
X98397238Y-83919721D01*
X98483950Y-83955638D01*
X98488006Y-83956172D01*
X98488010Y-83956173D01*
X98575134Y-83967643D01*
X98602915Y-83971300D01*
X98602920Y-83971300D01*
X98602929Y-83971301D01*
X98638736Y-83976015D01*
X98642800Y-83976550D01*
X98678616Y-83971835D01*
X98686773Y-83971300D01*
X109404627Y-83971300D01*
X109412784Y-83971835D01*
X109448600Y-83976550D01*
X109452664Y-83976015D01*
X109488474Y-83971301D01*
X109488484Y-83971300D01*
X109488485Y-83971300D01*
X109488501Y-83971298D01*
X109588057Y-83958191D01*
X109603389Y-83956173D01*
X109603391Y-83956172D01*
X109607451Y-83955638D01*
X109611236Y-83954070D01*
X109611237Y-83954070D01*
X109751687Y-83895894D01*
X109751690Y-83895892D01*
X109755476Y-83894324D01*
X109850672Y-83821277D01*
X109850675Y-83821275D01*
X109850675Y-83821274D01*
X109879341Y-83799278D01*
X109879342Y-83799277D01*
X109882587Y-83796787D01*
X109885077Y-83793542D01*
X109885080Y-83793539D01*
X109904582Y-83768123D01*
X109909972Y-83761977D01*
X110183678Y-83488271D01*
X110227872Y-83469965D01*
X110236083Y-83470507D01*
X110329574Y-83482898D01*
X110559958Y-83474249D01*
X110562543Y-83473707D01*
X110562548Y-83473706D01*
X110782998Y-83427451D01*
X110782997Y-83427451D01*
X110785591Y-83426907D01*
X110788055Y-83425934D01*
X110875455Y-83391418D01*
X110923284Y-83392211D01*
X110942606Y-83405355D01*
X111207425Y-83670174D01*
X111212816Y-83676320D01*
X111234813Y-83704987D01*
X111238058Y-83707477D01*
X111266725Y-83729474D01*
X111266728Y-83729477D01*
X111287060Y-83745078D01*
X111350216Y-83793539D01*
X111361925Y-83802524D01*
X111365709Y-83804091D01*
X111365710Y-83804092D01*
X111506164Y-83862270D01*
X111506165Y-83862270D01*
X111509950Y-83863838D01*
X111514012Y-83864373D01*
X111514013Y-83864373D01*
X111529342Y-83866391D01*
X111628915Y-83879500D01*
X111628920Y-83879500D01*
X111628929Y-83879501D01*
X111664736Y-83884215D01*
X111668800Y-83884750D01*
X111704616Y-83880035D01*
X111712773Y-83879500D01*
X113326173Y-83879500D01*
X113334330Y-83880035D01*
X113370146Y-83884750D01*
X113374210Y-83884215D01*
X113410020Y-83879501D01*
X113410030Y-83879500D01*
X113410031Y-83879500D01*
X113410047Y-83879498D01*
X113509603Y-83866391D01*
X113524935Y-83864373D01*
X113524937Y-83864372D01*
X113528997Y-83863838D01*
X113532782Y-83862270D01*
X113532783Y-83862270D01*
X113673233Y-83804094D01*
X113673236Y-83804092D01*
X113677022Y-83802524D01*
X113772218Y-83729477D01*
X113772221Y-83729475D01*
X113772221Y-83729474D01*
X113800887Y-83707478D01*
X113800888Y-83707477D01*
X113804133Y-83704987D01*
X113806623Y-83701742D01*
X113806626Y-83701739D01*
X113826128Y-83676323D01*
X113831518Y-83670177D01*
X114495970Y-83005724D01*
X114502116Y-83000333D01*
X114527541Y-82980824D01*
X114527542Y-82980823D01*
X114530787Y-82978333D01*
X114584372Y-82908500D01*
X114628324Y-82851222D01*
X114629892Y-82847436D01*
X114629894Y-82847433D01*
X114660414Y-82773752D01*
X117642001Y-82773752D01*
X117642167Y-82776966D01*
X117652615Y-82877664D01*
X117654048Y-82884301D01*
X117707756Y-83045286D01*
X117710818Y-83051822D01*
X117800010Y-83195953D01*
X117804482Y-83201596D01*
X117924441Y-83321346D01*
X117930102Y-83325817D01*
X118074385Y-83414753D01*
X118080919Y-83417800D01*
X118242004Y-83471230D01*
X118248632Y-83472651D01*
X118348052Y-83482838D01*
X118351234Y-83483000D01*
X118733569Y-83483000D01*
X118742359Y-83479359D01*
X118746000Y-83470569D01*
X118746000Y-82266431D01*
X118742359Y-82257641D01*
X118733569Y-82254000D01*
X117654432Y-82254000D01*
X117645642Y-82257641D01*
X117642001Y-82266431D01*
X117642001Y-82773752D01*
X114660414Y-82773752D01*
X114688070Y-82706983D01*
X114688070Y-82706982D01*
X114689638Y-82703197D01*
X114690996Y-82692886D01*
X114696230Y-82653125D01*
X114705300Y-82584231D01*
X114705300Y-82584226D01*
X114710015Y-82548410D01*
X114710550Y-82544346D01*
X114705835Y-82508530D01*
X114705300Y-82500373D01*
X114705300Y-81733569D01*
X117642000Y-81733569D01*
X117645641Y-81742359D01*
X117654431Y-81746000D01*
X118733569Y-81746000D01*
X118742359Y-81742359D01*
X118746000Y-81733569D01*
X118746000Y-80529432D01*
X118742359Y-80520642D01*
X118733569Y-80517001D01*
X118351248Y-80517001D01*
X118348034Y-80517167D01*
X118247336Y-80527615D01*
X118240699Y-80529048D01*
X118079714Y-80582756D01*
X118073178Y-80585818D01*
X117929047Y-80675010D01*
X117923404Y-80679482D01*
X117803654Y-80799441D01*
X117799183Y-80805102D01*
X117710247Y-80949385D01*
X117707200Y-80955919D01*
X117653770Y-81117004D01*
X117652349Y-81123632D01*
X117642162Y-81223052D01*
X117642000Y-81226234D01*
X117642000Y-81733569D01*
X114705300Y-81733569D01*
X114705300Y-75731800D01*
X114723606Y-75687606D01*
X114767800Y-75669300D01*
X114785199Y-75669300D01*
X114829393Y-75687606D01*
X115818910Y-76677123D01*
X115821163Y-76679496D01*
X115868047Y-76731566D01*
X115870697Y-76733491D01*
X115883472Y-76742773D01*
X115890929Y-76749142D01*
X119552093Y-80410306D01*
X119570399Y-80454500D01*
X119552093Y-80498694D01*
X119507899Y-80517000D01*
X119266431Y-80517000D01*
X119257641Y-80520641D01*
X119254000Y-80529431D01*
X119254000Y-83470568D01*
X119257641Y-83479358D01*
X119266431Y-83482999D01*
X119648752Y-83482999D01*
X119651966Y-83482833D01*
X119752664Y-83472385D01*
X119759301Y-83470952D01*
X119920286Y-83417244D01*
X119926822Y-83414182D01*
X120070953Y-83324990D01*
X120076596Y-83320518D01*
X120196346Y-83200559D01*
X120200817Y-83194898D01*
X120289753Y-83050615D01*
X120292799Y-83044084D01*
X120314856Y-82977586D01*
X120346145Y-82941403D01*
X120393855Y-82937941D01*
X120426022Y-82962357D01*
X120437441Y-82979319D01*
X120439265Y-82981231D01*
X120439269Y-82981236D01*
X120579342Y-83128069D01*
X120596576Y-83146135D01*
X120598696Y-83147712D01*
X120598699Y-83147715D01*
X120762935Y-83269910D01*
X120781542Y-83283754D01*
X120783901Y-83284953D01*
X120783902Y-83284954D01*
X120984700Y-83387045D01*
X120984703Y-83387046D01*
X120987051Y-83388240D01*
X121108126Y-83425835D01*
X121204698Y-83455822D01*
X121204701Y-83455823D01*
X121207227Y-83456607D01*
X121435774Y-83486898D01*
X121666158Y-83478249D01*
X121668743Y-83477707D01*
X121668748Y-83477706D01*
X121889198Y-83431451D01*
X121889197Y-83431451D01*
X121891791Y-83430907D01*
X121900542Y-83427451D01*
X121981655Y-83395418D01*
X122029484Y-83396211D01*
X122048806Y-83409355D01*
X122833225Y-84193774D01*
X122838616Y-84199920D01*
X122853706Y-84219585D01*
X122860613Y-84228587D01*
X122863858Y-84231077D01*
X122863862Y-84231081D01*
X122892521Y-84253072D01*
X122892528Y-84253077D01*
X122892529Y-84253078D01*
X122987724Y-84326124D01*
X122991507Y-84327691D01*
X123096687Y-84371258D01*
X123130511Y-84405082D01*
X123130511Y-84452918D01*
X123096687Y-84486742D01*
X123072769Y-84491500D01*
X85044452Y-84491500D01*
X85034836Y-84490756D01*
X85031066Y-84490169D01*
X85006276Y-84486309D01*
X85001863Y-84486886D01*
X85001862Y-84486886D01*
X84988952Y-84488574D01*
X84980343Y-84489700D01*
X84969516Y-84490169D01*
X84611251Y-84474526D01*
X84605833Y-84474052D01*
X84360788Y-84441791D01*
X84222772Y-84423621D01*
X84217403Y-84422675D01*
X83840171Y-84339045D01*
X83834904Y-84337633D01*
X83566728Y-84253077D01*
X83466414Y-84221448D01*
X83461301Y-84219587D01*
X83282813Y-84145655D01*
X83104331Y-84071725D01*
X83099390Y-84069421D01*
X82756673Y-83891014D01*
X82751951Y-83888288D01*
X82426089Y-83680691D01*
X82421623Y-83677564D01*
X82299525Y-83583876D01*
X82275607Y-83542449D01*
X82287987Y-83496244D01*
X82329414Y-83472326D01*
X82361487Y-83476548D01*
X82501409Y-83534505D01*
X82747597Y-83593609D01*
X83000000Y-83613474D01*
X83252403Y-83593609D01*
X83498591Y-83534505D01*
X83525327Y-83523431D01*
X83730227Y-83438559D01*
X83730234Y-83438555D01*
X83732502Y-83437616D01*
X83742563Y-83431451D01*
X83946281Y-83306612D01*
X83946283Y-83306611D01*
X83948376Y-83305328D01*
X83950241Y-83303735D01*
X83950244Y-83303733D01*
X84139034Y-83142490D01*
X84140898Y-83140898D01*
X84181447Y-83093422D01*
X84303733Y-82950244D01*
X84303735Y-82950241D01*
X84305328Y-82948376D01*
X84320702Y-82923288D01*
X84337182Y-82896396D01*
X90842001Y-82896396D01*
X90842183Y-82899766D01*
X90848325Y-82956310D01*
X90850124Y-82963878D01*
X90898264Y-83092291D01*
X90902499Y-83100026D01*
X90984428Y-83209344D01*
X90990656Y-83215572D01*
X91099974Y-83297501D01*
X91107709Y-83301736D01*
X91236125Y-83349877D01*
X91243689Y-83351675D01*
X91300230Y-83357817D01*
X91303598Y-83358000D01*
X91933569Y-83358000D01*
X91942359Y-83354359D01*
X91946000Y-83345569D01*
X91946000Y-82266431D01*
X91942359Y-82257641D01*
X91933569Y-82254000D01*
X90854432Y-82254000D01*
X90845642Y-82257641D01*
X90842001Y-82266431D01*
X90842001Y-82896396D01*
X84337182Y-82896396D01*
X84436330Y-82734601D01*
X84436331Y-82734598D01*
X84437616Y-82732502D01*
X84438555Y-82730234D01*
X84438559Y-82730227D01*
X84533563Y-82500865D01*
X84534505Y-82498591D01*
X84593609Y-82252403D01*
X84613474Y-82000000D01*
X84593609Y-81747597D01*
X84590241Y-81733569D01*
X90842000Y-81733569D01*
X90845641Y-81742359D01*
X90854431Y-81746000D01*
X91933569Y-81746000D01*
X91942359Y-81742359D01*
X91946000Y-81733569D01*
X91946000Y-80654432D01*
X91942359Y-80645642D01*
X91933569Y-80642001D01*
X91303604Y-80642001D01*
X91300234Y-80642183D01*
X91243690Y-80648325D01*
X91236122Y-80650124D01*
X91107709Y-80698264D01*
X91099974Y-80702499D01*
X90990656Y-80784428D01*
X90984428Y-80790656D01*
X90902499Y-80899974D01*
X90898264Y-80907709D01*
X90850123Y-81036125D01*
X90848325Y-81043689D01*
X90842183Y-81100230D01*
X90842000Y-81103598D01*
X90842000Y-81733569D01*
X84590241Y-81733569D01*
X84534505Y-81501409D01*
X84509387Y-81440769D01*
X84438559Y-81269773D01*
X84438555Y-81269766D01*
X84437616Y-81267498D01*
X84433229Y-81260338D01*
X84306612Y-81053719D01*
X84306611Y-81053717D01*
X84305328Y-81051624D01*
X84300592Y-81046078D01*
X84142490Y-80860966D01*
X84140898Y-80859102D01*
X84078318Y-80805653D01*
X83950244Y-80696267D01*
X83950241Y-80696265D01*
X83948376Y-80694672D01*
X83946281Y-80693388D01*
X83734601Y-80563670D01*
X83734598Y-80563669D01*
X83732502Y-80562384D01*
X83730234Y-80561445D01*
X83730227Y-80561441D01*
X83500865Y-80466437D01*
X83500866Y-80466437D01*
X83498591Y-80465495D01*
X83252403Y-80406391D01*
X83000000Y-80386526D01*
X82747597Y-80406391D01*
X82501409Y-80465495D01*
X82499134Y-80466437D01*
X82499135Y-80466437D01*
X82269773Y-80561441D01*
X82269766Y-80561445D01*
X82267498Y-80562384D01*
X82265402Y-80563669D01*
X82265399Y-80563670D01*
X82053719Y-80693388D01*
X82051624Y-80694672D01*
X82049759Y-80696265D01*
X82049756Y-80696267D01*
X81921682Y-80805653D01*
X81859102Y-80859102D01*
X81857510Y-80860966D01*
X81699409Y-81046078D01*
X81694672Y-81051624D01*
X81693389Y-81053717D01*
X81693388Y-81053719D01*
X81566772Y-81260338D01*
X81562384Y-81267498D01*
X81561445Y-81269766D01*
X81561441Y-81269773D01*
X81490613Y-81440769D01*
X81465495Y-81501409D01*
X81406391Y-81747597D01*
X81386526Y-82000000D01*
X81406391Y-82252403D01*
X81465495Y-82498591D01*
X81523452Y-82638512D01*
X81523451Y-82686346D01*
X81489627Y-82720171D01*
X81441791Y-82720170D01*
X81416124Y-82700475D01*
X81322436Y-82578377D01*
X81319309Y-82573911D01*
X81111712Y-82248049D01*
X81108986Y-82243327D01*
X80930579Y-81900610D01*
X80928275Y-81895669D01*
X80780415Y-81538704D01*
X80778550Y-81533580D01*
X80769055Y-81503464D01*
X80662367Y-81165096D01*
X80660955Y-81159829D01*
X80577325Y-80782597D01*
X80576379Y-80777228D01*
X80547970Y-80561441D01*
X80525948Y-80394167D01*
X80525473Y-80388742D01*
X80525377Y-80386526D01*
X80513278Y-80109427D01*
X80510269Y-80040508D01*
X80511076Y-80027414D01*
X80513176Y-80014929D01*
X80513576Y-80012552D01*
X80513729Y-80000000D01*
X80509131Y-79967893D01*
X80508500Y-79959033D01*
X80508500Y-76136859D01*
X80674093Y-76136859D01*
X80695648Y-76226297D01*
X80697579Y-76231907D01*
X80780645Y-76414603D01*
X80783604Y-76419748D01*
X80899725Y-76583448D01*
X80903591Y-76587928D01*
X81048580Y-76726724D01*
X81053225Y-76730393D01*
X81221838Y-76839264D01*
X81227095Y-76841989D01*
X81413253Y-76917013D01*
X81418932Y-76918695D01*
X81616625Y-76957302D01*
X81621088Y-76957844D01*
X81623507Y-76957962D01*
X81625038Y-76958000D01*
X81783569Y-76958000D01*
X81792359Y-76954359D01*
X81796000Y-76945569D01*
X82304000Y-76945569D01*
X82307641Y-76954359D01*
X82316431Y-76958000D01*
X82425143Y-76958000D01*
X82428115Y-76957858D01*
X82577761Y-76943581D01*
X82583571Y-76942462D01*
X82776170Y-76885960D01*
X82781667Y-76883761D01*
X82960093Y-76791865D01*
X82965079Y-76788664D01*
X83122919Y-76664680D01*
X83127203Y-76660601D01*
X83258745Y-76509011D01*
X83262190Y-76504182D01*
X83362691Y-76330460D01*
X83365159Y-76325071D01*
X83429983Y-76138396D01*
X83428379Y-76132081D01*
X83423200Y-76129000D01*
X82316431Y-76129000D01*
X82307641Y-76132641D01*
X82304000Y-76141431D01*
X82304000Y-76945569D01*
X81796000Y-76945569D01*
X81796000Y-76141431D01*
X81792359Y-76132641D01*
X81783569Y-76129000D01*
X80684630Y-76129000D01*
X80675840Y-76132641D01*
X80674093Y-76136859D01*
X80508500Y-76136859D01*
X80508500Y-75987011D01*
X84365490Y-75987011D01*
X84427967Y-76190096D01*
X84430064Y-76195235D01*
X84528465Y-76385882D01*
X84531423Y-76390544D01*
X84662033Y-76560758D01*
X84665782Y-76564835D01*
X84824457Y-76709217D01*
X84828873Y-76712569D01*
X85010616Y-76826577D01*
X85015541Y-76829087D01*
X85214600Y-76909108D01*
X85219914Y-76910711D01*
X85430462Y-76954315D01*
X85435001Y-76954912D01*
X85487647Y-76957947D01*
X85489464Y-76958000D01*
X85583569Y-76958000D01*
X85592359Y-76954359D01*
X85596000Y-76945569D01*
X86104000Y-76945569D01*
X86107641Y-76954359D01*
X86116431Y-76958000D01*
X86179462Y-76958000D01*
X86182214Y-76957878D01*
X86341460Y-76943665D01*
X86346910Y-76942684D01*
X86553842Y-76886074D01*
X86559038Y-76884142D01*
X86752675Y-76791782D01*
X86757446Y-76788960D01*
X86931665Y-76663771D01*
X86935857Y-76660154D01*
X87085160Y-76506085D01*
X87088645Y-76501781D01*
X87208302Y-76323712D01*
X87210972Y-76318856D01*
X87297204Y-76122413D01*
X87298972Y-76117161D01*
X87329238Y-75991090D01*
X87327750Y-75981691D01*
X87324047Y-75979000D01*
X86116431Y-75979000D01*
X86107641Y-75982641D01*
X86104000Y-75991431D01*
X86104000Y-76945569D01*
X85596000Y-76945569D01*
X85596000Y-75991431D01*
X85592359Y-75982641D01*
X85583569Y-75979000D01*
X84376090Y-75979000D01*
X84367300Y-75982641D01*
X84365490Y-75987011D01*
X80508500Y-75987011D01*
X80508500Y-75611604D01*
X80670017Y-75611604D01*
X80671621Y-75617919D01*
X80676800Y-75621000D01*
X81783569Y-75621000D01*
X81792359Y-75617359D01*
X81796000Y-75608569D01*
X82304000Y-75608569D01*
X82307641Y-75617359D01*
X82316431Y-75621000D01*
X83415370Y-75621000D01*
X83424160Y-75617359D01*
X83425907Y-75613141D01*
X83404352Y-75523703D01*
X83402421Y-75518093D01*
X83319355Y-75335397D01*
X83316396Y-75330252D01*
X83200275Y-75166552D01*
X83196409Y-75162072D01*
X83051420Y-75023276D01*
X83046775Y-75019607D01*
X82878162Y-74910736D01*
X82872905Y-74908011D01*
X82686747Y-74832987D01*
X82681068Y-74831305D01*
X82483375Y-74792698D01*
X82478912Y-74792156D01*
X82476493Y-74792038D01*
X82474962Y-74792000D01*
X82316431Y-74792000D01*
X82307641Y-74795641D01*
X82304000Y-74804431D01*
X82304000Y-75608569D01*
X81796000Y-75608569D01*
X81796000Y-74804431D01*
X81792359Y-74795641D01*
X81783569Y-74792000D01*
X81674857Y-74792000D01*
X81671885Y-74792142D01*
X81522239Y-74806419D01*
X81516429Y-74807538D01*
X81323830Y-74864040D01*
X81318333Y-74866239D01*
X81139907Y-74958135D01*
X81134921Y-74961336D01*
X80977081Y-75085320D01*
X80972797Y-75089399D01*
X80841255Y-75240989D01*
X80837810Y-75245818D01*
X80737309Y-75419540D01*
X80734841Y-75424929D01*
X80670017Y-75611604D01*
X80508500Y-75611604D01*
X80508500Y-74500000D01*
X83886496Y-74500000D01*
X83906458Y-74689928D01*
X83907470Y-74693042D01*
X83907470Y-74693043D01*
X83916450Y-74720679D01*
X83965473Y-74871556D01*
X84060960Y-75036944D01*
X84063149Y-75039375D01*
X84178084Y-75167023D01*
X84188747Y-75178866D01*
X84343248Y-75291118D01*
X84346240Y-75292450D01*
X84346245Y-75292453D01*
X84357012Y-75297247D01*
X84389939Y-75331946D01*
X84392363Y-75368933D01*
X84370762Y-75458910D01*
X84372250Y-75468309D01*
X84375953Y-75471000D01*
X85583569Y-75471000D01*
X85592359Y-75467359D01*
X85596000Y-75458569D01*
X86104000Y-75458569D01*
X86107641Y-75467359D01*
X86116431Y-75471000D01*
X87323910Y-75471000D01*
X87332700Y-75467359D01*
X87334510Y-75462989D01*
X87272033Y-75259904D01*
X87269936Y-75254765D01*
X87171535Y-75064118D01*
X87168577Y-75059456D01*
X87037967Y-74889242D01*
X87034218Y-74885165D01*
X86875543Y-74740783D01*
X86871127Y-74737431D01*
X86689384Y-74623423D01*
X86684459Y-74620913D01*
X86485400Y-74540892D01*
X86480086Y-74539289D01*
X86269538Y-74495685D01*
X86264999Y-74495088D01*
X86212353Y-74492053D01*
X86210535Y-74492000D01*
X86116431Y-74492000D01*
X86107641Y-74495641D01*
X86104000Y-74504431D01*
X86104000Y-75458569D01*
X85596000Y-75458569D01*
X85596000Y-74955034D01*
X85604373Y-74923784D01*
X85632891Y-74874390D01*
X85632892Y-74874388D01*
X85634527Y-74871556D01*
X85683550Y-74720679D01*
X85692530Y-74693043D01*
X85692530Y-74693042D01*
X85693542Y-74689928D01*
X85713504Y-74500000D01*
X85693542Y-74310072D01*
X85667100Y-74228692D01*
X85635539Y-74131557D01*
X85635537Y-74131553D01*
X85634527Y-74128444D01*
X85631101Y-74122510D01*
X85624859Y-74075085D01*
X85653981Y-74037135D01*
X85661311Y-74033521D01*
X85671359Y-74029359D01*
X85675000Y-74020569D01*
X85675000Y-74020568D01*
X86125000Y-74020568D01*
X86128641Y-74029358D01*
X86137431Y-74032999D01*
X86596396Y-74032999D01*
X86599766Y-74032817D01*
X86656310Y-74026675D01*
X86663878Y-74024876D01*
X86792291Y-73976736D01*
X86800026Y-73972501D01*
X86909344Y-73890572D01*
X86915572Y-73884344D01*
X86997501Y-73775026D01*
X87001736Y-73767291D01*
X87049877Y-73638875D01*
X87051675Y-73631311D01*
X87057817Y-73574770D01*
X87058000Y-73571402D01*
X87058000Y-73537431D01*
X87054359Y-73528641D01*
X87045569Y-73525000D01*
X86137431Y-73525000D01*
X86128641Y-73528641D01*
X86125000Y-73537431D01*
X86125000Y-74020568D01*
X85675000Y-74020568D01*
X85675000Y-73537431D01*
X85671359Y-73528641D01*
X85662569Y-73525000D01*
X84754432Y-73525000D01*
X84745642Y-73528641D01*
X84737243Y-73548918D01*
X84735648Y-73548257D01*
X84723695Y-73577114D01*
X84692496Y-73594054D01*
X84520920Y-73630524D01*
X84520919Y-73630524D01*
X84517712Y-73631206D01*
X84343248Y-73708882D01*
X84188747Y-73821134D01*
X84186558Y-73823565D01*
X84186557Y-73823566D01*
X84126225Y-73890572D01*
X84060960Y-73963056D01*
X83965473Y-74128444D01*
X83906458Y-74310072D01*
X83886496Y-74500000D01*
X80508500Y-74500000D01*
X80508500Y-68386859D01*
X80674093Y-68386859D01*
X80695648Y-68476297D01*
X80697579Y-68481907D01*
X80780645Y-68664603D01*
X80783604Y-68669748D01*
X80899725Y-68833448D01*
X80903591Y-68837928D01*
X81048580Y-68976724D01*
X81053225Y-68980393D01*
X81221838Y-69089264D01*
X81227095Y-69091989D01*
X81413253Y-69167013D01*
X81418932Y-69168695D01*
X81616625Y-69207302D01*
X81621088Y-69207844D01*
X81623507Y-69207962D01*
X81625038Y-69208000D01*
X81783569Y-69208000D01*
X81792359Y-69204359D01*
X81796000Y-69195569D01*
X82304000Y-69195569D01*
X82307641Y-69204359D01*
X82316431Y-69208000D01*
X82425143Y-69208000D01*
X82428115Y-69207858D01*
X82577761Y-69193581D01*
X82583571Y-69192462D01*
X82776170Y-69135960D01*
X82781667Y-69133761D01*
X82960093Y-69041865D01*
X82965079Y-69038664D01*
X83122919Y-68914680D01*
X83127203Y-68910601D01*
X83258745Y-68759011D01*
X83262190Y-68754182D01*
X83362691Y-68580460D01*
X83365159Y-68575071D01*
X83429983Y-68388396D01*
X83428379Y-68382081D01*
X83423200Y-68379000D01*
X82316431Y-68379000D01*
X82307641Y-68382641D01*
X82304000Y-68391431D01*
X82304000Y-69195569D01*
X81796000Y-69195569D01*
X81796000Y-68391431D01*
X81792359Y-68382641D01*
X81783569Y-68379000D01*
X80684630Y-68379000D01*
X80675840Y-68382641D01*
X80674093Y-68386859D01*
X80508500Y-68386859D01*
X80508500Y-68008910D01*
X84370762Y-68008910D01*
X84372250Y-68018309D01*
X84375953Y-68021000D01*
X85583569Y-68021000D01*
X85592359Y-68017359D01*
X85596000Y-68008569D01*
X86104000Y-68008569D01*
X86107641Y-68017359D01*
X86116431Y-68021000D01*
X87323910Y-68021000D01*
X87332700Y-68017359D01*
X87334510Y-68012989D01*
X87272033Y-67809904D01*
X87269936Y-67804765D01*
X87171535Y-67614118D01*
X87168577Y-67609456D01*
X87037967Y-67439242D01*
X87034218Y-67435165D01*
X86875543Y-67290783D01*
X86871127Y-67287431D01*
X86689384Y-67173423D01*
X86684459Y-67170913D01*
X86485400Y-67090892D01*
X86480086Y-67089289D01*
X86269538Y-67045685D01*
X86264999Y-67045088D01*
X86212353Y-67042053D01*
X86210535Y-67042000D01*
X86116431Y-67042000D01*
X86107641Y-67045641D01*
X86104000Y-67054431D01*
X86104000Y-68008569D01*
X85596000Y-68008569D01*
X85596000Y-67054431D01*
X85592359Y-67045641D01*
X85583569Y-67042000D01*
X85520538Y-67042000D01*
X85517786Y-67042122D01*
X85358540Y-67056335D01*
X85353090Y-67057316D01*
X85146158Y-67113926D01*
X85140962Y-67115858D01*
X84947325Y-67208218D01*
X84942554Y-67211040D01*
X84768335Y-67336229D01*
X84764143Y-67339846D01*
X84614840Y-67493915D01*
X84611355Y-67498219D01*
X84491698Y-67676288D01*
X84489028Y-67681144D01*
X84402796Y-67877587D01*
X84401028Y-67882839D01*
X84370762Y-68008910D01*
X80508500Y-68008910D01*
X80508500Y-67861604D01*
X80670017Y-67861604D01*
X80671621Y-67867919D01*
X80676800Y-67871000D01*
X81783569Y-67871000D01*
X81792359Y-67867359D01*
X81796000Y-67858569D01*
X82304000Y-67858569D01*
X82307641Y-67867359D01*
X82316431Y-67871000D01*
X83415370Y-67871000D01*
X83424160Y-67867359D01*
X83425907Y-67863141D01*
X83404352Y-67773703D01*
X83402421Y-67768093D01*
X83319355Y-67585397D01*
X83316396Y-67580252D01*
X83200275Y-67416552D01*
X83196409Y-67412072D01*
X83051420Y-67273276D01*
X83046775Y-67269607D01*
X82878162Y-67160736D01*
X82872905Y-67158011D01*
X82686747Y-67082987D01*
X82681068Y-67081305D01*
X82483375Y-67042698D01*
X82478912Y-67042156D01*
X82476493Y-67042038D01*
X82474962Y-67042000D01*
X82316431Y-67042000D01*
X82307641Y-67045641D01*
X82304000Y-67054431D01*
X82304000Y-67858569D01*
X81796000Y-67858569D01*
X81796000Y-67054431D01*
X81792359Y-67045641D01*
X81783569Y-67042000D01*
X81674857Y-67042000D01*
X81671885Y-67042142D01*
X81522239Y-67056419D01*
X81516429Y-67057538D01*
X81323830Y-67114040D01*
X81318333Y-67116239D01*
X81139907Y-67208135D01*
X81134921Y-67211336D01*
X80977081Y-67335320D01*
X80972797Y-67339399D01*
X80841255Y-67490989D01*
X80837810Y-67495818D01*
X80737309Y-67669540D01*
X80734841Y-67674929D01*
X80670017Y-67861604D01*
X80508500Y-67861604D01*
X80508500Y-65047945D01*
X80509366Y-65037576D01*
X80511461Y-65025123D01*
X80513576Y-65012552D01*
X80513729Y-65000000D01*
X80512955Y-64994590D01*
X80510548Y-64977785D01*
X80509976Y-64966200D01*
X80511241Y-64937234D01*
X80512749Y-64902694D01*
X99220000Y-64902694D01*
X99220166Y-64905907D01*
X99230253Y-65003116D01*
X99231687Y-65009756D01*
X99283551Y-65165212D01*
X99286610Y-65171744D01*
X99372731Y-65310913D01*
X99377210Y-65316564D01*
X99493039Y-65432191D01*
X99498702Y-65436664D01*
X99638021Y-65522540D01*
X99644559Y-65525589D01*
X99800108Y-65577183D01*
X99806736Y-65578604D01*
X99902711Y-65588438D01*
X99905893Y-65588600D01*
X99936569Y-65588600D01*
X99945359Y-65584959D01*
X99949000Y-65576169D01*
X99949000Y-64897031D01*
X99945359Y-64888241D01*
X99936569Y-64884600D01*
X99232431Y-64884600D01*
X99223641Y-64888241D01*
X99220000Y-64897031D01*
X99220000Y-64902694D01*
X80512749Y-64902694D01*
X80525474Y-64611251D01*
X80525949Y-64605826D01*
X80527558Y-64593609D01*
X80565720Y-64303733D01*
X80576379Y-64222772D01*
X80577325Y-64217403D01*
X80660955Y-63840171D01*
X80662367Y-63834904D01*
X80748457Y-63561862D01*
X80778552Y-63466414D01*
X80780415Y-63461296D01*
X80787106Y-63445144D01*
X80861131Y-63266431D01*
X80928275Y-63104331D01*
X80930579Y-63099390D01*
X81108986Y-62756673D01*
X81111712Y-62751951D01*
X81319309Y-62426089D01*
X81322436Y-62421623D01*
X81416124Y-62299525D01*
X81457551Y-62275607D01*
X81503756Y-62287987D01*
X81527674Y-62329414D01*
X81523452Y-62361487D01*
X81465495Y-62501409D01*
X81406391Y-62747597D01*
X81386526Y-63000000D01*
X81406391Y-63252403D01*
X81465495Y-63498591D01*
X81490392Y-63558698D01*
X81561441Y-63730227D01*
X81561445Y-63730234D01*
X81562384Y-63732502D01*
X81563669Y-63734598D01*
X81563670Y-63734601D01*
X81693388Y-63946281D01*
X81694672Y-63948376D01*
X81696265Y-63950241D01*
X81696267Y-63950244D01*
X81811489Y-64085151D01*
X81859102Y-64140898D01*
X81860966Y-64142490D01*
X82049756Y-64303733D01*
X82049759Y-64303735D01*
X82051624Y-64305328D01*
X82053717Y-64306611D01*
X82053719Y-64306612D01*
X82260514Y-64433336D01*
X82267498Y-64437616D01*
X82269766Y-64438555D01*
X82269773Y-64438559D01*
X82461297Y-64517890D01*
X82501409Y-64534505D01*
X82747597Y-64593609D01*
X83000000Y-64613474D01*
X83252403Y-64593609D01*
X83498591Y-64534505D01*
X83538703Y-64517890D01*
X83730227Y-64438559D01*
X83730234Y-64438555D01*
X83732502Y-64437616D01*
X83739487Y-64433336D01*
X83946281Y-64306612D01*
X83946283Y-64306611D01*
X83948376Y-64305328D01*
X83950241Y-64303735D01*
X83950244Y-64303733D01*
X84139034Y-64142490D01*
X84140898Y-64140898D01*
X84188511Y-64085151D01*
X84303733Y-63950244D01*
X84303735Y-63950241D01*
X84305328Y-63948376D01*
X84306612Y-63946281D01*
X84398462Y-63796396D01*
X88842001Y-63796396D01*
X88842183Y-63799766D01*
X88848325Y-63856310D01*
X88850124Y-63863878D01*
X88898264Y-63992291D01*
X88902499Y-64000026D01*
X88984428Y-64109344D01*
X88990656Y-64115572D01*
X89099974Y-64197501D01*
X89107709Y-64201736D01*
X89236125Y-64249877D01*
X89243689Y-64251675D01*
X89300230Y-64257817D01*
X89303598Y-64258000D01*
X89833569Y-64258000D01*
X89842359Y-64254359D01*
X89846000Y-64245569D01*
X89846000Y-64245568D01*
X90354000Y-64245568D01*
X90357641Y-64254358D01*
X90366431Y-64257999D01*
X90896396Y-64257999D01*
X90899766Y-64257817D01*
X90956310Y-64251675D01*
X90963878Y-64249876D01*
X91092291Y-64201736D01*
X91100026Y-64197501D01*
X91209344Y-64115572D01*
X91215572Y-64109344D01*
X91297501Y-64000026D01*
X91301736Y-63992291D01*
X91349877Y-63863875D01*
X91351675Y-63856311D01*
X91357817Y-63799770D01*
X91358000Y-63796402D01*
X91358000Y-63266431D01*
X91354359Y-63257641D01*
X91345569Y-63254000D01*
X90366431Y-63254000D01*
X90357641Y-63257641D01*
X90354000Y-63266431D01*
X90354000Y-64245568D01*
X89846000Y-64245568D01*
X89846000Y-63266431D01*
X89842359Y-63257641D01*
X89833569Y-63254000D01*
X88854432Y-63254000D01*
X88845642Y-63257641D01*
X88842001Y-63266431D01*
X88842001Y-63796396D01*
X84398462Y-63796396D01*
X84436330Y-63734601D01*
X84436331Y-63734598D01*
X84437616Y-63732502D01*
X84438555Y-63730234D01*
X84438559Y-63730227D01*
X84509608Y-63558698D01*
X84534505Y-63498591D01*
X84593609Y-63252403D01*
X84613474Y-63000000D01*
X84593609Y-62747597D01*
X84590241Y-62733569D01*
X88842000Y-62733569D01*
X88845641Y-62742359D01*
X88854431Y-62746000D01*
X89833569Y-62746000D01*
X89842359Y-62742359D01*
X89846000Y-62733569D01*
X90354000Y-62733569D01*
X90357641Y-62742359D01*
X90366431Y-62746000D01*
X91345568Y-62746000D01*
X91354358Y-62742359D01*
X91357999Y-62733569D01*
X91357999Y-62203604D01*
X91357817Y-62200234D01*
X91351675Y-62143690D01*
X91349876Y-62136122D01*
X91301736Y-62007709D01*
X91297501Y-61999974D01*
X91215572Y-61890656D01*
X91209344Y-61884428D01*
X91100026Y-61802499D01*
X91092291Y-61798264D01*
X90963875Y-61750123D01*
X90956311Y-61748325D01*
X90899770Y-61742183D01*
X90896402Y-61742000D01*
X90366431Y-61742000D01*
X90357641Y-61745641D01*
X90354000Y-61754431D01*
X90354000Y-62733569D01*
X89846000Y-62733569D01*
X89846000Y-61754432D01*
X89842359Y-61745642D01*
X89833569Y-61742001D01*
X89303604Y-61742001D01*
X89300234Y-61742183D01*
X89243690Y-61748325D01*
X89236122Y-61750124D01*
X89107709Y-61798264D01*
X89099974Y-61802499D01*
X88990656Y-61884428D01*
X88984428Y-61890656D01*
X88902499Y-61999974D01*
X88898264Y-62007709D01*
X88850123Y-62136125D01*
X88848325Y-62143689D01*
X88842183Y-62200230D01*
X88842000Y-62203598D01*
X88842000Y-62733569D01*
X84590241Y-62733569D01*
X84534505Y-62501409D01*
X84517593Y-62460579D01*
X84438559Y-62269773D01*
X84438555Y-62269766D01*
X84437616Y-62267498D01*
X84430203Y-62255400D01*
X84306612Y-62053719D01*
X84306611Y-62053717D01*
X84305328Y-62051624D01*
X84300558Y-62046038D01*
X84142490Y-61860966D01*
X84140898Y-61859102D01*
X84069666Y-61798264D01*
X83950244Y-61696267D01*
X83950241Y-61696265D01*
X83948376Y-61694672D01*
X83939946Y-61689506D01*
X83734601Y-61563670D01*
X83734598Y-61563669D01*
X83732502Y-61562384D01*
X83730234Y-61561445D01*
X83730227Y-61561441D01*
X83500865Y-61466437D01*
X83500866Y-61466437D01*
X83498591Y-61465495D01*
X83252403Y-61406391D01*
X83000000Y-61386526D01*
X82747597Y-61406391D01*
X82501409Y-61465495D01*
X82361488Y-61523452D01*
X82313654Y-61523451D01*
X82279829Y-61489627D01*
X82279830Y-61441791D01*
X82299525Y-61416124D01*
X82421623Y-61322436D01*
X82426089Y-61319309D01*
X82751951Y-61111712D01*
X82756673Y-61108986D01*
X83099390Y-60930579D01*
X83104331Y-60928275D01*
X83282814Y-60854345D01*
X83461301Y-60780413D01*
X83466414Y-60778552D01*
X83834903Y-60662367D01*
X83840171Y-60660955D01*
X84217403Y-60577325D01*
X84222772Y-60576379D01*
X84360788Y-60558209D01*
X84605833Y-60525948D01*
X84611251Y-60525474D01*
X84825633Y-60516113D01*
X84962859Y-60510122D01*
X84975200Y-60510807D01*
X84981003Y-60511710D01*
X84993724Y-60513691D01*
X84998137Y-60513114D01*
X84998138Y-60513114D01*
X85029383Y-60509028D01*
X85037487Y-60508500D01*
X111399820Y-60508500D01*
X111444014Y-60526806D01*
G37*
%TD.AperFunction*%
%TA.AperFunction,Conductor*%
G36*
X129749599Y-74420606D02*
G01*
X133967794Y-78638801D01*
X133986100Y-78682995D01*
X133986100Y-80697200D01*
X133967794Y-80741394D01*
X133923600Y-80759700D01*
X133086866Y-80759700D01*
X133024684Y-80766455D01*
X133021017Y-80767830D01*
X133021016Y-80767830D01*
X132892466Y-80816021D01*
X132892464Y-80816022D01*
X132888295Y-80817585D01*
X132884731Y-80820256D01*
X132847646Y-80848050D01*
X132771739Y-80904939D01*
X132684385Y-81021495D01*
X132682822Y-81025664D01*
X132682821Y-81025666D01*
X132642893Y-81132174D01*
X132633255Y-81157884D01*
X132626500Y-81220066D01*
X132626500Y-83016334D01*
X132633255Y-83078516D01*
X132641932Y-83101662D01*
X132640305Y-83149468D01*
X132605349Y-83182123D01*
X132583409Y-83186100D01*
X131272545Y-83186100D01*
X131228351Y-83167794D01*
X131210045Y-83123600D01*
X131214801Y-83099686D01*
X131250438Y-83013651D01*
X131251818Y-83003173D01*
X131254958Y-82979319D01*
X131266100Y-82894685D01*
X131266100Y-82894680D01*
X131270815Y-82858864D01*
X131271350Y-82854800D01*
X131266635Y-82818984D01*
X131266100Y-82810827D01*
X131266100Y-81400173D01*
X131266635Y-81392016D01*
X131270815Y-81360264D01*
X131271350Y-81356200D01*
X131266100Y-81316320D01*
X131266100Y-81316315D01*
X131263835Y-81299114D01*
X131251241Y-81203449D01*
X131250438Y-81197350D01*
X131250438Y-81197349D01*
X131189124Y-81049324D01*
X131116078Y-80954129D01*
X131116072Y-80954121D01*
X131094082Y-80925463D01*
X131094077Y-80925458D01*
X131091587Y-80922213D01*
X131088342Y-80919723D01*
X131088339Y-80919720D01*
X131062923Y-80900218D01*
X131056777Y-80894828D01*
X127181975Y-77020026D01*
X127176584Y-77013880D01*
X127157077Y-76988458D01*
X127154587Y-76985213D01*
X127122675Y-76960726D01*
X127122675Y-76960725D01*
X127122672Y-76960723D01*
X127065708Y-76917013D01*
X127027476Y-76887676D01*
X127023690Y-76886108D01*
X127023687Y-76886106D01*
X126910599Y-76839264D01*
X126879451Y-76826362D01*
X126875385Y-76825827D01*
X126875382Y-76825826D01*
X126860057Y-76823809D01*
X126760495Y-76810701D01*
X126760475Y-76810699D01*
X126724664Y-76805985D01*
X126720600Y-76805450D01*
X126716536Y-76805985D01*
X126684784Y-76810165D01*
X126676627Y-76810700D01*
X126637922Y-76810700D01*
X126593728Y-76792394D01*
X126578637Y-76767985D01*
X126529350Y-76620254D01*
X126436278Y-76469852D01*
X126311103Y-76344895D01*
X126308013Y-76342990D01*
X126308010Y-76342988D01*
X126226004Y-76292439D01*
X126197989Y-76253666D01*
X126196300Y-76239235D01*
X126196300Y-76099373D01*
X126196835Y-76091216D01*
X126201015Y-76059464D01*
X126201550Y-76055400D01*
X126196300Y-76015520D01*
X126196300Y-76015515D01*
X126190183Y-75969052D01*
X126202522Y-75923001D01*
X126203355Y-75922289D01*
X126303424Y-75783030D01*
X126367385Y-75623920D01*
X126383819Y-75508449D01*
X126391259Y-75456172D01*
X126391259Y-75456169D01*
X126391547Y-75454147D01*
X126391704Y-75439200D01*
X126391459Y-75437179D01*
X126391459Y-75437171D01*
X126375346Y-75304030D01*
X126371102Y-75268958D01*
X126369573Y-75264910D01*
X126330713Y-75162072D01*
X126310487Y-75108544D01*
X126308355Y-75105442D01*
X126308353Y-75105438D01*
X126297492Y-75089635D01*
X126286500Y-75054235D01*
X126286500Y-74652276D01*
X126287035Y-74644119D01*
X126291215Y-74612367D01*
X126291750Y-74608303D01*
X126286500Y-74568423D01*
X126286500Y-74568418D01*
X126282201Y-74535761D01*
X126279199Y-74512957D01*
X126291580Y-74466752D01*
X126333007Y-74442835D01*
X126341164Y-74442300D01*
X126940374Y-74442300D01*
X126942246Y-74442074D01*
X126942254Y-74442073D01*
X127021143Y-74432526D01*
X127021146Y-74432525D01*
X127025131Y-74432043D01*
X127089170Y-74406689D01*
X127112176Y-74402300D01*
X129705405Y-74402300D01*
X129749599Y-74420606D01*
G37*
%TD.AperFunction*%
%TA.AperFunction,Conductor*%
G36*
X104128193Y-80814606D02*
G01*
X104146499Y-80858800D01*
X104137203Y-80891595D01*
X104104047Y-80945385D01*
X104101000Y-80951919D01*
X104047570Y-81113004D01*
X104046149Y-81119632D01*
X104035962Y-81219052D01*
X104035800Y-81222234D01*
X104035800Y-81729569D01*
X104039441Y-81738359D01*
X104048231Y-81742000D01*
X105585300Y-81742000D01*
X105629494Y-81760306D01*
X105647800Y-81804500D01*
X105647800Y-82187500D01*
X105629494Y-82231694D01*
X105585300Y-82250000D01*
X104048232Y-82250000D01*
X104039442Y-82253641D01*
X104035801Y-82262431D01*
X104035801Y-82691800D01*
X104017495Y-82735994D01*
X103973301Y-82754300D01*
X101063249Y-82754300D01*
X101019055Y-82735994D01*
X101000749Y-82691800D01*
X101007219Y-82664108D01*
X101017499Y-82643308D01*
X101053491Y-82611799D01*
X101073529Y-82608500D01*
X101750427Y-82608500D01*
X101758584Y-82609035D01*
X101794400Y-82613750D01*
X101798464Y-82613215D01*
X101834274Y-82608501D01*
X101834284Y-82608500D01*
X101834285Y-82608500D01*
X101933857Y-82595391D01*
X101949189Y-82593373D01*
X101949191Y-82593372D01*
X101953251Y-82592838D01*
X101957036Y-82591270D01*
X101957037Y-82591270D01*
X102097487Y-82533094D01*
X102097490Y-82533092D01*
X102101276Y-82531524D01*
X102196472Y-82458477D01*
X102196475Y-82458475D01*
X102196475Y-82458474D01*
X102225141Y-82436478D01*
X102225142Y-82436477D01*
X102228387Y-82433987D01*
X102230877Y-82430742D01*
X102230880Y-82430739D01*
X102250383Y-82405322D01*
X102255773Y-82399176D01*
X103840343Y-80814606D01*
X103884537Y-80796300D01*
X104083999Y-80796300D01*
X104128193Y-80814606D01*
G37*
%TD.AperFunction*%
%TA.AperFunction,Conductor*%
G36*
X114257861Y-70481065D02*
G01*
X114281778Y-70522492D01*
X114269398Y-70568698D01*
X114264007Y-70574844D01*
X113181123Y-71657728D01*
X113108076Y-71752924D01*
X113106508Y-71756710D01*
X113106506Y-71756713D01*
X113104202Y-71762276D01*
X113046762Y-71900949D01*
X113046227Y-71905016D01*
X113046226Y-71905018D01*
X113027561Y-72046800D01*
X113025850Y-72059800D01*
X113026385Y-72063864D01*
X113042198Y-72183978D01*
X113046762Y-72218650D01*
X113048328Y-72222432D01*
X113048329Y-72222434D01*
X113049142Y-72224396D01*
X113053900Y-72248315D01*
X113053900Y-80109427D01*
X113053365Y-80117584D01*
X113048650Y-80153400D01*
X113049185Y-80157464D01*
X113053900Y-80193280D01*
X113053900Y-80193285D01*
X113063483Y-80266075D01*
X113069027Y-80308191D01*
X113069028Y-80308195D01*
X113069562Y-80312251D01*
X113071129Y-80316034D01*
X113071130Y-80316038D01*
X113083542Y-80346004D01*
X113088300Y-80369922D01*
X113088300Y-80455038D01*
X113069994Y-80499232D01*
X113025800Y-80517538D01*
X113017588Y-80516996D01*
X113005863Y-80515442D01*
X112958026Y-80509102D01*
X112955382Y-80509201D01*
X112955376Y-80509201D01*
X112896246Y-80511421D01*
X112849708Y-80493159D01*
X112145175Y-79788626D01*
X112139784Y-79782480D01*
X112120277Y-79757058D01*
X112117787Y-79753813D01*
X112085875Y-79729326D01*
X112085875Y-79729325D01*
X112085872Y-79729323D01*
X111998266Y-79662100D01*
X111990676Y-79656276D01*
X111986890Y-79654708D01*
X111986887Y-79654706D01*
X111896502Y-79617268D01*
X111842651Y-79594962D01*
X111838585Y-79594427D01*
X111838582Y-79594426D01*
X111823257Y-79592409D01*
X111723695Y-79579301D01*
X111723675Y-79579299D01*
X111687864Y-79574585D01*
X111683800Y-79574050D01*
X111679736Y-79574585D01*
X111647984Y-79578765D01*
X111639827Y-79579300D01*
X103650573Y-79579300D01*
X103642416Y-79578765D01*
X103610664Y-79574585D01*
X103606600Y-79574050D01*
X103602536Y-79574585D01*
X103566726Y-79579299D01*
X103566717Y-79579300D01*
X103566715Y-79579300D01*
X103566709Y-79579301D01*
X103566707Y-79579301D01*
X103467143Y-79592409D01*
X103451811Y-79594427D01*
X103451809Y-79594428D01*
X103447749Y-79594962D01*
X103443964Y-79596530D01*
X103443963Y-79596530D01*
X103443956Y-79596533D01*
X103299724Y-79656276D01*
X103292134Y-79662100D01*
X103204529Y-79729322D01*
X103204521Y-79729328D01*
X103175863Y-79751318D01*
X103175858Y-79751323D01*
X103172613Y-79753813D01*
X103170123Y-79757058D01*
X103170120Y-79757061D01*
X103150618Y-79782477D01*
X103145228Y-79788623D01*
X101560657Y-81373194D01*
X101516463Y-81391500D01*
X101077641Y-81391500D01*
X101033447Y-81373194D01*
X101022559Y-81358533D01*
X101022379Y-81358197D01*
X101021354Y-81355840D01*
X100900014Y-81168277D01*
X100749670Y-81003051D01*
X100747659Y-81001463D01*
X100747656Y-81001460D01*
X100576376Y-80866191D01*
X100574359Y-80864598D01*
X100378789Y-80756638D01*
X100168212Y-80682069D01*
X100165689Y-80681620D01*
X100165683Y-80681618D01*
X100013058Y-80654432D01*
X99948284Y-80642894D01*
X99825395Y-80641393D01*
X99727479Y-80640196D01*
X99727474Y-80640196D01*
X99724911Y-80640165D01*
X99722376Y-80640553D01*
X99722375Y-80640553D01*
X99711723Y-80642183D01*
X99504091Y-80673955D01*
X99501651Y-80674753D01*
X99501649Y-80674753D01*
X99294200Y-80742558D01*
X99294198Y-80742559D01*
X99291756Y-80743357D01*
X99289479Y-80744542D01*
X99289475Y-80744544D01*
X99095886Y-80845320D01*
X99095880Y-80845324D01*
X99093607Y-80846507D01*
X98914965Y-80980635D01*
X98913196Y-80982487D01*
X98913194Y-80982488D01*
X98861937Y-81036125D01*
X98760629Y-81142138D01*
X98759183Y-81144258D01*
X98759182Y-81144259D01*
X98641814Y-81316315D01*
X98634743Y-81326680D01*
X98608196Y-81383872D01*
X98607549Y-81385265D01*
X98572338Y-81417643D01*
X98524544Y-81415640D01*
X98493543Y-81383872D01*
X98482380Y-81358198D01*
X98482376Y-81358191D01*
X98481354Y-81355840D01*
X98360014Y-81168277D01*
X98209670Y-81003051D01*
X98207659Y-81001463D01*
X98207656Y-81001460D01*
X98036376Y-80866191D01*
X98034359Y-80864598D01*
X97838789Y-80756638D01*
X97628212Y-80682069D01*
X97625689Y-80681620D01*
X97625683Y-80681618D01*
X97473058Y-80654432D01*
X97408284Y-80642894D01*
X97285395Y-80641393D01*
X97187479Y-80640196D01*
X97187474Y-80640196D01*
X97184911Y-80640165D01*
X97182376Y-80640553D01*
X97182375Y-80640553D01*
X97171723Y-80642183D01*
X96964091Y-80673955D01*
X96961651Y-80674753D01*
X96961649Y-80674753D01*
X96754200Y-80742558D01*
X96754198Y-80742559D01*
X96751756Y-80743357D01*
X96749479Y-80744542D01*
X96749475Y-80744544D01*
X96555886Y-80845320D01*
X96555880Y-80845324D01*
X96553607Y-80846507D01*
X96374965Y-80980635D01*
X96373196Y-80982487D01*
X96373194Y-80982488D01*
X96321937Y-81036125D01*
X96220629Y-81142138D01*
X96219183Y-81144258D01*
X96219182Y-81144259D01*
X96101814Y-81316315D01*
X96094743Y-81326680D01*
X96093660Y-81329012D01*
X96093660Y-81329013D01*
X96086652Y-81344111D01*
X96070041Y-81379897D01*
X96067690Y-81384961D01*
X96032479Y-81417339D01*
X95984685Y-81415336D01*
X95952307Y-81380125D01*
X95948500Y-81358646D01*
X95948500Y-80614665D01*
X95966806Y-80570471D01*
X96468871Y-80068406D01*
X96513065Y-80050100D01*
X98595078Y-80050100D01*
X98603236Y-80050635D01*
X98625428Y-80053557D01*
X98625433Y-80053557D01*
X98628189Y-80053920D01*
X98630967Y-80053789D01*
X98707729Y-80050169D01*
X98710673Y-80050100D01*
X98733735Y-80050100D01*
X98735098Y-80049978D01*
X98735106Y-80049978D01*
X98748856Y-80048751D01*
X98759943Y-80047761D01*
X98762529Y-80047585D01*
X98843675Y-80043758D01*
X98864347Y-80039023D01*
X98872739Y-80037694D01*
X98891105Y-80036055D01*
X98891106Y-80036055D01*
X98893872Y-80035808D01*
X98896548Y-80035076D01*
X98896553Y-80035075D01*
X98953382Y-80019528D01*
X98972229Y-80014372D01*
X98974755Y-80013738D01*
X99045163Y-79997612D01*
X99051250Y-79996218D01*
X99053957Y-79995598D01*
X99056515Y-79994507D01*
X99073471Y-79987275D01*
X99081500Y-79984479D01*
X99085590Y-79983360D01*
X99101952Y-79978884D01*
X99165157Y-79948737D01*
X99175271Y-79943913D01*
X99177656Y-79942836D01*
X99249829Y-79912051D01*
X99249832Y-79912049D01*
X99252386Y-79910960D01*
X99270122Y-79899310D01*
X99277507Y-79895148D01*
X99296663Y-79886011D01*
X99362626Y-79838612D01*
X99364773Y-79837136D01*
X99430775Y-79793781D01*
X99432692Y-79792522D01*
X99454948Y-79772692D01*
X99460031Y-79768619D01*
X99471851Y-79760126D01*
X99473780Y-79758136D01*
X99473784Y-79758132D01*
X99543593Y-79686094D01*
X99544282Y-79685395D01*
X100871192Y-78358485D01*
X100877338Y-78353095D01*
X100879122Y-78351726D01*
X100897311Y-78337769D01*
X100950902Y-78278873D01*
X100952935Y-78276742D01*
X100969242Y-78260435D01*
X100986117Y-78240253D01*
X100987838Y-78238281D01*
X101040627Y-78180266D01*
X101042497Y-78178211D01*
X101053767Y-78160245D01*
X101058760Y-78153373D01*
X101070591Y-78139223D01*
X101070592Y-78139221D01*
X101072370Y-78137095D01*
X101112622Y-78066527D01*
X101113962Y-78064287D01*
X101155654Y-77997824D01*
X101157134Y-77995465D01*
X101158174Y-77992879D01*
X101165047Y-77975784D01*
X101168746Y-77968132D01*
X101177875Y-77952126D01*
X101177877Y-77952121D01*
X101179253Y-77949709D01*
X101206366Y-77873145D01*
X101207291Y-77870696D01*
X101236560Y-77797886D01*
X101237597Y-77795307D01*
X101241898Y-77774536D01*
X101244185Y-77766346D01*
X101250337Y-77748975D01*
X101250337Y-77748974D01*
X101251264Y-77746357D01*
X101264400Y-77666141D01*
X101264867Y-77663624D01*
X101268620Y-77645506D01*
X101281344Y-77584063D01*
X101283059Y-77554318D01*
X101283776Y-77547817D01*
X101285678Y-77536204D01*
X101285678Y-77536200D01*
X101286126Y-77533466D01*
X101284508Y-77430455D01*
X101284500Y-77429473D01*
X101284500Y-74789272D01*
X101302806Y-74745078D01*
X101347000Y-74726772D01*
X101379796Y-74736068D01*
X101390621Y-74742741D01*
X101397159Y-74745789D01*
X101552708Y-74797383D01*
X101559336Y-74798804D01*
X101655311Y-74808638D01*
X101658493Y-74808800D01*
X101689169Y-74808800D01*
X101697959Y-74805159D01*
X101701600Y-74796369D01*
X102209600Y-74796369D01*
X102213241Y-74805159D01*
X102222031Y-74808800D01*
X102252694Y-74808800D01*
X102255907Y-74808634D01*
X102353116Y-74798547D01*
X102359756Y-74797113D01*
X102515212Y-74745249D01*
X102521744Y-74742190D01*
X102660913Y-74656069D01*
X102666564Y-74651590D01*
X102782191Y-74535761D01*
X102786664Y-74530098D01*
X102872540Y-74390779D01*
X102875589Y-74384241D01*
X102927183Y-74228692D01*
X102928604Y-74222064D01*
X102938438Y-74126089D01*
X102938600Y-74122907D01*
X102938600Y-74117231D01*
X102934959Y-74108441D01*
X102926169Y-74104800D01*
X102222031Y-74104800D01*
X102213241Y-74108441D01*
X102209600Y-74117231D01*
X102209600Y-74796369D01*
X101701600Y-74796369D01*
X101701600Y-73659300D01*
X101719906Y-73615106D01*
X101764100Y-73596800D01*
X102926169Y-73596800D01*
X102934959Y-73593159D01*
X102938600Y-73584369D01*
X102938600Y-73578706D01*
X102938434Y-73575493D01*
X102930896Y-73502851D01*
X102944543Y-73457003D01*
X102986611Y-73434234D01*
X102993062Y-73433900D01*
X105035334Y-73433900D01*
X105097516Y-73427145D01*
X105125669Y-73416591D01*
X105229734Y-73377579D01*
X105229736Y-73377578D01*
X105233905Y-73376015D01*
X105350461Y-73288661D01*
X105437815Y-73172105D01*
X105440316Y-73165435D01*
X105487570Y-73039384D01*
X105487570Y-73039383D01*
X105488945Y-73035716D01*
X105495700Y-72973534D01*
X105495700Y-71377266D01*
X105488945Y-71315084D01*
X105437815Y-71178695D01*
X105435803Y-71176010D01*
X105430680Y-71128859D01*
X105460653Y-71091579D01*
X105490668Y-71083900D01*
X108716200Y-71083900D01*
X108760394Y-71102206D01*
X108778700Y-71146400D01*
X108778700Y-71823534D01*
X108785455Y-71885716D01*
X108786830Y-71889383D01*
X108786830Y-71889384D01*
X108832994Y-72012525D01*
X108836585Y-72022105D01*
X108839256Y-72025669D01*
X108854968Y-72046633D01*
X108923939Y-72138661D01*
X109040495Y-72226015D01*
X109044664Y-72227578D01*
X109044666Y-72227579D01*
X109170666Y-72274814D01*
X109176884Y-72277145D01*
X109239066Y-72283900D01*
X111335334Y-72283900D01*
X111397516Y-72277145D01*
X111403734Y-72274814D01*
X111529734Y-72227579D01*
X111529736Y-72227578D01*
X111533905Y-72226015D01*
X111650461Y-72138661D01*
X111719432Y-72046633D01*
X111735144Y-72025669D01*
X111737815Y-72022105D01*
X111741407Y-72012525D01*
X111787570Y-71889384D01*
X111787570Y-71889383D01*
X111788945Y-71885716D01*
X111795700Y-71823534D01*
X111795700Y-70546400D01*
X111814006Y-70502206D01*
X111858200Y-70483900D01*
X114012227Y-70483900D01*
X114020384Y-70484435D01*
X114056200Y-70489150D01*
X114060264Y-70488615D01*
X114096074Y-70483901D01*
X114096084Y-70483900D01*
X114096085Y-70483900D01*
X114195657Y-70470791D01*
X114211655Y-70468685D01*
X114257861Y-70481065D01*
G37*
%TD.AperFunction*%
%TA.AperFunction,Conductor*%
G36*
X126615599Y-78180079D02*
G01*
X126633380Y-78192529D01*
X128858621Y-80417770D01*
X128876927Y-80461964D01*
X128858621Y-80506158D01*
X128827262Y-80523132D01*
X128608209Y-80569093D01*
X128605746Y-80570066D01*
X128605745Y-80570066D01*
X128573867Y-80582655D01*
X128393779Y-80653776D01*
X128196683Y-80773377D01*
X128022555Y-80924477D01*
X128002132Y-80949385D01*
X127878054Y-81100708D01*
X127878052Y-81100711D01*
X127876376Y-81102755D01*
X127875067Y-81105054D01*
X127875066Y-81105056D01*
X127806426Y-81225639D01*
X127768655Y-81254990D01*
X127721191Y-81249036D01*
X127695125Y-81220391D01*
X127691312Y-81211925D01*
X127562559Y-81020681D01*
X127560735Y-81018769D01*
X127560731Y-81018764D01*
X127405249Y-80855778D01*
X127405248Y-80855778D01*
X127403424Y-80853865D01*
X127401304Y-80852288D01*
X127401301Y-80852285D01*
X127220586Y-80717829D01*
X127220584Y-80717828D01*
X127218458Y-80716246D01*
X127183090Y-80698264D01*
X127015300Y-80612955D01*
X127015297Y-80612954D01*
X127012949Y-80611760D01*
X126850897Y-80561441D01*
X126795302Y-80544178D01*
X126795299Y-80544177D01*
X126792773Y-80543393D01*
X126564226Y-80513102D01*
X126333842Y-80521751D01*
X126331257Y-80522293D01*
X126331252Y-80522294D01*
X126144679Y-80561441D01*
X126108209Y-80569093D01*
X126105746Y-80570066D01*
X126105745Y-80570066D01*
X126018345Y-80604582D01*
X125970516Y-80603789D01*
X125951194Y-80590645D01*
X125168870Y-79808321D01*
X125150564Y-79764127D01*
X125159603Y-79731752D01*
X125167858Y-79718121D01*
X125170941Y-79711293D01*
X125220065Y-79554537D01*
X125221361Y-79548066D01*
X125227668Y-79479422D01*
X125227800Y-79476548D01*
X125227800Y-79412831D01*
X125224159Y-79404041D01*
X125215369Y-79400400D01*
X124712657Y-79400400D01*
X124688739Y-79395642D01*
X124683754Y-79393577D01*
X124618051Y-79366362D01*
X124613985Y-79365827D01*
X124613982Y-79365826D01*
X124598657Y-79363809D01*
X124499095Y-79350701D01*
X124499075Y-79350699D01*
X124463264Y-79345985D01*
X124459200Y-79345450D01*
X124455136Y-79345985D01*
X124423384Y-79350165D01*
X124415227Y-79350700D01*
X124128300Y-79350700D01*
X124084106Y-79332394D01*
X124065800Y-79288200D01*
X124065800Y-78954900D01*
X124084106Y-78910706D01*
X124128300Y-78892400D01*
X125215368Y-78892400D01*
X125224158Y-78888759D01*
X125227799Y-78879969D01*
X125227799Y-78816233D01*
X125227669Y-78813399D01*
X125221360Y-78744733D01*
X125220065Y-78738266D01*
X125218500Y-78733272D01*
X125222750Y-78685626D01*
X125259446Y-78654940D01*
X125284505Y-78652404D01*
X125285805Y-78652537D01*
X125285813Y-78652537D01*
X125287400Y-78652700D01*
X125888200Y-78652700D01*
X125889796Y-78652534D01*
X125889804Y-78652534D01*
X125990566Y-78642079D01*
X125990568Y-78642079D01*
X125993966Y-78641726D01*
X126161746Y-78585750D01*
X126312148Y-78492678D01*
X126437105Y-78367503D01*
X126445987Y-78353095D01*
X126479709Y-78298386D01*
X126529915Y-78216938D01*
X126531058Y-78213493D01*
X126532542Y-78210310D01*
X126567809Y-78177992D01*
X126615599Y-78180079D01*
G37*
%TD.AperFunction*%
%TA.AperFunction,Conductor*%
G36*
X131546857Y-72920606D02*
G01*
X139288812Y-80662561D01*
X139307118Y-80706755D01*
X139288812Y-80750949D01*
X139244618Y-80769255D01*
X139233663Y-80768286D01*
X139193284Y-80761094D01*
X139084425Y-80759764D01*
X138972488Y-80758396D01*
X138972482Y-80758396D01*
X138969936Y-80758365D01*
X138969911Y-80758365D01*
X138969911Y-80758356D01*
X138921851Y-80740388D01*
X131190457Y-73008994D01*
X131172151Y-72964800D01*
X131190457Y-72920606D01*
X131234651Y-72902300D01*
X131502663Y-72902300D01*
X131546857Y-72920606D01*
G37*
%TD.AperFunction*%
%TA.AperFunction,Conductor*%
G36*
X122004194Y-76458486D02*
G01*
X122006295Y-76458741D01*
X122047974Y-76482212D01*
X122061300Y-76520789D01*
X122061300Y-78255236D01*
X122042994Y-78299430D01*
X122035480Y-78305323D01*
X122035607Y-78305484D01*
X122032641Y-78307810D01*
X122029419Y-78309761D01*
X121908161Y-78431019D01*
X121869662Y-78494589D01*
X121845613Y-78534299D01*
X121807062Y-78562619D01*
X121759777Y-78555383D01*
X121747959Y-78546117D01*
X119873006Y-76671164D01*
X119854700Y-76626970D01*
X119854700Y-76529690D01*
X119873006Y-76485496D01*
X119913435Y-76467304D01*
X119913501Y-76467300D01*
X119915374Y-76467300D01*
X119938966Y-76464445D01*
X119988692Y-76458428D01*
X120003708Y-76458428D01*
X120048810Y-76463885D01*
X120077026Y-76467300D01*
X120415374Y-76467300D01*
X120443590Y-76463885D01*
X120488692Y-76458428D01*
X120503708Y-76458428D01*
X120548810Y-76463885D01*
X120577026Y-76467300D01*
X120915374Y-76467300D01*
X120943590Y-76463885D01*
X120988692Y-76458428D01*
X121003708Y-76458428D01*
X121048810Y-76463885D01*
X121077026Y-76467300D01*
X121415374Y-76467300D01*
X121443590Y-76463885D01*
X121488692Y-76458428D01*
X121503708Y-76458428D01*
X121548810Y-76463885D01*
X121577026Y-76467300D01*
X121915374Y-76467300D01*
X121943590Y-76463885D01*
X121988692Y-76458428D01*
X122003694Y-76458426D01*
X122004194Y-76458486D01*
G37*
%TD.AperFunction*%
%TA.AperFunction,Conductor*%
G36*
X116959474Y-74428957D02*
G01*
X116967269Y-74432043D01*
X116971254Y-74432525D01*
X116971257Y-74432526D01*
X117050146Y-74442073D01*
X117050154Y-74442074D01*
X117052026Y-74442300D01*
X118124800Y-74442300D01*
X118168994Y-74460606D01*
X118187300Y-74504800D01*
X118187300Y-76324999D01*
X118168994Y-76369193D01*
X118124800Y-76387499D01*
X118080606Y-76369193D01*
X117139690Y-75428277D01*
X117137437Y-75425904D01*
X117092743Y-75376266D01*
X117092742Y-75376265D01*
X117090553Y-75373834D01*
X117075128Y-75362627D01*
X117067671Y-75356258D01*
X116567475Y-74856062D01*
X116549169Y-74811868D01*
X116567475Y-74767674D01*
X116892275Y-74442874D01*
X116936469Y-74424568D01*
X116959474Y-74428957D01*
G37*
%TD.AperFunction*%
%TA.AperFunction,Conductor*%
G36*
X116554504Y-71920606D02*
G01*
X116572696Y-71961035D01*
X116572700Y-71961101D01*
X116572700Y-71962974D01*
X116574295Y-71976157D01*
X116581572Y-72036292D01*
X116581572Y-72051308D01*
X116576115Y-72096410D01*
X116572700Y-72124626D01*
X116572700Y-72462974D01*
X116572928Y-72464856D01*
X116581572Y-72536292D01*
X116581572Y-72551308D01*
X116576115Y-72596410D01*
X116572700Y-72624626D01*
X116572700Y-72962974D01*
X116572926Y-72964846D01*
X116572927Y-72964854D01*
X116581825Y-73038376D01*
X116581825Y-73053394D01*
X116573427Y-73122786D01*
X116573200Y-73126557D01*
X116573200Y-73139825D01*
X116554894Y-73184019D01*
X116526878Y-73200195D01*
X116526012Y-73200427D01*
X116521949Y-73200962D01*
X116388552Y-73256217D01*
X116340717Y-73256218D01*
X116306893Y-73222393D01*
X116305312Y-73178801D01*
X116308631Y-73168795D01*
X116310051Y-73162168D01*
X116320238Y-73062748D01*
X116320400Y-73059566D01*
X116320400Y-73027231D01*
X116316759Y-73018441D01*
X116307969Y-73014800D01*
X114895900Y-73014800D01*
X114851706Y-72996494D01*
X114833400Y-72952300D01*
X114833400Y-72569300D01*
X114851706Y-72525106D01*
X114895900Y-72506800D01*
X116307968Y-72506800D01*
X116316758Y-72503159D01*
X116320399Y-72494369D01*
X116320399Y-72462048D01*
X116320233Y-72458834D01*
X116309785Y-72358136D01*
X116308352Y-72351499D01*
X116254644Y-72190514D01*
X116251582Y-72183978D01*
X116162390Y-72039847D01*
X116157914Y-72034200D01*
X116132703Y-72009032D01*
X116114359Y-71964854D01*
X116132627Y-71920644D01*
X116176859Y-71902300D01*
X116510310Y-71902300D01*
X116554504Y-71920606D01*
G37*
%TD.AperFunction*%
%TA.AperFunction,Conductor*%
G36*
X119783988Y-68007022D02*
G01*
X119859879Y-68064627D01*
X119858627Y-68066276D01*
X119883901Y-68098520D01*
X119886006Y-68113901D01*
X119889841Y-68123159D01*
X119898631Y-68126800D01*
X119913443Y-68126800D01*
X119917214Y-68126573D01*
X119986606Y-68118175D01*
X120001623Y-68118175D01*
X120003714Y-68118428D01*
X120075146Y-68127073D01*
X120075154Y-68127074D01*
X120077026Y-68127300D01*
X120415374Y-68127300D01*
X120443590Y-68123885D01*
X120488692Y-68118428D01*
X120503708Y-68118428D01*
X120548810Y-68123885D01*
X120577026Y-68127300D01*
X120915374Y-68127300D01*
X120943590Y-68123885D01*
X120988692Y-68118428D01*
X121003708Y-68118428D01*
X121048810Y-68123885D01*
X121077026Y-68127300D01*
X121415374Y-68127300D01*
X121443590Y-68123885D01*
X121488692Y-68118428D01*
X121503708Y-68118428D01*
X121548810Y-68123885D01*
X121577026Y-68127300D01*
X121915374Y-68127300D01*
X121943590Y-68123885D01*
X121988692Y-68118428D01*
X122003708Y-68118428D01*
X122048810Y-68123885D01*
X122077026Y-68127300D01*
X122415374Y-68127300D01*
X122443590Y-68123885D01*
X122488692Y-68118428D01*
X122503708Y-68118428D01*
X122548810Y-68123885D01*
X122577026Y-68127300D01*
X122915374Y-68127300D01*
X122943590Y-68123885D01*
X122988692Y-68118428D01*
X123003708Y-68118428D01*
X123048810Y-68123885D01*
X123077026Y-68127300D01*
X123415374Y-68127300D01*
X123443590Y-68123885D01*
X123488692Y-68118428D01*
X123503708Y-68118428D01*
X123548810Y-68123885D01*
X123577026Y-68127300D01*
X123915374Y-68127300D01*
X123943590Y-68123885D01*
X123988692Y-68118428D01*
X124003708Y-68118428D01*
X124048810Y-68123885D01*
X124077026Y-68127300D01*
X124415374Y-68127300D01*
X124443590Y-68123885D01*
X124488692Y-68118428D01*
X124503708Y-68118428D01*
X124548810Y-68123885D01*
X124577026Y-68127300D01*
X124850200Y-68127300D01*
X124894394Y-68145606D01*
X124912700Y-68189800D01*
X124912700Y-68462974D01*
X124912928Y-68464856D01*
X124921572Y-68536292D01*
X124921572Y-68551308D01*
X124919178Y-68571093D01*
X124912700Y-68624626D01*
X124912700Y-68962974D01*
X124912928Y-68964856D01*
X124921572Y-69036292D01*
X124921572Y-69051308D01*
X124916115Y-69096410D01*
X124912700Y-69124626D01*
X124912700Y-69462974D01*
X124915716Y-69487900D01*
X124921572Y-69536292D01*
X124921572Y-69551308D01*
X124918628Y-69575639D01*
X124912700Y-69624626D01*
X124912700Y-69962974D01*
X124912926Y-69964846D01*
X124912927Y-69964854D01*
X124921825Y-70038376D01*
X124921825Y-70053394D01*
X124913427Y-70122786D01*
X124913200Y-70126557D01*
X124913200Y-70141369D01*
X124916841Y-70150159D01*
X124937118Y-70158558D01*
X124936979Y-70158893D01*
X124968877Y-70172106D01*
X124975113Y-70180320D01*
X124975373Y-70180122D01*
X124981588Y-70188310D01*
X124993727Y-70234579D01*
X124969853Y-70275681D01*
X124892137Y-70335314D01*
X124892121Y-70335328D01*
X124863463Y-70357318D01*
X124863458Y-70357323D01*
X124860213Y-70359813D01*
X124857723Y-70363058D01*
X124857720Y-70363061D01*
X124838218Y-70388477D01*
X124832828Y-70394623D01*
X124473258Y-70754193D01*
X124429064Y-70772499D01*
X124384870Y-70754193D01*
X124377556Y-70745399D01*
X124374877Y-70741500D01*
X124281557Y-70605719D01*
X124153521Y-70491643D01*
X124001969Y-70411400D01*
X123835651Y-70369624D01*
X123831886Y-70369604D01*
X123831884Y-70369604D01*
X123746646Y-70369158D01*
X123664169Y-70368726D01*
X123660505Y-70369606D01*
X123660502Y-70369606D01*
X123589560Y-70386638D01*
X123497423Y-70408758D01*
X123494081Y-70410483D01*
X123494078Y-70410484D01*
X123441759Y-70437488D01*
X123345039Y-70487409D01*
X123328077Y-70502206D01*
X123221383Y-70595282D01*
X123215815Y-70600139D01*
X123213649Y-70603221D01*
X123213648Y-70603222D01*
X123189605Y-70637432D01*
X123117210Y-70740439D01*
X123115841Y-70743950D01*
X123115840Y-70743952D01*
X123056878Y-70895183D01*
X123054918Y-70900209D01*
X123054426Y-70903946D01*
X123035026Y-71051308D01*
X123032535Y-71070226D01*
X123051353Y-71240675D01*
X123052647Y-71244212D01*
X123052648Y-71244215D01*
X123086805Y-71337552D01*
X123110285Y-71401715D01*
X123119310Y-71415145D01*
X123127076Y-71426703D01*
X123137700Y-71461562D01*
X123137700Y-73040510D01*
X123119394Y-73084704D01*
X123089790Y-73101283D01*
X122997423Y-73123458D01*
X122994076Y-73125185D01*
X122994072Y-73125187D01*
X122945866Y-73150068D01*
X122898198Y-73154071D01*
X122861662Y-73123196D01*
X122854700Y-73094530D01*
X122854700Y-70732273D01*
X122855235Y-70724115D01*
X122859416Y-70692357D01*
X122859951Y-70688293D01*
X122858728Y-70679000D01*
X122839573Y-70533503D01*
X122839572Y-70533499D01*
X122839038Y-70529443D01*
X122824419Y-70494148D01*
X122779291Y-70385200D01*
X122777724Y-70381417D01*
X122704678Y-70286222D01*
X122704672Y-70286214D01*
X122682682Y-70257556D01*
X122682677Y-70257551D01*
X122680187Y-70254306D01*
X122676942Y-70251816D01*
X122676939Y-70251813D01*
X122651523Y-70232311D01*
X122645377Y-70226921D01*
X121978882Y-69560426D01*
X121973491Y-69554280D01*
X121953984Y-69528858D01*
X121951494Y-69525613D01*
X121919582Y-69501126D01*
X121919582Y-69501125D01*
X121919579Y-69501123D01*
X121869778Y-69462909D01*
X121824383Y-69428076D01*
X121820597Y-69426508D01*
X121820594Y-69426506D01*
X121711229Y-69381206D01*
X121676358Y-69366762D01*
X121672292Y-69366227D01*
X121672289Y-69366226D01*
X121656964Y-69364209D01*
X121557402Y-69351101D01*
X121557382Y-69351099D01*
X121521571Y-69346385D01*
X121517507Y-69345850D01*
X121513443Y-69346385D01*
X121481691Y-69350565D01*
X121473534Y-69351100D01*
X120558972Y-69351100D01*
X120550814Y-69350565D01*
X120517150Y-69346133D01*
X120517149Y-69346133D01*
X120515000Y-69345850D01*
X120514242Y-69345950D01*
X120514103Y-69345941D01*
X120510851Y-69345124D01*
X120507087Y-69345104D01*
X120507085Y-69345104D01*
X120421070Y-69344654D01*
X120339369Y-69344226D01*
X120335705Y-69345106D01*
X120335702Y-69345106D01*
X120260104Y-69363256D01*
X120172623Y-69384258D01*
X120169281Y-69385983D01*
X120169278Y-69385984D01*
X120096431Y-69423583D01*
X120020239Y-69462909D01*
X119981451Y-69496746D01*
X119941263Y-69531805D01*
X119891015Y-69575639D01*
X119792410Y-69715939D01*
X119791041Y-69719450D01*
X119791040Y-69719452D01*
X119732951Y-69868443D01*
X119730118Y-69875709D01*
X119729626Y-69879446D01*
X119708703Y-70038376D01*
X119707735Y-70045726D01*
X119726553Y-70216175D01*
X119727847Y-70219712D01*
X119727848Y-70219715D01*
X119760664Y-70309387D01*
X119785485Y-70377215D01*
X119814643Y-70420606D01*
X119860703Y-70489150D01*
X119881130Y-70519549D01*
X120007965Y-70634960D01*
X120158668Y-70716785D01*
X120162313Y-70717741D01*
X120162315Y-70717742D01*
X120301257Y-70754193D01*
X120324539Y-70760301D01*
X120416353Y-70761743D01*
X120492233Y-70762935D01*
X120492235Y-70762935D01*
X120496002Y-70762994D01*
X120600010Y-70739173D01*
X120647175Y-70747151D01*
X120671226Y-70776851D01*
X120671481Y-70776721D01*
X120672092Y-70777921D01*
X120672656Y-70778617D01*
X120674485Y-70783615D01*
X120719202Y-70850160D01*
X120767437Y-70921941D01*
X120770130Y-70925949D01*
X120896965Y-71041360D01*
X121047668Y-71123185D01*
X121051313Y-71124141D01*
X121051315Y-71124142D01*
X121091060Y-71134569D01*
X121129162Y-71163490D01*
X121137700Y-71195023D01*
X121137700Y-71905510D01*
X121119394Y-71949704D01*
X121089790Y-71966283D01*
X121017490Y-71983640D01*
X120970243Y-71976157D01*
X120942127Y-71937457D01*
X120940853Y-71930375D01*
X120939755Y-71921302D01*
X120939302Y-71917558D01*
X120878687Y-71757144D01*
X120781557Y-71615819D01*
X120653521Y-71501743D01*
X120501969Y-71421500D01*
X120498321Y-71420584D01*
X120498319Y-71420583D01*
X120476669Y-71415145D01*
X120438267Y-71386624D01*
X120433431Y-71376620D01*
X120380019Y-71235269D01*
X120378687Y-71231744D01*
X120281557Y-71090419D01*
X120153521Y-70976343D01*
X120024117Y-70907827D01*
X120005297Y-70897862D01*
X120005296Y-70897862D01*
X120001969Y-70896100D01*
X119835651Y-70854324D01*
X119831886Y-70854304D01*
X119831884Y-70854304D01*
X119746646Y-70853858D01*
X119664169Y-70853426D01*
X119660505Y-70854306D01*
X119660502Y-70854306D01*
X119603730Y-70867936D01*
X119497423Y-70893458D01*
X119494081Y-70895183D01*
X119494078Y-70895184D01*
X119429559Y-70928485D01*
X119345039Y-70972109D01*
X119342201Y-70974584D01*
X119342202Y-70974584D01*
X119223020Y-71078554D01*
X119215815Y-71084839D01*
X119213649Y-71087921D01*
X119213648Y-71087922D01*
X119189207Y-71122698D01*
X119148818Y-71148329D01*
X119102135Y-71137894D01*
X119076026Y-71094268D01*
X119075561Y-71090419D01*
X119070828Y-71051308D01*
X119070828Y-71036292D01*
X119076285Y-70991190D01*
X119079700Y-70962974D01*
X119079700Y-70624626D01*
X119071463Y-70556559D01*
X119070828Y-70551308D01*
X119070828Y-70536292D01*
X119077103Y-70484435D01*
X119079700Y-70462974D01*
X119079700Y-70124626D01*
X119074833Y-70084407D01*
X119070828Y-70051308D01*
X119070828Y-70036292D01*
X119079472Y-69964856D01*
X119079472Y-69964854D01*
X119079700Y-69962974D01*
X119079700Y-69624626D01*
X119073772Y-69575639D01*
X119070828Y-69551308D01*
X119070828Y-69536292D01*
X119076684Y-69487900D01*
X119079700Y-69462974D01*
X119079700Y-69124626D01*
X119076285Y-69096410D01*
X119070828Y-69051308D01*
X119070828Y-69036292D01*
X119079472Y-68964856D01*
X119079700Y-68962974D01*
X119079700Y-68624626D01*
X119073222Y-68571093D01*
X119070828Y-68551308D01*
X119070828Y-68536292D01*
X119079472Y-68464856D01*
X119079700Y-68462974D01*
X119079700Y-68189800D01*
X119098006Y-68145606D01*
X119142200Y-68127300D01*
X119415374Y-68127300D01*
X119417246Y-68127074D01*
X119417254Y-68127073D01*
X119488686Y-68118428D01*
X119490777Y-68118175D01*
X119505794Y-68118175D01*
X119575186Y-68126573D01*
X119578957Y-68126800D01*
X119593769Y-68126800D01*
X119602559Y-68123159D01*
X119610958Y-68102882D01*
X119611293Y-68103021D01*
X119624506Y-68071123D01*
X119632719Y-68064888D01*
X119632521Y-68064627D01*
X119708412Y-68007022D01*
X119754682Y-67994883D01*
X119783988Y-68007022D01*
G37*
%TD.AperFunction*%
%TA.AperFunction,Conductor*%
G36*
X116554394Y-68326143D02*
G01*
X116572700Y-68370337D01*
X116572700Y-68462974D01*
X116572928Y-68464856D01*
X116581572Y-68536292D01*
X116581572Y-68551308D01*
X116579178Y-68571093D01*
X116572700Y-68624626D01*
X116572700Y-68962974D01*
X116572928Y-68964856D01*
X116581572Y-69036292D01*
X116581572Y-69051308D01*
X116576115Y-69096410D01*
X116572700Y-69124626D01*
X116572700Y-69462974D01*
X116575716Y-69487900D01*
X116581572Y-69536292D01*
X116581572Y-69551308D01*
X116578628Y-69575639D01*
X116572700Y-69624626D01*
X116572700Y-69962974D01*
X116572928Y-69964854D01*
X116572928Y-69964856D01*
X116581572Y-70036292D01*
X116581572Y-70051308D01*
X116577567Y-70084407D01*
X116572700Y-70124626D01*
X116572700Y-70126499D01*
X116572696Y-70126565D01*
X116551761Y-70169576D01*
X116510310Y-70185300D01*
X114949572Y-70185300D01*
X114941414Y-70184765D01*
X114909664Y-70180585D01*
X114905600Y-70180050D01*
X114901536Y-70180585D01*
X114865729Y-70185299D01*
X114865720Y-70185300D01*
X114865715Y-70185300D01*
X114750145Y-70200515D01*
X114703939Y-70188135D01*
X114680022Y-70146708D01*
X114692402Y-70100502D01*
X114697793Y-70094356D01*
X116466006Y-68326143D01*
X116510200Y-68307837D01*
X116554394Y-68326143D01*
G37*
%TD.AperFunction*%
%TA.AperFunction,Conductor*%
G36*
X112162720Y-62271660D02*
G01*
X112179497Y-62302112D01*
X112183028Y-62317780D01*
X112186422Y-62332839D01*
X112187384Y-62335209D01*
X112187385Y-62335211D01*
X112204435Y-62377201D01*
X112270466Y-62539816D01*
X112271807Y-62542005D01*
X112271809Y-62542008D01*
X112277936Y-62552006D01*
X112387187Y-62730288D01*
X112388864Y-62732224D01*
X112388867Y-62732228D01*
X112484763Y-62842932D01*
X112533450Y-62899138D01*
X112705326Y-63041832D01*
X112707531Y-63043120D01*
X112707536Y-63043124D01*
X112765576Y-63077039D01*
X112847734Y-63125048D01*
X112876654Y-63163149D01*
X112878700Y-63179009D01*
X112878700Y-65284827D01*
X112878165Y-65292984D01*
X112873450Y-65328800D01*
X112878700Y-65368680D01*
X112878700Y-65368685D01*
X112889234Y-65448700D01*
X112894362Y-65487651D01*
X112895930Y-65491436D01*
X112895930Y-65491437D01*
X112954106Y-65631887D01*
X112954108Y-65631890D01*
X112955676Y-65635676D01*
X112999218Y-65692420D01*
X113028723Y-65730872D01*
X113028725Y-65730875D01*
X113028726Y-65730875D01*
X113053213Y-65762787D01*
X113056458Y-65765277D01*
X113056461Y-65765280D01*
X113081877Y-65784782D01*
X113088023Y-65790172D01*
X114460570Y-67162719D01*
X114475069Y-67185434D01*
X114527685Y-67329215D01*
X114550338Y-67362926D01*
X114613023Y-67456210D01*
X114623330Y-67471549D01*
X114750165Y-67586960D01*
X114900868Y-67668785D01*
X114904513Y-67669741D01*
X114904515Y-67669742D01*
X115063091Y-67711344D01*
X115066739Y-67712301D01*
X115113465Y-67713035D01*
X115206654Y-67714499D01*
X115250555Y-67733496D01*
X115268164Y-67777973D01*
X115249866Y-67821185D01*
X113822457Y-69248594D01*
X113778263Y-69266900D01*
X111858200Y-69266900D01*
X111814006Y-69248594D01*
X111795700Y-69204400D01*
X111795700Y-67927266D01*
X111788945Y-67865084D01*
X111768259Y-67809904D01*
X111739379Y-67732866D01*
X111739378Y-67732864D01*
X111737815Y-67728695D01*
X111650461Y-67612139D01*
X111568884Y-67551000D01*
X111537469Y-67527456D01*
X111533905Y-67524785D01*
X111529736Y-67523222D01*
X111529734Y-67523221D01*
X111401184Y-67475030D01*
X111401183Y-67475030D01*
X111397516Y-67473655D01*
X111335334Y-67466900D01*
X111158200Y-67466900D01*
X111114006Y-67448594D01*
X111095700Y-67404400D01*
X111095700Y-66044130D01*
X111114006Y-65999936D01*
X111360189Y-65753753D01*
X111360654Y-65753292D01*
X111383545Y-65730875D01*
X111425307Y-65689979D01*
X111450532Y-65650838D01*
X111454222Y-65645703D01*
X111481096Y-65612038D01*
X111481096Y-65612037D01*
X111483276Y-65609307D01*
X111484795Y-65606165D01*
X111484798Y-65606160D01*
X111499563Y-65575615D01*
X111503290Y-65568973D01*
X111523565Y-65537512D01*
X111539495Y-65493745D01*
X111541952Y-65487930D01*
X111562221Y-65446001D01*
X111570639Y-65409541D01*
X111572806Y-65402225D01*
X111584408Y-65370349D01*
X111584409Y-65370347D01*
X111585603Y-65367065D01*
X111590437Y-65328800D01*
X111591438Y-65320875D01*
X111592547Y-65314648D01*
X111599921Y-65282709D01*
X111603025Y-65269265D01*
X111603166Y-65228898D01*
X111603205Y-65227738D01*
X111603300Y-65226981D01*
X111603300Y-65190340D01*
X111603657Y-65087880D01*
X111603405Y-65086753D01*
X111603300Y-65084812D01*
X111603300Y-62768580D01*
X111621606Y-62724386D01*
X112074332Y-62271660D01*
X112118526Y-62253354D01*
X112162720Y-62271660D01*
G37*
%TD.AperFunction*%
%TA.AperFunction,Conductor*%
G36*
X135925214Y-61402006D02*
G01*
X138713194Y-64189986D01*
X138731500Y-64234180D01*
X138731500Y-65251926D01*
X138713194Y-65296120D01*
X138706527Y-65301905D01*
X138634965Y-65355635D01*
X138633196Y-65357487D01*
X138633194Y-65357488D01*
X138587713Y-65405081D01*
X138480629Y-65517138D01*
X138472129Y-65529599D01*
X138432103Y-65555790D01*
X138385278Y-65546008D01*
X138359086Y-65505981D01*
X138357999Y-65494377D01*
X138357999Y-65478604D01*
X138357817Y-65475234D01*
X138351675Y-65418690D01*
X138349876Y-65411122D01*
X138301736Y-65282709D01*
X138297501Y-65274974D01*
X138215572Y-65165656D01*
X138209344Y-65159428D01*
X138100026Y-65077499D01*
X138092291Y-65073264D01*
X137963875Y-65025123D01*
X137956311Y-65023325D01*
X137899770Y-65017183D01*
X137896402Y-65017000D01*
X137266431Y-65017000D01*
X137257641Y-65020641D01*
X137254000Y-65029431D01*
X137254000Y-66566500D01*
X137235694Y-66610694D01*
X137191500Y-66629000D01*
X135654432Y-66629000D01*
X135645642Y-66632641D01*
X135642001Y-66641431D01*
X135642001Y-67094000D01*
X135623695Y-67138194D01*
X135579501Y-67156500D01*
X134488380Y-67156500D01*
X134480222Y-67155965D01*
X134448464Y-67151784D01*
X134444400Y-67151249D01*
X134440336Y-67151784D01*
X134289612Y-67171627D01*
X134289611Y-67171627D01*
X134285549Y-67172162D01*
X134281764Y-67173730D01*
X134281763Y-67173730D01*
X134141307Y-67231909D01*
X134137524Y-67233476D01*
X134085656Y-67273276D01*
X134042329Y-67306522D01*
X134042321Y-67306528D01*
X134013663Y-67328518D01*
X134013658Y-67328523D01*
X134010413Y-67331013D01*
X134007923Y-67334258D01*
X134007920Y-67334261D01*
X133988418Y-67359677D01*
X133983028Y-67365823D01*
X133236857Y-68111994D01*
X133192663Y-68130300D01*
X132545200Y-68130300D01*
X132543604Y-68130466D01*
X132543596Y-68130466D01*
X132442834Y-68140921D01*
X132442832Y-68140921D01*
X132439434Y-68141274D01*
X132271654Y-68197250D01*
X132268565Y-68199161D01*
X132268566Y-68199161D01*
X132125728Y-68287552D01*
X132078515Y-68295241D01*
X132060044Y-68287609D01*
X132006397Y-68254541D01*
X131912538Y-68196685D01*
X131744661Y-68141003D01*
X131681785Y-68134561D01*
X131641784Y-68130462D01*
X131641778Y-68130462D01*
X131640200Y-68130300D01*
X130589400Y-68130300D01*
X130587804Y-68130466D01*
X130587796Y-68130466D01*
X130487034Y-68140921D01*
X130487032Y-68140921D01*
X130483634Y-68141274D01*
X130315854Y-68197250D01*
X130165452Y-68290322D01*
X130162886Y-68292892D01*
X130162884Y-68292894D01*
X130130285Y-68325549D01*
X130086107Y-68343893D01*
X130041897Y-68325626D01*
X130024077Y-68307837D01*
X130005703Y-68289495D01*
X130002613Y-68287590D01*
X130002610Y-68287588D01*
X129945545Y-68252413D01*
X129855138Y-68196685D01*
X129687261Y-68141003D01*
X129624385Y-68134561D01*
X129584384Y-68130462D01*
X129584378Y-68130462D01*
X129582800Y-68130300D01*
X129143840Y-68130300D01*
X129099646Y-68111994D01*
X129081340Y-68067800D01*
X129099646Y-68023606D01*
X130504946Y-66618306D01*
X130549140Y-66600000D01*
X130593334Y-66618306D01*
X130602287Y-66629612D01*
X130626731Y-66669113D01*
X130631210Y-66674764D01*
X130747039Y-66790391D01*
X130752702Y-66794864D01*
X130892021Y-66880740D01*
X130898559Y-66883789D01*
X131054108Y-66935383D01*
X131060736Y-66936804D01*
X131156711Y-66946638D01*
X131159893Y-66946800D01*
X131165569Y-66946800D01*
X131174359Y-66943159D01*
X131178000Y-66934369D01*
X131178000Y-63494631D01*
X131174359Y-63485841D01*
X131165569Y-63482200D01*
X131161200Y-63482200D01*
X131117006Y-63463894D01*
X131098700Y-63419700D01*
X131098700Y-63255118D01*
X131117006Y-63210924D01*
X131133703Y-63198992D01*
X131185888Y-63173426D01*
X131185891Y-63173424D01*
X131188194Y-63172296D01*
X131328198Y-63072433D01*
X131367973Y-63044062D01*
X131367976Y-63044060D01*
X131370060Y-63042573D01*
X131528296Y-62884889D01*
X131558445Y-62842932D01*
X131599100Y-62817725D01*
X131645671Y-62828648D01*
X131670878Y-62869303D01*
X131671700Y-62879403D01*
X131671700Y-62899534D01*
X131678455Y-62961716D01*
X131679830Y-62965383D01*
X131679830Y-62965384D01*
X131721688Y-63077039D01*
X131729585Y-63098105D01*
X131816939Y-63214661D01*
X131933495Y-63302015D01*
X131937664Y-63303578D01*
X131937666Y-63303579D01*
X132032939Y-63339295D01*
X132067895Y-63371950D01*
X132073500Y-63397818D01*
X132073500Y-63498892D01*
X132055194Y-63543086D01*
X132011000Y-63561392D01*
X131978206Y-63552097D01*
X131971982Y-63548261D01*
X131965441Y-63545211D01*
X131809892Y-63493617D01*
X131803264Y-63492196D01*
X131707289Y-63482362D01*
X131704107Y-63482200D01*
X131698431Y-63482200D01*
X131689641Y-63485841D01*
X131686000Y-63494631D01*
X131686000Y-66934369D01*
X131689641Y-66943159D01*
X131698431Y-66946800D01*
X131704094Y-66946800D01*
X131707307Y-66946634D01*
X131804516Y-66936547D01*
X131811156Y-66935113D01*
X131966612Y-66883249D01*
X131973144Y-66880190D01*
X132112313Y-66794069D01*
X132117964Y-66789590D01*
X132162436Y-66745041D01*
X132206615Y-66726697D01*
X132250824Y-66744964D01*
X132296723Y-66790782D01*
X132296725Y-66790784D01*
X132299298Y-66793352D01*
X132302388Y-66795257D01*
X132302391Y-66795259D01*
X132357568Y-66829270D01*
X132444899Y-66883102D01*
X132607243Y-66936949D01*
X132708268Y-66947300D01*
X133255732Y-66947300D01*
X133257328Y-66947134D01*
X133257336Y-66947134D01*
X133354619Y-66937040D01*
X133354621Y-66937040D01*
X133358019Y-66936687D01*
X133520268Y-66882556D01*
X133665713Y-66792552D01*
X133786552Y-66671502D01*
X133797809Y-66653241D01*
X133824035Y-66610694D01*
X133876302Y-66525901D01*
X133930149Y-66363557D01*
X133940500Y-66262532D01*
X133940500Y-66108569D01*
X135642000Y-66108569D01*
X135645641Y-66117359D01*
X135654431Y-66121000D01*
X136733569Y-66121000D01*
X136742359Y-66117359D01*
X136746000Y-66108569D01*
X136746000Y-65029432D01*
X136742359Y-65020642D01*
X136733569Y-65017001D01*
X136103604Y-65017001D01*
X136100234Y-65017183D01*
X136043690Y-65023325D01*
X136036122Y-65025124D01*
X135907709Y-65073264D01*
X135899974Y-65077499D01*
X135790656Y-65159428D01*
X135784428Y-65165656D01*
X135702499Y-65274974D01*
X135698264Y-65282709D01*
X135650123Y-65411125D01*
X135648325Y-65418689D01*
X135642183Y-65475230D01*
X135642000Y-65478598D01*
X135642000Y-66108569D01*
X133940500Y-66108569D01*
X133940500Y-65665068D01*
X133938842Y-65649080D01*
X133930240Y-65566181D01*
X133930240Y-65566179D01*
X133929887Y-65562781D01*
X133917479Y-65525589D01*
X133893713Y-65454355D01*
X133890500Y-65434575D01*
X133890500Y-64994590D01*
X133893678Y-64974914D01*
X133929074Y-64868198D01*
X133930149Y-64864957D01*
X133940500Y-64763932D01*
X133940500Y-64166468D01*
X133939109Y-64153053D01*
X133930240Y-64067581D01*
X133930240Y-64067579D01*
X133929887Y-64064181D01*
X133906469Y-63993990D01*
X133893713Y-63955755D01*
X133890500Y-63935975D01*
X133890500Y-63420088D01*
X133908806Y-63375894D01*
X133946250Y-63357954D01*
X133967685Y-63355625D01*
X133990516Y-63353145D01*
X134039974Y-63334604D01*
X134122734Y-63303579D01*
X134122736Y-63303578D01*
X134126905Y-63302015D01*
X134243461Y-63214661D01*
X134330815Y-63098105D01*
X134338713Y-63077039D01*
X134380570Y-62965384D01*
X134380570Y-62965383D01*
X134381945Y-62961716D01*
X134388700Y-62899534D01*
X134388700Y-61446200D01*
X134407006Y-61402006D01*
X134451200Y-61383700D01*
X135881020Y-61383700D01*
X135925214Y-61402006D01*
G37*
%TD.AperFunction*%
%TA.AperFunction,Conductor*%
G36*
X126685954Y-61402006D02*
G01*
X126704260Y-61446200D01*
X126698450Y-61472514D01*
X126672440Y-61528548D01*
X126670674Y-61533348D01*
X126613828Y-61738324D01*
X126615547Y-61744167D01*
X126621474Y-61747400D01*
X128141700Y-61747400D01*
X128185894Y-61765706D01*
X128204200Y-61809900D01*
X128204200Y-63325601D01*
X128207841Y-63334391D01*
X128213695Y-63336816D01*
X128230962Y-63334604D01*
X128235972Y-63333539D01*
X128444949Y-63270843D01*
X128449699Y-63268981D01*
X128645636Y-63172992D01*
X128650024Y-63170376D01*
X128827649Y-63043678D01*
X128831552Y-63040380D01*
X128986097Y-62886373D01*
X128989410Y-62882480D01*
X129116722Y-62705306D01*
X129119361Y-62700915D01*
X129161478Y-62615698D01*
X129197470Y-62584189D01*
X129245200Y-62587360D01*
X129273034Y-62614952D01*
X129273466Y-62616016D01*
X129390187Y-62806488D01*
X129391864Y-62808424D01*
X129391867Y-62808428D01*
X129500135Y-62933415D01*
X129536450Y-62975338D01*
X129708326Y-63118032D01*
X129710531Y-63119320D01*
X129710536Y-63119324D01*
X129771593Y-63155002D01*
X129850734Y-63201248D01*
X129879654Y-63239349D01*
X129881700Y-63255209D01*
X129881700Y-65494566D01*
X129863394Y-65538760D01*
X127463347Y-67938807D01*
X127419153Y-67957113D01*
X127374959Y-67938807D01*
X127361041Y-67917618D01*
X127358595Y-67911439D01*
X127358595Y-67911438D01*
X127357027Y-67907479D01*
X127270938Y-67794062D01*
X127157521Y-67707973D01*
X127135295Y-67699173D01*
X127100682Y-67685469D01*
X127025131Y-67655557D01*
X127021146Y-67655075D01*
X127021143Y-67655074D01*
X126942254Y-67645527D01*
X126942246Y-67645526D01*
X126940374Y-67645300D01*
X125457200Y-67645300D01*
X125413006Y-67626994D01*
X125394700Y-67582800D01*
X125394700Y-66099626D01*
X125394474Y-66097754D01*
X125394473Y-66097746D01*
X125384926Y-66018857D01*
X125384925Y-66018854D01*
X125384443Y-66014869D01*
X125332027Y-65882479D01*
X125245938Y-65769062D01*
X125240956Y-65765280D01*
X125135916Y-65685550D01*
X125132521Y-65682973D01*
X125000131Y-65630557D01*
X124996146Y-65630075D01*
X124996143Y-65630074D01*
X124917254Y-65620527D01*
X124917246Y-65620526D01*
X124915374Y-65620300D01*
X124577026Y-65620300D01*
X124548810Y-65623715D01*
X124503708Y-65629172D01*
X124488692Y-65629172D01*
X124443590Y-65623715D01*
X124415374Y-65620300D01*
X124077026Y-65620300D01*
X124048810Y-65623715D01*
X124003708Y-65629172D01*
X123988692Y-65629172D01*
X123943590Y-65623715D01*
X123915374Y-65620300D01*
X123577026Y-65620300D01*
X123548810Y-65623715D01*
X123503708Y-65629172D01*
X123488692Y-65629172D01*
X123443590Y-65623715D01*
X123415374Y-65620300D01*
X123077026Y-65620300D01*
X123048810Y-65623715D01*
X123003708Y-65629172D01*
X122988692Y-65629172D01*
X122943590Y-65623715D01*
X122915374Y-65620300D01*
X122577026Y-65620300D01*
X122548810Y-65623715D01*
X122503708Y-65629172D01*
X122488692Y-65629172D01*
X122443590Y-65623715D01*
X122415374Y-65620300D01*
X122077026Y-65620300D01*
X122048810Y-65623715D01*
X122003708Y-65629172D01*
X121988692Y-65629172D01*
X121943590Y-65623715D01*
X121915374Y-65620300D01*
X121577026Y-65620300D01*
X121548810Y-65623715D01*
X121503708Y-65629172D01*
X121488692Y-65629172D01*
X121443590Y-65623715D01*
X121415374Y-65620300D01*
X121077026Y-65620300D01*
X121048810Y-65623715D01*
X121003708Y-65629172D01*
X120988692Y-65629172D01*
X120943590Y-65623715D01*
X120915374Y-65620300D01*
X120577026Y-65620300D01*
X120548810Y-65623715D01*
X120503708Y-65629172D01*
X120488692Y-65629172D01*
X120443590Y-65623715D01*
X120415374Y-65620300D01*
X120077026Y-65620300D01*
X120075154Y-65620526D01*
X120075146Y-65620527D01*
X120014631Y-65627851D01*
X120001623Y-65629425D01*
X119986606Y-65629425D01*
X119917214Y-65621027D01*
X119913443Y-65620800D01*
X119898631Y-65620800D01*
X119889841Y-65624441D01*
X119881442Y-65644718D01*
X119881107Y-65644579D01*
X119867894Y-65676477D01*
X119859681Y-65682712D01*
X119859879Y-65682973D01*
X119783988Y-65740578D01*
X119737718Y-65752717D01*
X119708412Y-65740578D01*
X119632521Y-65682973D01*
X119633773Y-65681324D01*
X119608499Y-65649080D01*
X119606394Y-65633699D01*
X119602559Y-65624441D01*
X119593769Y-65620800D01*
X119578957Y-65620800D01*
X119575186Y-65621027D01*
X119505794Y-65629425D01*
X119490777Y-65629425D01*
X119477769Y-65627851D01*
X119417254Y-65620527D01*
X119417246Y-65620526D01*
X119415374Y-65620300D01*
X119077026Y-65620300D01*
X119075154Y-65620526D01*
X119075146Y-65620527D01*
X118996257Y-65630074D01*
X118996254Y-65630075D01*
X118992269Y-65630557D01*
X118859879Y-65682973D01*
X118856484Y-65685550D01*
X118751445Y-65765280D01*
X118746462Y-65769062D01*
X118660373Y-65882479D01*
X118607957Y-66014869D01*
X118601100Y-66071535D01*
X118600982Y-66072508D01*
X118577500Y-66114183D01*
X118538935Y-66127500D01*
X118375590Y-66127500D01*
X118331396Y-66109194D01*
X118322443Y-66097889D01*
X118320106Y-66094113D01*
X118269078Y-66011652D01*
X118143903Y-65886695D01*
X118140813Y-65884790D01*
X118140810Y-65884788D01*
X118066387Y-65838913D01*
X118038372Y-65800140D01*
X118045979Y-65752913D01*
X118066295Y-65732562D01*
X118141549Y-65685993D01*
X118147196Y-65681518D01*
X118266946Y-65561559D01*
X118271417Y-65555898D01*
X118360353Y-65411615D01*
X118363400Y-65405081D01*
X118416830Y-65243996D01*
X118418251Y-65237368D01*
X118428438Y-65137948D01*
X118428600Y-65134766D01*
X118428600Y-65102431D01*
X118424959Y-65093641D01*
X118416169Y-65090000D01*
X117004100Y-65090000D01*
X116959906Y-65071694D01*
X116941600Y-65027500D01*
X116941600Y-64569569D01*
X117449600Y-64569569D01*
X117453241Y-64578359D01*
X117462031Y-64582000D01*
X118416168Y-64582000D01*
X118424958Y-64578359D01*
X118428599Y-64569569D01*
X118428599Y-64537248D01*
X118428433Y-64534034D01*
X118417985Y-64433336D01*
X118416552Y-64426699D01*
X118362844Y-64265714D01*
X118359782Y-64259178D01*
X118270590Y-64115047D01*
X118266118Y-64109404D01*
X118253436Y-64096744D01*
X122839563Y-64096744D01*
X122839729Y-64099958D01*
X122850177Y-64200656D01*
X122851610Y-64207293D01*
X122905318Y-64368278D01*
X122908380Y-64374814D01*
X122997572Y-64518945D01*
X123002044Y-64524588D01*
X123122003Y-64644338D01*
X123127664Y-64648809D01*
X123271947Y-64737745D01*
X123278481Y-64740792D01*
X123439566Y-64794222D01*
X123446194Y-64795643D01*
X123545614Y-64805830D01*
X123548796Y-64805992D01*
X123806131Y-64805992D01*
X123814921Y-64802351D01*
X123818562Y-64793561D01*
X123818562Y-64793560D01*
X124326562Y-64793560D01*
X124330203Y-64802350D01*
X124338993Y-64805991D01*
X124596314Y-64805991D01*
X124599528Y-64805825D01*
X124700226Y-64795377D01*
X124706863Y-64793944D01*
X124867848Y-64740236D01*
X124874384Y-64737174D01*
X125018515Y-64647982D01*
X125024158Y-64643510D01*
X125143908Y-64523551D01*
X125148379Y-64517890D01*
X125237315Y-64373607D01*
X125240362Y-64367073D01*
X125293792Y-64205988D01*
X125295213Y-64199360D01*
X125305400Y-64099940D01*
X125305562Y-64096758D01*
X125305562Y-64064423D01*
X125301921Y-64055633D01*
X125293131Y-64051992D01*
X124338993Y-64051992D01*
X124330203Y-64055633D01*
X124326562Y-64064423D01*
X124326562Y-64793560D01*
X123818562Y-64793560D01*
X123818562Y-64064423D01*
X123814921Y-64055633D01*
X123806131Y-64051992D01*
X122851994Y-64051992D01*
X122843204Y-64055633D01*
X122839563Y-64064423D01*
X122839563Y-64096744D01*
X118253436Y-64096744D01*
X118146159Y-63989654D01*
X118140498Y-63985183D01*
X117996215Y-63896247D01*
X117989681Y-63893200D01*
X117828596Y-63839770D01*
X117821968Y-63838349D01*
X117722548Y-63828162D01*
X117719366Y-63828000D01*
X117462031Y-63828000D01*
X117453241Y-63831641D01*
X117449600Y-63840431D01*
X117449600Y-64569569D01*
X116941600Y-64569569D01*
X116941600Y-63840432D01*
X116937959Y-63831642D01*
X116929169Y-63828001D01*
X116698200Y-63828001D01*
X116654006Y-63809695D01*
X116635700Y-63765501D01*
X116635700Y-63178918D01*
X116654006Y-63134724D01*
X116670703Y-63122792D01*
X116722888Y-63097226D01*
X116722891Y-63097224D01*
X116725194Y-63096096D01*
X116856479Y-63002452D01*
X116904973Y-62967862D01*
X116904976Y-62967860D01*
X116907060Y-62966373D01*
X117065296Y-62808689D01*
X117069856Y-62802344D01*
X117120452Y-62731931D01*
X117195653Y-62627277D01*
X117196827Y-62624903D01*
X117239038Y-62539494D01*
X117275030Y-62507985D01*
X117322760Y-62511156D01*
X117350855Y-62539006D01*
X117352257Y-62541782D01*
X117466251Y-62727802D01*
X117469272Y-62731931D01*
X117612117Y-62896835D01*
X117615780Y-62900422D01*
X117783637Y-63039780D01*
X117787831Y-63042717D01*
X117976199Y-63152790D01*
X117980815Y-63155002D01*
X118184642Y-63232835D01*
X118189543Y-63234259D01*
X118301017Y-63256938D01*
X118310358Y-63255123D01*
X118313200Y-63250909D01*
X118313200Y-61733700D01*
X118331506Y-61689506D01*
X118375700Y-61671200D01*
X118758700Y-61671200D01*
X118802894Y-61689506D01*
X118821200Y-61733700D01*
X118821200Y-63249401D01*
X118824841Y-63258191D01*
X118830695Y-63260616D01*
X118847962Y-63258404D01*
X118852972Y-63257339D01*
X119061949Y-63194643D01*
X119066699Y-63192781D01*
X119262636Y-63096792D01*
X119267024Y-63094176D01*
X119444649Y-62967478D01*
X119448552Y-62964180D01*
X119603097Y-62810173D01*
X119606410Y-62806280D01*
X119635445Y-62765873D01*
X119676100Y-62740666D01*
X119722671Y-62751589D01*
X119747878Y-62792244D01*
X119748700Y-62802344D01*
X119748700Y-62823334D01*
X119755455Y-62885516D01*
X119756830Y-62889183D01*
X119756830Y-62889184D01*
X119782561Y-62957820D01*
X119806585Y-63021905D01*
X119893939Y-63138461D01*
X120010495Y-63225815D01*
X120014664Y-63227378D01*
X120014666Y-63227379D01*
X120097426Y-63258404D01*
X120146884Y-63276945D01*
X120209066Y-63283700D01*
X122005334Y-63283700D01*
X122067516Y-63276945D01*
X122116974Y-63258404D01*
X122199734Y-63227379D01*
X122199736Y-63227378D01*
X122203905Y-63225815D01*
X122320461Y-63138461D01*
X122407815Y-63021905D01*
X122431840Y-62957820D01*
X122457570Y-62889184D01*
X122457570Y-62889183D01*
X122458945Y-62885516D01*
X122465700Y-62823334D01*
X122465700Y-62596200D01*
X122484006Y-62552006D01*
X122528200Y-62533700D01*
X122909409Y-62533700D01*
X122953603Y-62552006D01*
X122962555Y-62563310D01*
X122999084Y-62622340D01*
X123124259Y-62747297D01*
X123127349Y-62749202D01*
X123127352Y-62749204D01*
X123201775Y-62795079D01*
X123229790Y-62833852D01*
X123222183Y-62881079D01*
X123201867Y-62901430D01*
X123126613Y-62947999D01*
X123120966Y-62952474D01*
X123001216Y-63072433D01*
X122996745Y-63078094D01*
X122907809Y-63222377D01*
X122904762Y-63228911D01*
X122851332Y-63389996D01*
X122849911Y-63396624D01*
X122839724Y-63496044D01*
X122839562Y-63499226D01*
X122839562Y-63531561D01*
X122843203Y-63540351D01*
X122851993Y-63543992D01*
X125293130Y-63543992D01*
X125301920Y-63540351D01*
X125305561Y-63531561D01*
X125305561Y-63499240D01*
X125305395Y-63496026D01*
X125294947Y-63395328D01*
X125293514Y-63388691D01*
X125239806Y-63227706D01*
X125236744Y-63221170D01*
X125147552Y-63077039D01*
X125143080Y-63071396D01*
X125023121Y-62951646D01*
X125017463Y-62947178D01*
X124943349Y-62901493D01*
X124915334Y-62862720D01*
X124922941Y-62815493D01*
X124943257Y-62795142D01*
X125018822Y-62748381D01*
X125021910Y-62746470D01*
X125146867Y-62621295D01*
X125148910Y-62617982D01*
X125183949Y-62561137D01*
X125239677Y-62470730D01*
X125295359Y-62302853D01*
X125299396Y-62263451D01*
X126617124Y-62263451D01*
X126649339Y-62406394D01*
X126650864Y-62411261D01*
X126732947Y-62613408D01*
X126735257Y-62617982D01*
X126849251Y-62804002D01*
X126852272Y-62808131D01*
X126995117Y-62973035D01*
X126998780Y-62976622D01*
X127166637Y-63115980D01*
X127170831Y-63118917D01*
X127359199Y-63228990D01*
X127363815Y-63231202D01*
X127567642Y-63309035D01*
X127572543Y-63310459D01*
X127684017Y-63333138D01*
X127693358Y-63331323D01*
X127696200Y-63327109D01*
X127696200Y-62267831D01*
X127692559Y-62259041D01*
X127683769Y-62255400D01*
X126627741Y-62255400D01*
X126618951Y-62259041D01*
X126617124Y-62263451D01*
X125299396Y-62263451D01*
X125304538Y-62213269D01*
X125305900Y-62199976D01*
X125305900Y-62199970D01*
X125306062Y-62198392D01*
X125306062Y-61597592D01*
X125302543Y-61563670D01*
X125295441Y-61495226D01*
X125295441Y-61495224D01*
X125295088Y-61491826D01*
X125286465Y-61465980D01*
X125289843Y-61418264D01*
X125325972Y-61386913D01*
X125345752Y-61383700D01*
X126641760Y-61383700D01*
X126685954Y-61402006D01*
G37*
%TD.AperFunction*%
%TA.AperFunction,Conductor*%
G36*
X106976836Y-63757406D02*
G01*
X109046910Y-65827480D01*
X109054591Y-65836814D01*
X109058627Y-65842821D01*
X109058632Y-65842826D01*
X109060730Y-65845949D01*
X109063517Y-65848485D01*
X109111258Y-65891926D01*
X109113389Y-65893959D01*
X109130423Y-65910993D01*
X109141560Y-65919726D01*
X109145046Y-65922672D01*
X109187565Y-65961360D01*
X109206021Y-65971381D01*
X109214750Y-65977114D01*
X109231282Y-65990077D01*
X109234714Y-65991627D01*
X109234718Y-65991629D01*
X109283665Y-66013729D01*
X109287766Y-66015764D01*
X109338268Y-66043185D01*
X109341914Y-66044141D01*
X109341915Y-66044142D01*
X109358576Y-66048513D01*
X109368437Y-66052005D01*
X109384134Y-66059093D01*
X109384139Y-66059095D01*
X109387573Y-66060645D01*
X109427592Y-66068062D01*
X109467707Y-66094113D01*
X109478700Y-66129514D01*
X109478700Y-67404400D01*
X109460394Y-67448594D01*
X109416200Y-67466900D01*
X109239066Y-67466900D01*
X109176884Y-67473655D01*
X109173217Y-67475030D01*
X109173216Y-67475030D01*
X109044666Y-67523221D01*
X109044664Y-67523222D01*
X109040495Y-67524785D01*
X109029677Y-67532893D01*
X109025587Y-67535958D01*
X108979244Y-67547814D01*
X108943910Y-67530139D01*
X105612315Y-64198545D01*
X105609411Y-64195437D01*
X105572437Y-64153053D01*
X105572436Y-64153052D01*
X105569961Y-64150215D01*
X105516303Y-64112503D01*
X105513713Y-64110579D01*
X105465086Y-64072450D01*
X105465079Y-64072446D01*
X105462118Y-64070124D01*
X105450401Y-64064834D01*
X105440186Y-64059008D01*
X105429661Y-64051610D01*
X105426154Y-64050243D01*
X105426151Y-64050241D01*
X105368584Y-64027797D01*
X105365567Y-64026529D01*
X105353184Y-64020938D01*
X105305827Y-63999555D01*
X105302119Y-63998868D01*
X105302117Y-63998867D01*
X105293187Y-63997212D01*
X105281880Y-63993992D01*
X105269891Y-63989318D01*
X105236667Y-63984944D01*
X105204897Y-63980761D01*
X105201666Y-63980249D01*
X105140927Y-63968992D01*
X105140926Y-63968992D01*
X105137214Y-63968304D01*
X105133448Y-63968521D01*
X105133446Y-63968521D01*
X105073188Y-63971996D01*
X105069590Y-63972100D01*
X102877008Y-63972100D01*
X102832814Y-63953794D01*
X102797981Y-63918961D01*
X102781632Y-63909060D01*
X102753313Y-63870509D01*
X102760548Y-63823224D01*
X102781631Y-63802141D01*
X102797981Y-63792239D01*
X102832814Y-63757406D01*
X102877008Y-63739100D01*
X106932642Y-63739100D01*
X106976836Y-63757406D01*
G37*
%TD.AperFunction*%
%TA.AperFunction,Conductor*%
G36*
X114782482Y-62511718D02*
G01*
X114810224Y-62539220D01*
X114810466Y-62539816D01*
X114811805Y-62542001D01*
X114811807Y-62542005D01*
X114839601Y-62587360D01*
X114927187Y-62730288D01*
X114928864Y-62732224D01*
X114928867Y-62732228D01*
X115024763Y-62842932D01*
X115073450Y-62899138D01*
X115245326Y-63041832D01*
X115247531Y-63043120D01*
X115247536Y-63043124D01*
X115305576Y-63077039D01*
X115387734Y-63125048D01*
X115416654Y-63163149D01*
X115418700Y-63179009D01*
X115418700Y-66248863D01*
X115400394Y-66293057D01*
X115356200Y-66311363D01*
X115312006Y-66293057D01*
X114114006Y-65095057D01*
X114095700Y-65050863D01*
X114095700Y-63178918D01*
X114114006Y-63134724D01*
X114130703Y-63122792D01*
X114182888Y-63097226D01*
X114182891Y-63097224D01*
X114185194Y-63096096D01*
X114316479Y-63002452D01*
X114364973Y-62967862D01*
X114364976Y-62967860D01*
X114367060Y-62966373D01*
X114525296Y-62808689D01*
X114529856Y-62802344D01*
X114580452Y-62731931D01*
X114655653Y-62627277D01*
X114656827Y-62624903D01*
X114698760Y-62540056D01*
X114734752Y-62508547D01*
X114782482Y-62511718D01*
G37*
%TD.AperFunction*%
%TD*%
M02*
