M48
; DRILL file {KiCad (6.0.11)} date Wed Aug  9 20:09:49 2023
; FORMAT={-:-/ absolute / inch / decimal}
; #@! TF.CreationDate,2023-08-09T20:09:49+02:00
; #@! TF.GenerationSoftware,Kicad,Pcbnew,(6.0.11)
; #@! TF.FileFunction,Plated,1,2,PTH
FMAT,2
INCH
; #@! TA.AperFunction,Plated,PTH,ViaDrill
T1C0.0079
; #@! TA.AperFunction,Plated,PTH,ViaDrill
T2C0.0157
; #@! TA.AperFunction,Plated,PTH,ComponentDrill
T3C0.0217
; #@! TA.AperFunction,Plated,PTH,ComponentDrill
T4C0.0335
; #@! TA.AperFunction,Plated,PTH,ComponentDrill
T5C0.0374
; #@! TA.AperFunction,Plated,PTH,ComponentDrill
T6C0.0394
; #@! TA.AperFunction,Plated,PTH,ViaDrill
T7C0.0866
%
G90
G05
T1
X3.21Y-2.85
X3.21Y-3.13
X3.22Y-2.57
X3.36Y-2.42
X3.41Y-3.3
X3.42Y-3.13
X3.53Y-2.9
X3.58Y-3.12
X3.65Y-2.41
X3.67Y-2.58
X3.712Y-3.01
X3.73Y-2.69
X3.76Y-2.94
X3.79Y-3.3
X3.93Y-2.61
X3.94Y-2.75
X3.95Y-2.41
X3.96Y-3.15
X3.97Y-3.32
X4.1Y-2.96
X4.14Y-2.41
X4.1732Y-2.5197
X4.22Y-2.69
X4.23Y-2.85
X4.24Y-3.02
X4.27Y-2.63
X4.29Y-2.45
X4.315Y-2.574
X4.35Y-2.4
X4.36Y-3.32
X4.4Y-2.6
X4.42Y-2.7
X4.43Y-3.13
X4.48Y-2.78
X4.49Y-2.71
X4.53Y-2.58
X4.53Y-3.3
X4.534Y-2.638
X4.54Y-3.02
X4.55Y-2.75
X4.565Y-2.635
X4.58Y-2.86
X4.61Y-3.29
X4.63Y-3.13
X4.65Y-2.95
X4.67Y-2.58
X4.69Y-2.79
X4.7144Y-2.8174
X4.73Y-2.69
X4.73Y-3.03
X4.7341Y-2.8381
X4.741Y-2.758
X4.7538Y-2.88
X4.77Y-2.57
X4.7735Y-2.8605
X4.776Y-2.774
X4.78Y-3.08
X4.79Y-3.31
X4.8Y-3.04
X4.8522Y-2.9052
X4.8719Y-2.7983
X4.89Y-2.7
X4.94Y-2.56
X4.948Y-2.97
X4.96Y-2.44
X4.96Y-2.64
X5.0Y-2.95
X5.0Y-3.13
X5.02Y-3.03
X5.08Y-2.58
X5.09Y-3.08
X5.12Y-2.96
X5.14Y-2.66
X5.17Y-3.15
X5.25Y-2.94
X5.25Y-3.09
X5.25Y-3.14
X5.3Y-2.73
X5.31Y-2.62
X5.33Y-2.46
X5.41Y-2.52
X5.43Y-3.02
X5.43Y-3.13
X5.52Y-2.43
X5.53Y-3.11
X5.62Y-2.52
X5.63Y-2.72
X5.63Y-2.87
X5.63Y-3.04
X5.65Y-2.42
X5.73Y-3.14
X5.76Y-3.31
X5.79Y-2.59
X5.83Y-2.43
X5.85Y-2.81
X5.85Y-3.04
X6.0Y-2.61
X6.08Y-3.01
X6.09Y-2.46
X6.09Y-3.32
X6.1Y-2.72
T2
X3.4395Y-2.7715
X3.953Y-2.862
X4.225Y-2.75
X4.5858Y-2.9942
T5
X4.1494Y-3.2282
X4.2478Y-3.2282
X4.3462Y-3.2282
X4.4446Y-3.2282
X4.685Y-3.2283
X4.7835Y-3.2283
X4.8819Y-3.2283
X4.9803Y-3.2283
X5.0787Y-3.2283
T6
X3.6299Y-3.2283
X3.7299Y-3.2283
X3.8299Y-3.2283
X3.9299Y-3.2283
X4.468Y-2.438
X4.568Y-2.438
X4.668Y-2.438
X4.768Y-2.438
X5.0374Y-2.441
X5.1374Y-2.441
X5.2374Y-2.441
X5.275Y-3.233
X5.375Y-3.233
X5.3937Y-2.6132
X5.3937Y-2.7132
X5.3937Y-2.8132
X5.3937Y-2.9132
X5.475Y-3.233
X5.4937Y-2.6132
X5.4937Y-2.7132
X5.4937Y-2.8132
X5.4937Y-2.9132
X5.575Y-3.233
X5.675Y-3.233
X5.775Y-3.233
T7
X3.2677Y-2.4803
X3.2677Y-3.2283
X5.9449Y-2.4803
X5.9449Y-3.2283
T3
G00X3.2431Y-2.6821
M15
G01X3.2175Y-2.6821
M16
G05
G00X3.2431Y-2.9872
M15
G01X3.2175Y-2.9872
M16
G05
T4
G00X3.3907Y-2.688
M15
G01X3.3691Y-2.688
M16
G05
G00X3.3907Y-2.9813
M15
G01X3.3691Y-2.9813
M16
G05
T0
M30
