%TF.GenerationSoftware,KiCad,Pcbnew,(6.0.11)*%
%TF.CreationDate,2023-08-09T20:09:53+02:00*%
%TF.ProjectId,Box_domotique_A,426f785f-646f-46d6-9f74-697175655f41,rev?*%
%TF.SameCoordinates,Original*%
%TF.FileFunction,Soldermask,Top*%
%TF.FilePolarity,Negative*%
%FSLAX46Y46*%
G04 Gerber Fmt 4.6, Leading zero omitted, Abs format (unit mm)*
G04 Created by KiCad (PCBNEW (6.0.11)) date 2023-08-09 20:09:53*
%MOMM*%
%LPD*%
G01*
G04 APERTURE LIST*
G04 Aperture macros list*
%AMRoundRect*
0 Rectangle with rounded corners*
0 $1 Rounding radius*
0 $2 $3 $4 $5 $6 $7 $8 $9 X,Y pos of 4 corners*
0 Add a 4 corners polygon primitive as box body*
4,1,4,$2,$3,$4,$5,$6,$7,$8,$9,$2,$3,0*
0 Add four circle primitives for the rounded corners*
1,1,$1+$1,$2,$3*
1,1,$1+$1,$4,$5*
1,1,$1+$1,$6,$7*
1,1,$1+$1,$8,$9*
0 Add four rect primitives between the rounded corners*
20,1,$1+$1,$2,$3,$4,$5,0*
20,1,$1+$1,$4,$5,$6,$7,0*
20,1,$1+$1,$6,$7,$8,$9,0*
20,1,$1+$1,$8,$9,$2,$3,0*%
G04 Aperture macros list end*
%ADD10RoundRect,0.250000X0.250000X0.475000X-0.250000X0.475000X-0.250000X-0.475000X0.250000X-0.475000X0*%
%ADD11RoundRect,0.225000X0.225000X0.250000X-0.225000X0.250000X-0.225000X-0.250000X0.225000X-0.250000X0*%
%ADD12RoundRect,0.225000X-0.250000X0.225000X-0.250000X-0.225000X0.250000X-0.225000X0.250000X0.225000X0*%
%ADD13RoundRect,0.225000X0.250000X-0.225000X0.250000X0.225000X-0.250000X0.225000X-0.250000X-0.225000X0*%
%ADD14R,1.700000X1.700000*%
%ADD15O,1.700000X1.700000*%
%ADD16RoundRect,0.250000X-0.600000X-0.725000X0.600000X-0.725000X0.600000X0.725000X-0.600000X0.725000X0*%
%ADD17O,1.700000X1.950000*%
%ADD18O,0.800000X0.800000*%
%ADD19R,1.300000X0.450000*%
%ADD20O,1.800000X1.150000*%
%ADD21O,2.000000X1.450000*%
%ADD22RoundRect,0.250000X-0.475000X0.250000X-0.475000X-0.250000X0.475000X-0.250000X0.475000X0.250000X0*%
%ADD23R,1.500000X1.500000*%
%ADD24R,2.000000X1.500000*%
%ADD25R,2.000000X3.800000*%
%ADD26C,1.700000*%
%ADD27RoundRect,0.150000X0.825000X0.150000X-0.825000X0.150000X-0.825000X-0.150000X0.825000X-0.150000X0*%
%ADD28RoundRect,0.200000X0.275000X-0.200000X0.275000X0.200000X-0.275000X0.200000X-0.275000X-0.200000X0*%
%ADD29RoundRect,0.011200X0.733800X0.128800X-0.733800X0.128800X-0.733800X-0.128800X0.733800X-0.128800X0*%
%ADD30RoundRect,0.011200X-0.128800X0.733800X-0.128800X-0.733800X0.128800X-0.733800X0.128800X0.733800X0*%
%ADD31RoundRect,0.250000X0.475000X-0.250000X0.475000X0.250000X-0.475000X0.250000X-0.475000X-0.250000X0*%
%ADD32RoundRect,0.200000X-0.200000X-0.275000X0.200000X-0.275000X0.200000X0.275000X-0.200000X0.275000X0*%
%ADD33RoundRect,0.250000X-0.250000X-0.475000X0.250000X-0.475000X0.250000X0.475000X-0.250000X0.475000X0*%
G04 APERTURE END LIST*
D10*
%TO.C,C9*%
X125587800Y-77419200D03*
X123687800Y-77419200D03*
%TD*%
D11*
%TO.C,C2*%
X132982000Y-65963800D03*
X131432000Y-65963800D03*
%TD*%
D12*
%TO.C,C3*%
X101955600Y-72300800D03*
X101955600Y-73850800D03*
%TD*%
D13*
%TO.C,C5*%
X101879400Y-69355000D03*
X101879400Y-67805000D03*
%TD*%
D14*
%TO.C,J4*%
X133030200Y-62001400D03*
D15*
X130490200Y-62001400D03*
X127950200Y-62001400D03*
%TD*%
D16*
%TO.C,J6*%
X105393800Y-81996000D03*
D17*
X107893800Y-81996000D03*
X110393800Y-81996000D03*
X112893800Y-81996000D03*
%TD*%
D18*
%TO.C,J3*%
X84800000Y-74500000D03*
X84800000Y-69500000D03*
D19*
X85900000Y-70700000D03*
X85900000Y-71350000D03*
X85900000Y-72000000D03*
X85900000Y-72650000D03*
X85900000Y-73300000D03*
D20*
X82050000Y-75875000D03*
D21*
X85850000Y-75725000D03*
D20*
X82050000Y-68125000D03*
D21*
X85850000Y-68275000D03*
%TD*%
D11*
%TO.C,C4*%
X132982000Y-64465200D03*
X131432000Y-64465200D03*
%TD*%
D16*
%TO.C,J7*%
X119000000Y-82000000D03*
D17*
X121500000Y-82000000D03*
X124000000Y-82000000D03*
X126500000Y-82000000D03*
X129000000Y-82000000D03*
%TD*%
D22*
%TO.C,C10*%
X133070600Y-69138800D03*
X133070600Y-71038800D03*
%TD*%
D14*
%TO.C,J2*%
X92200000Y-82000000D03*
D15*
X94740000Y-82000000D03*
X97280000Y-82000000D03*
X99820000Y-82000000D03*
%TD*%
D23*
%TO.C,Reset1*%
X97900000Y-63000000D03*
X90100000Y-63000000D03*
%TD*%
D24*
%TO.C,U1*%
X103987200Y-67575400D03*
D25*
X110287200Y-69875400D03*
D24*
X103987200Y-69875400D03*
X103987200Y-72175400D03*
%TD*%
D14*
%TO.C,U4*%
X137000000Y-66375000D03*
D26*
X139540000Y-66375000D03*
X137000000Y-68915000D03*
X139540000Y-68915000D03*
X137000000Y-71455000D03*
X139540000Y-71455000D03*
X137000000Y-73995000D03*
X139540000Y-73995000D03*
%TD*%
D14*
%TO.C,J5*%
X121107200Y-61925200D03*
D15*
X118567200Y-61925200D03*
X116027200Y-61925200D03*
X113487200Y-61925200D03*
%TD*%
D22*
%TO.C,C6*%
X124072562Y-61897992D03*
X124072562Y-63797992D03*
%TD*%
D13*
%TO.C,C1*%
X88849200Y-70396400D03*
X88849200Y-68846400D03*
%TD*%
D27*
%TO.C,U2*%
X97217000Y-76809600D03*
X97217000Y-75539600D03*
X97217000Y-74269600D03*
X97217000Y-72999600D03*
X97217000Y-71729600D03*
X97217000Y-70459600D03*
X97217000Y-69189600D03*
X97217000Y-67919600D03*
X92267000Y-67919600D03*
X92267000Y-69189600D03*
X92267000Y-70459600D03*
X92267000Y-71729600D03*
X92267000Y-72999600D03*
X92267000Y-74269600D03*
X92267000Y-75539600D03*
X92267000Y-76809600D03*
%TD*%
D28*
%TO.C,R2*%
X102082600Y-64680600D03*
X102082600Y-63030600D03*
%TD*%
D14*
%TO.C,J1*%
X133985000Y-82118200D03*
D15*
X136525000Y-82118200D03*
X139065000Y-82118200D03*
X141605000Y-82118200D03*
X144145000Y-82118200D03*
X146685000Y-82118200D03*
%TD*%
D29*
%TO.C,U3*%
X126166200Y-73793800D03*
X126166200Y-73293800D03*
X126166200Y-72793800D03*
X126166200Y-72293800D03*
X126166200Y-71793800D03*
X126166200Y-71293800D03*
X126166200Y-70793800D03*
X126166200Y-70293800D03*
X126166200Y-69793800D03*
X126166200Y-69293800D03*
X126166200Y-68793800D03*
X126166200Y-68293800D03*
D30*
X124746200Y-66873800D03*
X124246200Y-66873800D03*
X123746200Y-66873800D03*
X123246200Y-66873800D03*
X122746200Y-66873800D03*
X122246200Y-66873800D03*
X121746200Y-66873800D03*
X121246200Y-66873800D03*
X120746200Y-66873800D03*
X120246200Y-66873800D03*
X119746200Y-66873800D03*
X119246200Y-66873800D03*
D29*
X117826200Y-68293800D03*
X117826200Y-68793800D03*
X117826200Y-69293800D03*
X117826200Y-69793800D03*
X117826200Y-70293800D03*
X117826200Y-70793800D03*
X117826200Y-71293800D03*
X117826200Y-71793800D03*
X117826200Y-72293800D03*
X117826200Y-72793800D03*
X117826200Y-73293800D03*
X117826200Y-73793800D03*
D30*
X119246200Y-75213800D03*
X119746200Y-75213800D03*
X120246200Y-75213800D03*
X120746200Y-75213800D03*
X121246200Y-75213800D03*
X121746200Y-75213800D03*
X122246200Y-75213800D03*
X122746200Y-75213800D03*
X123246200Y-75213800D03*
X123746200Y-75213800D03*
X124246200Y-75213800D03*
X124746200Y-75213800D03*
%TD*%
D22*
%TO.C,C12*%
X131114800Y-69138800D03*
X131114800Y-71038800D03*
%TD*%
%TO.C,C14*%
X129057400Y-69138800D03*
X129057400Y-71038800D03*
%TD*%
D31*
%TO.C,C8*%
X117195600Y-66736000D03*
X117195600Y-64836000D03*
%TD*%
%TO.C,C11*%
X115087400Y-74660800D03*
X115087400Y-72760800D03*
%TD*%
D32*
%TO.C,R1*%
X122669800Y-79146400D03*
X124319800Y-79146400D03*
%TD*%
D13*
%TO.C,C13*%
X100203000Y-64630600D03*
X100203000Y-63080600D03*
%TD*%
D33*
%TO.C,C7*%
X142204400Y-66395600D03*
X144104400Y-66395600D03*
%TD*%
M02*
