%TF.GenerationSoftware,KiCad,Pcbnew,(6.0.11)*%
%TF.CreationDate,2023-08-09T20:09:51+02:00*%
%TF.ProjectId,Box_domotique_A,426f785f-646f-46d6-9f74-697175655f41,rev?*%
%TF.SameCoordinates,Original*%
%TF.FileFunction,Drillmap*%
%TF.FilePolarity,Positive*%
%FSLAX45Y45*%
G04 Gerber Fmt 4.5, Leading zero omitted, Abs format (unit mm)*
G04 Created by KiCad (PCBNEW (6.0.11)) date 2023-08-09 20:09:51*
%MOMM*%
%LPD*%
G01*
G04 APERTURE LIST*
%ADD10C,0.100000*%
%ADD11C,0.200000*%
%ADD12C,0.080000*%
G04 APERTURE END LIST*
D10*
X8000000Y-8000000D02*
X8000000Y-6500000D01*
X8500000Y-6000000D02*
G75*
G03*
X8000000Y-6500000I0J-500000D01*
G01*
X16500000Y-6500000D02*
G75*
G03*
X16000000Y-6000000I-500000J0D01*
G01*
X8000000Y-8000000D02*
G75*
G03*
X8500000Y-8500000I500000J0D01*
G01*
X16000000Y-8500000D02*
X8500000Y-8500000D01*
X16000000Y-8500000D02*
G75*
G03*
X16500000Y-8000000I0J500000D01*
G01*
X16500000Y-6500000D02*
X16500000Y-8000000D01*
X8500000Y-6000000D02*
X16000000Y-6000000D01*
D11*
D12*
X8440000Y-6910000D02*
X8520000Y-6990000D01*
X8520000Y-6910000D02*
X8440000Y-6990000D01*
X8440000Y-7410000D02*
X8520000Y-7490000D01*
X8520000Y-7410000D02*
X8440000Y-7490000D01*
D11*
X8252619Y-8815476D02*
X8252619Y-8615476D01*
X8300238Y-8615476D01*
X8328809Y-8625000D01*
X8347857Y-8644048D01*
X8357381Y-8663095D01*
X8366905Y-8701190D01*
X8366905Y-8729762D01*
X8357381Y-8767857D01*
X8347857Y-8786905D01*
X8328809Y-8805952D01*
X8300238Y-8815476D01*
X8252619Y-8815476D01*
X8452619Y-8815476D02*
X8452619Y-8682143D01*
X8452619Y-8720238D02*
X8462143Y-8701190D01*
X8471667Y-8691667D01*
X8490714Y-8682143D01*
X8509762Y-8682143D01*
X8576429Y-8815476D02*
X8576429Y-8682143D01*
X8576429Y-8615476D02*
X8566905Y-8625000D01*
X8576429Y-8634524D01*
X8585952Y-8625000D01*
X8576429Y-8615476D01*
X8576429Y-8634524D01*
X8700238Y-8815476D02*
X8681190Y-8805952D01*
X8671667Y-8786905D01*
X8671667Y-8615476D01*
X8805000Y-8815476D02*
X8785952Y-8805952D01*
X8776429Y-8786905D01*
X8776429Y-8615476D01*
X9033571Y-8815476D02*
X9033571Y-8615476D01*
X9100238Y-8758333D01*
X9166905Y-8615476D01*
X9166905Y-8815476D01*
X9347857Y-8815476D02*
X9347857Y-8710714D01*
X9338333Y-8691667D01*
X9319286Y-8682143D01*
X9281190Y-8682143D01*
X9262143Y-8691667D01*
X9347857Y-8805952D02*
X9328810Y-8815476D01*
X9281190Y-8815476D01*
X9262143Y-8805952D01*
X9252619Y-8786905D01*
X9252619Y-8767857D01*
X9262143Y-8748810D01*
X9281190Y-8739286D01*
X9328810Y-8739286D01*
X9347857Y-8729762D01*
X9443095Y-8682143D02*
X9443095Y-8882143D01*
X9443095Y-8691667D02*
X9462143Y-8682143D01*
X9500238Y-8682143D01*
X9519286Y-8691667D01*
X9528810Y-8701190D01*
X9538333Y-8720238D01*
X9538333Y-8777381D01*
X9528810Y-8796429D01*
X9519286Y-8805952D01*
X9500238Y-8815476D01*
X9462143Y-8815476D01*
X9443095Y-8805952D01*
X9624048Y-8796429D02*
X9633571Y-8805952D01*
X9624048Y-8815476D01*
X9614524Y-8805952D01*
X9624048Y-8796429D01*
X9624048Y-8815476D01*
X9624048Y-8691667D02*
X9633571Y-8701190D01*
X9624048Y-8710714D01*
X9614524Y-8701190D01*
X9624048Y-8691667D01*
X9624048Y-8710714D01*
D12*
X7915000Y-9105000D02*
X7995000Y-9185000D01*
X7995000Y-9105000D02*
X7915000Y-9185000D01*
D11*
X8290714Y-9035476D02*
X8309762Y-9035476D01*
X8328809Y-9045000D01*
X8338333Y-9054524D01*
X8347857Y-9073571D01*
X8357381Y-9111667D01*
X8357381Y-9159286D01*
X8347857Y-9197381D01*
X8338333Y-9216429D01*
X8328809Y-9225952D01*
X8309762Y-9235476D01*
X8290714Y-9235476D01*
X8271667Y-9225952D01*
X8262143Y-9216429D01*
X8252619Y-9197381D01*
X8243095Y-9159286D01*
X8243095Y-9111667D01*
X8252619Y-9073571D01*
X8262143Y-9054524D01*
X8271667Y-9045000D01*
X8290714Y-9035476D01*
X8443095Y-9216429D02*
X8452619Y-9225952D01*
X8443095Y-9235476D01*
X8433571Y-9225952D01*
X8443095Y-9216429D01*
X8443095Y-9235476D01*
X8566905Y-9121190D02*
X8547857Y-9111667D01*
X8538333Y-9102143D01*
X8528810Y-9083095D01*
X8528810Y-9073571D01*
X8538333Y-9054524D01*
X8547857Y-9045000D01*
X8566905Y-9035476D01*
X8605000Y-9035476D01*
X8624048Y-9045000D01*
X8633571Y-9054524D01*
X8643095Y-9073571D01*
X8643095Y-9083095D01*
X8633571Y-9102143D01*
X8624048Y-9111667D01*
X8605000Y-9121190D01*
X8566905Y-9121190D01*
X8547857Y-9130714D01*
X8538333Y-9140238D01*
X8528810Y-9159286D01*
X8528810Y-9197381D01*
X8538333Y-9216429D01*
X8547857Y-9225952D01*
X8566905Y-9235476D01*
X8605000Y-9235476D01*
X8624048Y-9225952D01*
X8633571Y-9216429D01*
X8643095Y-9197381D01*
X8643095Y-9159286D01*
X8633571Y-9140238D01*
X8624048Y-9130714D01*
X8605000Y-9121190D01*
X8766905Y-9035476D02*
X8785952Y-9035476D01*
X8805000Y-9045000D01*
X8814524Y-9054524D01*
X8824048Y-9073571D01*
X8833571Y-9111667D01*
X8833571Y-9159286D01*
X8824048Y-9197381D01*
X8814524Y-9216429D01*
X8805000Y-9225952D01*
X8785952Y-9235476D01*
X8766905Y-9235476D01*
X8747857Y-9225952D01*
X8738333Y-9216429D01*
X8728810Y-9197381D01*
X8719286Y-9159286D01*
X8719286Y-9111667D01*
X8728810Y-9073571D01*
X8738333Y-9054524D01*
X8747857Y-9045000D01*
X8766905Y-9035476D01*
X8957381Y-9035476D02*
X8976429Y-9035476D01*
X8995476Y-9045000D01*
X9005000Y-9054524D01*
X9014524Y-9073571D01*
X9024048Y-9111667D01*
X9024048Y-9159286D01*
X9014524Y-9197381D01*
X9005000Y-9216429D01*
X8995476Y-9225952D01*
X8976429Y-9235476D01*
X8957381Y-9235476D01*
X8938333Y-9225952D01*
X8928810Y-9216429D01*
X8919286Y-9197381D01*
X8909762Y-9159286D01*
X8909762Y-9111667D01*
X8919286Y-9073571D01*
X8928810Y-9054524D01*
X8938333Y-9045000D01*
X8957381Y-9035476D01*
X9109762Y-9235476D02*
X9109762Y-9102143D01*
X9109762Y-9121190D02*
X9119286Y-9111667D01*
X9138333Y-9102143D01*
X9166905Y-9102143D01*
X9185952Y-9111667D01*
X9195476Y-9130714D01*
X9195476Y-9235476D01*
X9195476Y-9130714D02*
X9205000Y-9111667D01*
X9224048Y-9102143D01*
X9252619Y-9102143D01*
X9271667Y-9111667D01*
X9281190Y-9130714D01*
X9281190Y-9235476D01*
X9376429Y-9235476D02*
X9376429Y-9102143D01*
X9376429Y-9121190D02*
X9385952Y-9111667D01*
X9405000Y-9102143D01*
X9433571Y-9102143D01*
X9452619Y-9111667D01*
X9462143Y-9130714D01*
X9462143Y-9235476D01*
X9462143Y-9130714D02*
X9471667Y-9111667D01*
X9490714Y-9102143D01*
X9519286Y-9102143D01*
X9538333Y-9111667D01*
X9547857Y-9130714D01*
X9547857Y-9235476D01*
X9938333Y-9025952D02*
X9766905Y-9283095D01*
X10195476Y-9035476D02*
X10214524Y-9035476D01*
X10233571Y-9045000D01*
X10243095Y-9054524D01*
X10252619Y-9073571D01*
X10262143Y-9111667D01*
X10262143Y-9159286D01*
X10252619Y-9197381D01*
X10243095Y-9216429D01*
X10233571Y-9225952D01*
X10214524Y-9235476D01*
X10195476Y-9235476D01*
X10176429Y-9225952D01*
X10166905Y-9216429D01*
X10157381Y-9197381D01*
X10147857Y-9159286D01*
X10147857Y-9111667D01*
X10157381Y-9073571D01*
X10166905Y-9054524D01*
X10176429Y-9045000D01*
X10195476Y-9035476D01*
X10347857Y-9216429D02*
X10357381Y-9225952D01*
X10347857Y-9235476D01*
X10338333Y-9225952D01*
X10347857Y-9216429D01*
X10347857Y-9235476D01*
X10481190Y-9035476D02*
X10500238Y-9035476D01*
X10519286Y-9045000D01*
X10528810Y-9054524D01*
X10538333Y-9073571D01*
X10547857Y-9111667D01*
X10547857Y-9159286D01*
X10538333Y-9197381D01*
X10528810Y-9216429D01*
X10519286Y-9225952D01*
X10500238Y-9235476D01*
X10481190Y-9235476D01*
X10462143Y-9225952D01*
X10452619Y-9216429D01*
X10443095Y-9197381D01*
X10433571Y-9159286D01*
X10433571Y-9111667D01*
X10443095Y-9073571D01*
X10452619Y-9054524D01*
X10462143Y-9045000D01*
X10481190Y-9035476D01*
X10614524Y-9035476D02*
X10738333Y-9035476D01*
X10671667Y-9111667D01*
X10700238Y-9111667D01*
X10719286Y-9121190D01*
X10728810Y-9130714D01*
X10738333Y-9149762D01*
X10738333Y-9197381D01*
X10728810Y-9216429D01*
X10719286Y-9225952D01*
X10700238Y-9235476D01*
X10643095Y-9235476D01*
X10624048Y-9225952D01*
X10614524Y-9216429D01*
X10928810Y-9235476D02*
X10814524Y-9235476D01*
X10871667Y-9235476D02*
X10871667Y-9035476D01*
X10852619Y-9064048D01*
X10833571Y-9083095D01*
X10814524Y-9092619D01*
X11109762Y-9035476D02*
X11014524Y-9035476D01*
X11005000Y-9130714D01*
X11014524Y-9121190D01*
X11033571Y-9111667D01*
X11081190Y-9111667D01*
X11100238Y-9121190D01*
X11109762Y-9130714D01*
X11119286Y-9149762D01*
X11119286Y-9197381D01*
X11109762Y-9216429D01*
X11100238Y-9225952D01*
X11081190Y-9235476D01*
X11033571Y-9235476D01*
X11014524Y-9225952D01*
X11005000Y-9216429D01*
X11195476Y-9035476D02*
X11195476Y-9073571D01*
X11271667Y-9035476D02*
X11271667Y-9073571D01*
X11566905Y-9311667D02*
X11557381Y-9302143D01*
X11538333Y-9273571D01*
X11528809Y-9254524D01*
X11519286Y-9225952D01*
X11509762Y-9178333D01*
X11509762Y-9140238D01*
X11519286Y-9092619D01*
X11528809Y-9064048D01*
X11538333Y-9045000D01*
X11557381Y-9016429D01*
X11566905Y-9006905D01*
X11633571Y-9054524D02*
X11643095Y-9045000D01*
X11662143Y-9035476D01*
X11709762Y-9035476D01*
X11728809Y-9045000D01*
X11738333Y-9054524D01*
X11747857Y-9073571D01*
X11747857Y-9092619D01*
X11738333Y-9121190D01*
X11624048Y-9235476D01*
X11747857Y-9235476D01*
X11985952Y-9235476D02*
X11985952Y-9035476D01*
X12071667Y-9235476D02*
X12071667Y-9130714D01*
X12062143Y-9111667D01*
X12043095Y-9102143D01*
X12014524Y-9102143D01*
X11995476Y-9111667D01*
X11985952Y-9121190D01*
X12195476Y-9235476D02*
X12176428Y-9225952D01*
X12166905Y-9216429D01*
X12157381Y-9197381D01*
X12157381Y-9140238D01*
X12166905Y-9121190D01*
X12176428Y-9111667D01*
X12195476Y-9102143D01*
X12224048Y-9102143D01*
X12243095Y-9111667D01*
X12252619Y-9121190D01*
X12262143Y-9140238D01*
X12262143Y-9197381D01*
X12252619Y-9216429D01*
X12243095Y-9225952D01*
X12224048Y-9235476D01*
X12195476Y-9235476D01*
X12376428Y-9235476D02*
X12357381Y-9225952D01*
X12347857Y-9206905D01*
X12347857Y-9035476D01*
X12528809Y-9225952D02*
X12509762Y-9235476D01*
X12471667Y-9235476D01*
X12452619Y-9225952D01*
X12443095Y-9206905D01*
X12443095Y-9130714D01*
X12452619Y-9111667D01*
X12471667Y-9102143D01*
X12509762Y-9102143D01*
X12528809Y-9111667D01*
X12538333Y-9130714D01*
X12538333Y-9149762D01*
X12443095Y-9168810D01*
X12614524Y-9225952D02*
X12633571Y-9235476D01*
X12671667Y-9235476D01*
X12690714Y-9225952D01*
X12700238Y-9206905D01*
X12700238Y-9197381D01*
X12690714Y-9178333D01*
X12671667Y-9168810D01*
X12643095Y-9168810D01*
X12624048Y-9159286D01*
X12614524Y-9140238D01*
X12614524Y-9130714D01*
X12624048Y-9111667D01*
X12643095Y-9102143D01*
X12671667Y-9102143D01*
X12690714Y-9111667D01*
X12766905Y-9311667D02*
X12776428Y-9302143D01*
X12795476Y-9273571D01*
X12805000Y-9254524D01*
X12814524Y-9225952D01*
X12824048Y-9178333D01*
X12824048Y-9140238D01*
X12814524Y-9092619D01*
X12805000Y-9064048D01*
X12795476Y-9045000D01*
X12776428Y-9016429D01*
X12766905Y-9006905D01*
X13128809Y-9311667D02*
X13119286Y-9302143D01*
X13100238Y-9273571D01*
X13090714Y-9254524D01*
X13081190Y-9225952D01*
X13071667Y-9178333D01*
X13071667Y-9140238D01*
X13081190Y-9092619D01*
X13090714Y-9064048D01*
X13100238Y-9045000D01*
X13119286Y-9016429D01*
X13128809Y-9006905D01*
X13205000Y-9102143D02*
X13205000Y-9235476D01*
X13205000Y-9121190D02*
X13214524Y-9111667D01*
X13233571Y-9102143D01*
X13262143Y-9102143D01*
X13281190Y-9111667D01*
X13290714Y-9130714D01*
X13290714Y-9235476D01*
X13414524Y-9235476D02*
X13395476Y-9225952D01*
X13385952Y-9216429D01*
X13376428Y-9197381D01*
X13376428Y-9140238D01*
X13385952Y-9121190D01*
X13395476Y-9111667D01*
X13414524Y-9102143D01*
X13443095Y-9102143D01*
X13462143Y-9111667D01*
X13471667Y-9121190D01*
X13481190Y-9140238D01*
X13481190Y-9197381D01*
X13471667Y-9216429D01*
X13462143Y-9225952D01*
X13443095Y-9235476D01*
X13414524Y-9235476D01*
X13538333Y-9102143D02*
X13614524Y-9102143D01*
X13566905Y-9035476D02*
X13566905Y-9206905D01*
X13576428Y-9225952D01*
X13595476Y-9235476D01*
X13614524Y-9235476D01*
X13833571Y-9102143D02*
X13833571Y-9302143D01*
X13833571Y-9111667D02*
X13852619Y-9102143D01*
X13890714Y-9102143D01*
X13909762Y-9111667D01*
X13919286Y-9121190D01*
X13928809Y-9140238D01*
X13928809Y-9197381D01*
X13919286Y-9216429D01*
X13909762Y-9225952D01*
X13890714Y-9235476D01*
X13852619Y-9235476D01*
X13833571Y-9225952D01*
X14043095Y-9235476D02*
X14024048Y-9225952D01*
X14014524Y-9206905D01*
X14014524Y-9035476D01*
X14205000Y-9235476D02*
X14205000Y-9130714D01*
X14195476Y-9111667D01*
X14176428Y-9102143D01*
X14138333Y-9102143D01*
X14119286Y-9111667D01*
X14205000Y-9225952D02*
X14185952Y-9235476D01*
X14138333Y-9235476D01*
X14119286Y-9225952D01*
X14109762Y-9206905D01*
X14109762Y-9187857D01*
X14119286Y-9168810D01*
X14138333Y-9159286D01*
X14185952Y-9159286D01*
X14205000Y-9149762D01*
X14271667Y-9102143D02*
X14347857Y-9102143D01*
X14300238Y-9035476D02*
X14300238Y-9206905D01*
X14309762Y-9225952D01*
X14328809Y-9235476D01*
X14347857Y-9235476D01*
X14490714Y-9225952D02*
X14471667Y-9235476D01*
X14433571Y-9235476D01*
X14414524Y-9225952D01*
X14405000Y-9206905D01*
X14405000Y-9130714D01*
X14414524Y-9111667D01*
X14433571Y-9102143D01*
X14471667Y-9102143D01*
X14490714Y-9111667D01*
X14500238Y-9130714D01*
X14500238Y-9149762D01*
X14405000Y-9168810D01*
X14671667Y-9235476D02*
X14671667Y-9035476D01*
X14671667Y-9225952D02*
X14652619Y-9235476D01*
X14614524Y-9235476D01*
X14595476Y-9225952D01*
X14585952Y-9216429D01*
X14576428Y-9197381D01*
X14576428Y-9140238D01*
X14585952Y-9121190D01*
X14595476Y-9111667D01*
X14614524Y-9102143D01*
X14652619Y-9102143D01*
X14671667Y-9111667D01*
X14747857Y-9311667D02*
X14757381Y-9302143D01*
X14776428Y-9273571D01*
X14785952Y-9254524D01*
X14795476Y-9225952D01*
X14805000Y-9178333D01*
X14805000Y-9140238D01*
X14795476Y-9092619D01*
X14785952Y-9064048D01*
X14776428Y-9045000D01*
X14757381Y-9016429D01*
X14747857Y-9006905D01*
M02*
